<?xml version="1.0" encoding="UTF-8"?>
<svg xmlns="http://www.w3.org/2000/svg" version="1.1" xmlns:xlink="http://www.w3.org/1999/xlink" viewBox="0 0 139.9 39.4">
  <defs>
    <style>
      .cls-1 {
        fill: #595757;
      }

      .cls-2 {
        fill: none;
      }

      .cls-3 {
        clip-path: url(#clippath);
      }
    </style>
    <clipPath id="clippath">
      <rect class="cls-2" y="0" width="139.9" height="39.4"/>
    </clipPath>
  </defs>
  <!-- Generator: Adobe Illustrator 28.6.0, SVG Export Plug-In . SVG Version: 1.2.0 Build 709)  -->
  <g>
    <g id="_レイヤー_1" data-name="レイヤー_1">
      <g id="_グループ_579" data-name="グループ_579">
        <g class="cls-3">
          <g id="_グループ_578" data-name="グループ_578">
            <path id="_パス_832" data-name="パス_832" class="cls-1" d="M0,26.8C0,14.2,8.1,0,18.4,0s9.8,6.7,7.5,13.3h-3c2-5.9-.1-10.6-4.5-10.6C10.2,2.7,2.9,15,2.9,26.5s2.6,10.1,7.3,10.1,6.9-2.9,9.1-7l2.5,1.1c-2,4.2-6.1,8.6-11.8,8.6-6.2,0-9.9-5.2-9.9-12.5"/>
            <path id="_パス_833" data-name="パス_833" class="cls-1" d="M49.7,23.5v3c-1.9,4.2-5.7,8.5-9.1,8.5-1.7.1-3.3-1.2-3.4-2.9,0,0,0-.2,0-.3-1.2,2-3.4,3.3-5.8,3.2-3.5,0-5.7-3.2-5.7-7,0-6.7,4.1-12.8,10-12.8,2,0,3.9,1.1,4.9,2.9l.8-2.4h2.7c-4.9,13.7-5.6,16.8-3.3,16.8s6-3.9,8.9-8.9M39.6,20.5c-.5-1.7-2.2-2.9-4-2.9-4.4,0-7.2,5.1-7.2,10.3s1.2,4.4,3.6,4.4,5.6-4.3,7.6-11.8"/>
            <path id="_パス_834" data-name="パス_834" class="cls-1" d="M67.7,22.3l-.2,4c-3.1,7.2-8.2,8.6-13.8,8.6s-7-1.9-7.9-4.4c-.2-.5-.2-1.1,0-1.5,3.2-4.6,5.8-9.6,7.7-14.9h2.1c1.1,2,4.8,8.5,4.7,13.1,0,1.9-.7,3.6-2.1,4.9,3.4-.5,7.3-4.7,9.3-9.9M54.8,17.6c-1.7,4.4-3.9,8.5-6.6,12.3,1,1.5,2.7,2.5,4.5,2.6,3.1,0,5-2.3,5.1-5.3,0-3.4-1.6-7-2.9-9.6"/>
            <path id="_パス_835" data-name="パス_835" class="cls-1" d="M82.6,29.5c-2.1,3.3-5.7,5.3-9.6,5.4-5.1,0-7.9-3.3-7.9-7.4,0-6.6,4.2-12.4,9.6-12.4,2.7-.1,5.1,2,5.2,4.7,0,.1,0,.2,0,.4,0,5.1-5.7,8.8-12,7.5.2,2.7,1.9,4.7,5.8,4.7s6-2.6,7.3-4.7l1.8,1.8ZM68,25.3c4.4,1.2,9.1-1.4,9.1-5,0-1.4-1-2.7-2.4-2.7,0,0-.1,0-.2,0-3.3,0-5.9,3.6-6.6,7.7"/>
            <path id="_パス_836" data-name="パス_836" class="cls-1" d="M91.5,27.7C91.5,15.9,100.2.2,110.3.2s8.9,4.1,8.9,12.2c0,11.9-8.4,27-18.6,27s-9.1-3.9-9.1-11.8M116.4,12.6c0-6-2.4-9.7-6.4-9.7-7.9,0-15.5,14.5-15.5,24.6s2.2,9.3,6.4,9.3c8.1,0,15.5-14.1,15.5-24.1"/>
            <path id="_パス_837" data-name="パス_837" class="cls-1" d="M127.4,38.8h-2.9c3.2-10,7.2-22.6,10.8-33-2.9,2.6-6.4,4.4-10.2,5.4l-.7-2.6c4.6-1.2,9.5-3.9,12.3-8.2h3.2c-3.9,11.3-8.7,26.5-12.5,38.3"/>
          </g>
        </g>
      </g>
    </g>
  </g>
</svg>