<svg xmlns="http://www.w3.org/2000/svg" xmlns:xlink="http://www.w3.org/1999/xlink" width="145.971" height="39.429" viewBox="0 0 145.971 39.429">
  <defs>
    <clipPath id="clip-path">
      <rect id="長方形_401" data-name="長方形 401" width="145.971" height="39.429" fill="none"/>
    </clipPath>
  </defs>
  <g id="グループ_581" data-name="グループ 581" transform="translate(0)">
    <g id="グループ_580" data-name="グループ 580" transform="translate(0 0)" clip-path="url(#clip-path)">
      <path id="パス_838" data-name="パス 838" d="M0,26.794C0,14.208,8.063,0,18.387,0c6.932,0,9.784,6.736,7.522,13.274h-3c1.967-5.851-.1-10.57-4.523-10.57-8.161,0-15.535,12.34-15.535,23.844,0,5.949,2.557,10.079,7.325,10.079,3.687,0,6.883-2.949,9.1-6.981l2.458,1.131c-2.016,4.228-6.1,8.554-11.8,8.554C3.687,39.33,0,34.168,0,26.794" transform="translate(0 0)"/>
      <path id="パス_839" data-name="パス 839" d="M86.05,44.785v2.95c-1.918,4.179-5.654,8.505-9.144,8.505a3.173,3.173,0,0,1-3.392-3.245,6.491,6.491,0,0,1-5.752,3.245c-3.49,0-5.7-3.245-5.7-7.03,0-6.686,4.13-12.831,9.98-12.831a5.772,5.772,0,0,1,4.916,2.851l.836-2.36h2.655c-4.867,13.717-5.555,16.814-3.294,16.814,2.36,0,6-3.884,8.9-8.9m-10.079-2.95a4.085,4.085,0,0,0-3.982-2.9c-4.425,0-7.227,5.064-7.227,10.275,0,2.163,1.18,4.376,3.589,4.376,3.392,0,5.555-4.277,7.62-11.75" transform="translate(-36.394 -21.334)"/>
      <path id="パス_840" data-name="パス 840" d="M132.478,42.28l-.246,4.031c-3.1,7.227-8.161,8.6-13.765,8.6-3.884,0-7.03-1.868-7.866-4.376a1.615,1.615,0,0,1,.1-1.524,60.468,60.468,0,0,0,7.669-14.9h2.114c1.082,2.016,4.818,8.456,4.719,13.127a6.72,6.72,0,0,1-2.064,4.916c3.392-.541,7.276-4.719,9.341-9.881m-12.93-4.621A58.443,58.443,0,0,1,112.911,50a5.654,5.654,0,0,0,4.523,2.557c3.147,0,5.015-2.262,5.064-5.26.049-3.442-1.622-7.031-2.95-9.636" transform="translate(-64.778 -20.009)"/>
      <path id="パス_841" data-name="パス 841" d="M174.958,50.9a11.619,11.619,0,0,1-9.636,5.408c-5.113-.049-7.915-3.343-7.915-7.374,0-6.637,4.179-12.439,9.587-12.439A4.954,4.954,0,0,1,172.2,41.56c0,5.064-5.654,8.8-12.045,7.522.2,2.655,1.868,4.72,5.752,4.72,2.8,0,6-2.556,7.276-4.671Zm-14.651-4.179c4.375,1.18,9.144-1.426,9.144-4.966A2.581,2.581,0,0,0,166.895,39c-3.343,0-5.949,3.638-6.588,7.719" transform="translate(-92.31 -21.403)"/>
      <path id="パス_842" data-name="パス 842" d="M221.366,27.958c0-11.8,8.7-27.482,18.78-27.482,5.261,0,8.948,4.081,8.948,12.192,0,11.9-8.358,27.04-18.633,27.04-5.408,0-9.095-3.884-9.095-11.75m24.828-15.044c0-6.047-2.36-9.735-6.441-9.735-7.867,0-15.536,14.454-15.536,24.581,0,5.9,2.212,9.292,6.441,9.292,8.063,0,15.535-14.11,15.535-24.139" transform="translate(-129.82 -0.279)"/>
      <path id="パス_843" data-name="パス 843" d="M287.947,36.611H305.4l-.786,2.507h-20.6l-.59-2.8c9.833-4.572,25.811-14.651,25.811-25.663,0-4.523-2.8-7.473-6.834-7.473-4.671,0-8.358,4.425-8.358,8.653a9.447,9.447,0,0,0,1.081,4.817l-2.556,1.279a11.2,11.2,0,0,1-1.426-6.1A11.708,11.708,0,0,1,302.647.476c5.7,0,9.537,4.179,9.537,10.029,0,11.357-15.093,22.074-24.237,26.106" transform="translate(-166.214 -0.279)"/>
    </g>
  </g>
</svg>
