<svg id="グループ_4842" data-name="グループ 4842" xmlns="http://www.w3.org/2000/svg" xmlns:xlink="http://www.w3.org/1999/xlink" width="249.037" height="230.06" viewBox="0 0 249.037 230.06">
  <defs>
    <clipPath id="clip-path">
      <rect id="長方形_1210" data-name="長方形 1210" width="249.037" height="230.06" fill="none"/>
    </clipPath>
    <clipPath id="clip-path-3">
      <rect id="長方形_1207" data-name="長方形 1207" width="16.049" height="18.895" fill="none"/>
    </clipPath>
    <clipPath id="clip-path-4">
      <rect id="長方形_1208" data-name="長方形 1208" width="14.878" height="24.609" fill="none"/>
    </clipPath>
  </defs>
  <g id="グループ_4841" data-name="グループ 4841" clip-path="url(#clip-path)">
    <g id="グループ_4840" data-name="グループ 4840" transform="translate(0 0)">
      <g id="グループ_4839" data-name="グループ 4839" clip-path="url(#clip-path)">
        <path id="パス_10862" data-name="パス 10862" d="M213.84,182.584a4.382,4.382,0,0,0-2.9-1.67c-.185-.051-3.292-1.457-3.292-1.825,0-1.1,3.267-.843,4.148-1.5,1.8-1.351,2.335-1.7,2.615-3.995.713-5.849-2.045-10.556,1.522-15.55,3.851-5.391,10.524-6.613,13.125-13.838a49.458,49.458,0,0,0,3.314-13.035c.506-3.491.679-10.151,2.708-14.608a28.53,28.53,0,0,1,11.137-12.865c3.82-2.266,4.72-1.117,7.546-4.285s4.309-4.517,6.769-5.217a12.789,12.789,0,0,1,11.136,2.449,58.5,58.5,0,0,0,12.447,8.51c1.069.534,6.881,1.3,6.881,1.3l-3.521,2.823,2.441,4.034s2.011,3.593,3.043,5.1c2.975,4.348,3.326,10.539,2.819,13.71-.637,3.991-2.716,14.528-1.654,20.611.683,3.918,3.218,5.937,4.364,7.312s5.628,6.032,6.363,8.969c.673,2.692,1.312,5.943.8,8.243-1.229,5.575-6.032,9.342-10.477,13.432-1.238,1.139-4.839,3.006-5.56,4.448Z" transform="translate(-176.757 -79.841)" fill="#926359"/>
        <path id="パス_10863" data-name="パス 10863" d="M23.966,773.3A64.41,64.41,0,0,1,26.19,756.06c1.941-8.1,2.993-14.96,5.885-22.766,1.53-4.13,4.739-11.93,5.762-17.344.81-4.289.288-2.643-1.021-1.869-5.706,3.372-18.234,6.912-23.562,6.564-3.455-.225-7.483.583-9.074-5.327a45.348,45.348,0,0,1-.692-7.254c.591-6.2,3.039-11.84,5.764-17.4,5.277-10.776,8.4-18.349,14.657-27.969,1.831-2.817,6.18-8.4,7.875-11.258,1.872-3.158,4.167-4.75,6.97-6.827,3.074-2.276,12.214-3.961,16.377-4.339a71.606,71.606,0,0,0,8.38-1.6,41.706,41.706,0,0,0,7.462,11.345A27.483,27.483,0,0,0,83,656.9c5.667,1.491,13.046-1.042,17.278-4.709,3.31-2.868,4.311-8.911,4.311-8.911s13.448,4.762,15.5,7.494c3.282,4.376,4.888,10.237,6.967,15.227a50.84,50.84,0,0,1,4.186,18.891c.306,6.726-.164,15.116.1,21.222.217,4.975.652,18.984.406,19.6-.4.992-3.253-3.13-3.858-4.011-2.324-3.379-5.737-8.428-5.737-8.428s-2.825-7.107-2.894-6.955c-2,4.392-5.435,16.556-6.561,21.222a106.974,106.974,0,0,0-3.012,19.78c-.217,3.865.2,7.569-.606,12.226-.5,2.883.237,13.946.237,13.946Z" transform="translate(-2.961 -543.661)" fill="#f4a091"/>
        <path id="パス_10864" data-name="パス 10864" d="M808.019,711.564c-.939-2.817-.221-6.117-.221-9.086,0-5.81-.312-12.292-.483-18.1-.417-14.18-.309-24.568-.472-39.916-.079-7.42,1.246-17.388-.577-24.677-1.393-5.575.111-3.33-1.655-8.849-1.13-3.531-4.7-11.8-5.4-15.56-.384-2.047-3.341-8.955-2.411-11.126,1.11-2.59,5.1-3.388,7.185-4.59,5.614-3.228,22.53-9.133,22.53-9.133a18.025,18.025,0,0,0,7.557,7.037c3.37,1.605,9.206,2.668,12.86,1.948,9.163-1.808,10.628-1.4,15.552-4.737,7.44-5.038,6.024-8.725,7.764-9.053,1.059-.2,2.173.453,3.7.777,3.544.749,8.132,1.891,10.91,2.049a48.505,48.505,0,0,1,17,3.888c2.673,1.051,6.6,2.727,9.144,6.792a84.83,84.83,0,0,1,5.819,12.648,143.492,143.492,0,0,1,8.38,38.539c.576,6.342,2.658,18.694.506,27.606a29.4,29.4,0,0,1-4.583,9.66c-4.6,7.117-22.05-.556-22.05-.556s-.317,12.607-.265,25.118c.021,5.119,1.215,15.252.866,19.09Z" transform="translate(-678.118 -481.539)" fill="#9fc9e1"/>
        <path id="パス_10865" data-name="パス 10865" d="M875.609,52.824c-1.848,0-4.279-2.73-4.983-4.139-2.251-4.5-5.07-9.827-4.2-15.457.3-1.977.99-4.161.526-4.345-1.094-.433-2.577,1.782-3.73-.524-.512-1.024,2.363-2.184,2.363-2.184a34.2,34.2,0,0,0,3.8-6.691,18.683,18.683,0,0,1,6.264-8.117c5.127-3.618,6.158-.72,11.568-2.144,2.1-.552,1.322-2.063,6.553-4.357,3.167-1.39,9.321-1.174,13.4.168,1.328.437,5.613,4.182,9.272,6.457,3.186,1.98,6.637,2.007,6.5,3.366-.215,2.155-1.82,1.5-1.82,1.5s1.635,2.761,2.153,3.394c1.723,2.107,2.208,6.447,2.39,9.18.3,4.452-.759,10.005-1.915,15.087-.709,3.117-.984,6.019-2.4,8.49-1.768,3.1-3.989,5.942-5.719,9.055Z" transform="translate(-734.757 -3.338)" fill="#e7b890"/>
        <path id="パス_10866" data-name="パス 10866" d="M407.891,286.918c-.658-1.316,4.852-.888,7.69-4.457s2.661-5.713,3.158-9.687a8.508,8.508,0,0,0-1.976-6.7c-2.057-2.742-2.618-10.488-2.618-10.488l-3.421-2.609s4.248-2.481,5.317-4.771c1.495-3.2,3.209-9.356,5.068-12.544,1.356-2.326,1.1-3.032,2.388-4.352a16.411,16.411,0,0,1,3.325-2.5c2.87-1.423,2.36-1.677,3.721-2.507,1.422-.867,2.918-2.164,4.75-2.368,1.912-.213,2.488,1.4,3.321,2.842,2.037,3.525,1.873,6.534,3.531,9.139,1.973,3.1,7.173,4.727,7.173,4.727a9.192,9.192,0,0,1,.862,3.329c.176,3.69.692,6.531.245,10.111-.055.44-2.205,4.657-2.187,4.676.9.9,4.46-1.966,4.9-2.371,1.5-1.376,2.651-9.444,2.651-9.444s2.272.459,2.807,1.315c1.971,3.153.13,6.405-2.038,8.573-1.875,1.876-4.094,1.709-4.244,2.084-.949,2.356-2.754,6.158-3.859,8.368-1.04,2.079-4.845,5.987-4.845,5.987s-.8,10.765.237,13.183c2.054,4.793,6.176.693,3.777,8.29a14.184,14.184,0,0,1-2.2,3.815c-6.032,7.037-12.17,6.8-20.086,4.534-4.644-1.327-13.66-7.325-15.847-12.793Z" transform="translate(-347.169 -190.608)" fill="#ffe4ce"/>
        <path id="パス_10867" data-name="パス 10867" d="M931.406,247.132c3.16-1.727,3.512-2.363,4.405-3.926,2-3.492,1.185-9.4-.465-12.969-.416-.9-1.894-2.068-2.414-2.885-1.481-2.327-5.068-9.791-5.068-9.791s-3.255-.929-4.606-1.529c-2.717-1.208-4.125-5.062-3.594-7.9,1.154-6.154,9.046-.936,9.046-.936l-1.749-5.141-.012-3.951s4.19-.815,5.823-1.877c2.744-1.783,5.186-3.625,6.546-6.451a20.459,20.459,0,0,0,1.327-3.971c.194-.776.493,1.9.454,2.7a51.1,51.1,0,0,1-.209,5.3c-.382,2.678-.475,3.9-1.876,6.124a5.889,5.889,0,0,1-.708,1.581c-.152.173-.705,1.2-.478,1.235,2.613.415,7.159-4.651,8.231-6.308.547-.844.887-1.354,1.375-2.233.06-.107.712-1.531.759-1.391.269.808-1.348,6.508-.963,6.7,1.584.792,4.524-5.6,4.725-6.333.092-.338.794-4.991.8-4.989,1.623.2,2.29,2.024,3.756,2.948,1.489.939,3.777.983,5.538,1.3,1.211.22,1.682.546,1.49.546a34.264,34.264,0,0,1,1.28,4.9c.226,1.934-.491,3.741.228,4.1.3.152,1.384-1.545,1.572-1.827,1.632-2.448,1.831-3.66,4.675-2.321a7.671,7.671,0,0,1,2.156,2.1c.364.641.2,2.608.365,3.328,1.124,5.062-5.4,7.553-5.4,7.553a87.069,87.069,0,0,1-1.2,8.811c-.7,3.188-2.3,4.295-3.058,7.338-.539,2.16.608,7.494,2.262,10.758a7.975,7.975,0,0,0,2.03,2.421,41.788,41.788,0,0,0,5.807,2.738,17.784,17.784,0,0,1-2.85,4.734,21.637,21.637,0,0,1-8.1,5.286c-8.406,2.6-20.882,5.173-28.589-1.249Z" transform="translate(-782.766 -158.051)" fill="#ffe4ce"/>
        <path id="パス_10868" data-name="パス 10868" d="M407.848,736.132c-1.461-.471-3.2-2.79-4.116-5.795a37.426,37.426,0,0,1-1.286-8.323,86.049,86.049,0,0,0,8.711-4.951,73.773,73.773,0,0,0,11.134-10.483,67.43,67.43,0,0,1,6.339-6.266c3.051-2.441,9.629-6.24,13.547-5.18a13.385,13.385,0,0,1,4.734,2.632c.681.5,1.957.272,2.945.121,1.574-.241.83-1.732,2.356-2.514,1.873-.96,1.983-.54,3.967-.7,1.26-.1,4.484-3.086,5.6-3.342,1.54-.352,3.627,1.266,5.44,1.405,5.611.432,9.894,5,14.035,9.452a123.917,123.917,0,0,0,10.551,10.33,24.87,24.87,0,0,0,6.987,4c1.742.656,8.467,3.843,8.467,3.843a9.249,9.249,0,0,1,.037,4.911c-.448,1.764-4.785,10.519-4.785,10.519s-10-4.537-15.432-5.838c-.914-.219-2.853-1.658-5.158-1.788-2.663-.151-5.719,1-6.719.577-4.321-1.82-1.653-5.892-2.723-9.664-1.031-3.635-2.073-9.688-4.8-12.356-1.083-1.062-2.749-3.074-4.039-4.258-.9-.827-2.01,1.191-3,.957-.485-.114-2.849,1.592-4.808,1.739-1.281.1-1.677,1.3-2.25,2.005-.889,1.1-.751-.905-1.346-.09a3.447,3.447,0,0,1-2.568,1.349c-2.925.171.543-1.542-3.695-.833-2.053.343-4.27-4.211-5.615-2.282-1.137,1.631-5.712,6.076-6.086,8.005a6.658,6.658,0,0,0,1.811,6.484Z" transform="translate(-342.58 -588.451)" fill="#ffe4ce"/>
        <path id="パス_10869" data-name="パス 10869" d="M528.372,834.508c-.866-.814-3.387,1.255-4.224,1.706a58.884,58.884,0,0,0-9.327,5.7c-.686.544-2.946,1.644-2.15,2.963.652,1.081,2.687.084,3.751.023a71.906,71.906,0,0,1,9.9.426c1.3.136,5.65.115,6.926.221,3.32.275,4.453,1.437,7.616,2.456a18.84,18.84,0,0,0,3.374,1.111,4.008,4.008,0,0,0,2.048-.324s1.494,2.065,2.376,2.105c1.632.074,5.238-5.512,8.705-5.649,2.815-.111,6-.728,9.092-.789,2.548-.05,5.035.588,7.2-.523,1.194-.613.411-2.913.251-3.825-.4-2.289-4.194-12.51-7.47-12.659-2.511-.114-2.84,4.827-4.37,6.433a16.527,16.527,0,0,1-3.546,3.321c-2.8,1.733-6.708,3.209-9.317,5.145-1.854,1.375-1.8,3.6-2.793,3.884-1.209.343-1.753-2.508-3.176-3.606-2.614-2.016-7.549-3.116-9.8-3.842Z" transform="translate(-436.266 -704.36)" fill="#ffe4ce"/>
        <path id="パス_10870" data-name="パス 10870" d="M541.4,485.815c1.018.645-4.332,1.135-5.016,1.05a5.842,5.842,0,0,1-4.531-4.081c-.223-.681-.72-.869-.086-1.415.553-.475,11.608.7,11.678.946.37,1.284-2.436,3.252-2.045,3.5" transform="translate(-452.4 -409.668)" fill="#fff"/>
        <path id="パス_10871" data-name="パス 10871" d="M1085.835,419.54c-2.673,1.191-11.177-1.209-7.311-4.33,1.4-1.133,7.36-1.581,9.356-1.59.732,0,1.955-.534,2.19.159.222.659-.766,2-.966,2.462a4.421,4.421,0,0,1-.835,1.688,10.557,10.557,0,0,1-2.435,1.61" transform="translate(-917.243 -351.925)" fill="#fff"/>
        <path id="パス_10872" data-name="パス 10872" d="M137.739,1421.915H137.7a.567.567,0,0,1-.53-.6,152.892,152.892,0,0,1,3.012-20.434.567.567,0,1,1,1.111.229,151.774,151.774,0,0,0-2.991,20.277.567.567,0,0,1-.566.532" transform="translate(-116.766 -1192.104)" fill="#571419"/>
        <path id="パス_10873" data-name="パス 10873" d="M193.816,1158.845a.575.575,0,0,1-.182-.03.567.567,0,0,1-.354-.72q.623-1.832,1.232-3.591c2.264-6.573,4.22-12.249,4.6-16.057a.567.567,0,1,1,1.129.112c-.391,3.94-2.367,9.675-4.654,16.315q-.6,1.754-1.23,3.587a.567.567,0,0,1-.537.384" transform="translate(-164.502 -968.662)" fill="#571419"/>
        <path id="パス_10874" data-name="パス 10874" d="M711.525,1049.627a.567.567,0,0,1-.567-.566c-.017-9.737.294-23.342,1.214-32.322.978-9.532,3.294-17.232,5.533-24.679.967-3.216,1.881-6.254,2.689-9.422,1.741-6.822,1.369-10.566.628-18.026l-.119-1.2a.567.567,0,0,1,1.129-.111l.119,1.2c.73,7.353,1.133,11.4-.658,18.419-.814,3.191-1.732,6.24-2.7,9.468-2.224,7.4-4.524,15.043-5.491,24.468-.917,8.936-1.225,22.495-1.208,32.2a.567.567,0,0,1-.566.568Z" transform="translate(-605.198 -819.567)" fill="#571419"/>
        <path id="パス_10875" data-name="パス 10875" d="M246.927,749.17a.567.567,0,0,1-.5-.829c5.666-10.854,8.649-19.2,9.39-26.254a14.008,14.008,0,0,0-1.262-6.717.567.567,0,0,1,1.016-.5,14.921,14.921,0,0,1,1.375,7.339c-.756,7.205-3.778,15.677-9.512,26.66a.566.566,0,0,1-.5.3" transform="translate(-209.712 -608.257)" fill="#571419"/>
        <path id="パス_10876" data-name="パス 10876" d="M1483.27,1288.907a.567.567,0,0,1-.566-.544c-1-24.337-.359-43.529-.352-43.72a.554.554,0,0,1,.586-.547.567.567,0,0,1,.547.586c-.007.191-.643,19.342.352,43.635a.567.567,0,0,1-.544.59h-.023" transform="translate(-1261.666 -1059.028)" fill="#571419"/>
        <path id="パス_10877" data-name="パス 10877" d="M863.114,1030a.567.567,0,0,1-.566-.549c-1.156-34.953-1.26-51.268-1.26-88.984a.567.567,0,0,1,1.134,0c0,37.7.1,54.011,1.259,88.947a.567.567,0,0,1-.548.585h-.019" transform="translate(-733.166 -800.084)" fill="#571419"/>
        <path id="パス_10878" data-name="パス 10878" d="M1430.332,715.02a.567.567,0,0,1-.564-.513c-.132-1.366-.34-3.126-.582-5.164-1.283-10.839-3.431-28.979.216-35.788a26.814,26.814,0,0,1,3.35-4.685.567.567,0,1,1,.841.761,25.556,25.556,0,0,0-3.191,4.459c-3.479,6.495-1.357,24.413-.09,35.12.242,2.044.452,3.811.585,5.188a.567.567,0,0,1-.51.619l-.055,0" transform="translate(-1215.049 -569.213)" fill="#571419"/>
        <path id="パス_10879" data-name="パス 10879" d="M793.774,605.843a.567.567,0,0,1-.421-.947c3.682-4.086,14.717-8.2,22.774-11.207,3.28-1.223,6.113-2.279,7.623-3.031a.567.567,0,1,1,.505,1.016c-1.564.778-4.422,1.845-7.732,3.079-7.948,2.964-18.833,7.023-22.328,10.9a.566.566,0,0,1-.422.187" transform="translate(-675.213 -502.744)" fill="#571419"/>
        <path id="パス_10880" data-name="パス 10880" d="M1015.436,575.556c-.29,0-.578,0-.865-.01-9.145-.214-15.7-3.765-17.1-9.267a.567.567,0,1,1,1.1-.28c1.518,5.962,9.272,8.255,16.023,8.413,10.414.226,22.97-4.333,25.7-13.295a.567.567,0,1,1,1.085.331c-2.85,9.349-15.049,14.108-25.948,14.108" transform="translate(-849.08 -477.306)" fill="#571419"/>
        <path id="パス_10881" data-name="パス 10881" d="M665.02,673.092a.567.567,0,0,1-.489-.854,14.283,14.283,0,0,0,1.994-6.376.567.567,0,0,1,1.132.062,15.423,15.423,0,0,1-2.147,6.887.567.567,0,0,1-.49.28" transform="translate(-565.612 -566.356)" fill="#571419"/>
        <path id="パス_10882" data-name="パス 10882" d="M427.438,655.178a.519.519,0,0,1-.058,0c-9.195-.931-21-8.975-23.907-19.466a.567.567,0,0,1,1.093-.3c2.788,10.044,14.107,17.747,22.929,18.641a.567.567,0,0,1-.056,1.131" transform="translate(-343.436 -540.532)" fill="#571419"/>
        <path id="パス_10883" data-name="パス 10883" d="M461.871,442.368a.545.545,0,0,1-.076-.005c-.176-.023-4.377-.635-9.968-5.71a18.266,18.266,0,0,1-5.56-8.828,55.832,55.832,0,0,1-1.94-10.346l-.057-.448a.567.567,0,0,1,1.125-.142l.056.448a55.081,55.081,0,0,0,1.892,10.133,17.034,17.034,0,0,0,5.243,8.341c5.3,4.814,9.32,5.422,9.36,5.428a.567.567,0,0,1-.076,1.129" transform="translate(-378.178 -354.452)" fill="#571519"/>
        <path id="パス_10884" data-name="パス 10884" d="M567.855,387.106a.567.567,0,0,1-.233-1.084c.594-.268,2.144-1.209,2.18-2.324.008-.4-.182-.62-.577-1.049A3.886,3.886,0,0,1,568,379.7a11.113,11.113,0,0,1,.9-3.8.567.567,0,1,1,1.066.387,10.559,10.559,0,0,0-.835,3.4,2.783,2.783,0,0,0,.928,2.2,2.521,2.521,0,0,1,.877,1.847c-.066,2.059-2.735,3.278-2.849,3.329a.564.564,0,0,1-.231.05" transform="translate(-482.9 -319.664)" fill="#571519"/>
        <path id="パス_10885" data-name="パス 10885" d="M505.585,371.884a2.4,2.4,0,0,1,1.975-2.386c.977.1,1.73,1.167,1.578,2.631a2.394,2.394,0,0,1-1.975,2.386c-.977-.1-1.595-1.276-1.578-2.631" transform="translate(-430.376 -314.533)" fill="#571519" fill-rule="evenodd"/>
        <path id="パス_10886" data-name="パス 10886" d="M426.208,416.864a.578.578,0,0,1-.169-.026c-.053-.017-.115-.034-.185-.053a5.6,5.6,0,0,1-3.582-2.657.567.567,0,1,1,.979-.573,4.429,4.429,0,0,0,2.909,2.137c.082.023.155.043.217.062a.567.567,0,0,1-.168,1.109" transform="translate(-359.39 -351.797)" fill="#571519"/>
        <path id="パス_10887" data-name="パス 10887" d="M502.11,322.909a.564.564,0,0,1-.315-.1,7.788,7.788,0,0,0-7.519-.437.567.567,0,0,1-.52-1.008,8.933,8.933,0,0,1,8.67.5.567.567,0,0,1-.316,1.038" transform="translate(-420.046 -272.793)" fill="#571519"/>
        <path id="パス_10888" data-name="パス 10888" d="M704.813,388.716h-.076a.567.567,0,0,1,.007-1.134c.022,0,.047,0,.07,0,4.067,0,5.868-5.056,5.885-5.108.355-1.258.623-3.022-.161-4.138a3.042,3.042,0,0,0-2.42-1.112.567.567,0,1,1,.079-1.132,4.107,4.107,0,0,1,3.269,1.592c.824,1.172.933,2.944.316,5.124-.556,1.669-2.871,5.908-6.97,5.908" transform="translate(-599.427 -320.146)" fill="#571519"/>
        <path id="パス_10889" data-name="パス 10889" d="M499.721,371.53a.565.565,0,0,1-.369-.137c-1.241-1.064-3.935-.934-4.971-.288a.567.567,0,0,1-.6-.962c1.365-.851,4.616-1.063,6.31.389a.567.567,0,0,1-.37,1" transform="translate(-420.101 -314.512)" fill="#571519"/>
        <path id="パス_10890" data-name="パス 10890" d="M560.638,460.021a4.113,4.113,0,0,1-.527-.027.567.567,0,0,1,.153-1.124c.056.006,3.48.378,9.6-3.211a20.051,20.051,0,0,0,7.478-7.259,49.569,49.569,0,0,0,3.739-9.007c.086-.279.179-.6.272-.918.1-.339.2-.678.293-.986a.567.567,0,1,1,1.083.337c-.094.3-.19.634-.287.966s-.19.652-.281.948a50.547,50.547,0,0,1-3.836,9.226,21.2,21.2,0,0,1-7.889,7.673c-5.193,3.044-8.562,3.381-9.8,3.381" transform="translate(-476.375 -372.072)" fill="#571519"/>
        <path id="パス_10891" data-name="パス 10891" d="M631.348,384.974a2.394,2.394,0,0,0-1.443-2.741c-.977-.1-1.932.786-2.085,2.251a2.394,2.394,0,0,0,1.443,2.74c.964.224,1.945-.908,2.084-2.251" transform="translate(-534.412 -325.367)" fill="#571519" fill-rule="evenodd"/>
        <path id="パス_10892" data-name="パス 10892" d="M619.626,334.936a.564.564,0,0,1-.358-.128,7.787,7.787,0,0,0-7.447-1.116.567.567,0,1,1-.425-1.052,8.935,8.935,0,0,1,8.589,1.289.567.567,0,0,1-.359,1.007" transform="translate(-520.145 -282.64)" fill="#571519"/>
        <path id="パス_10893" data-name="パス 10893" d="M626.206,384.128a.565.565,0,0,1-.393-.158c-.841-.807-3.427-1.66-4.9-.753a.567.567,0,0,1-.6-.966c1.955-1.2,5.074-.256,6.28.9a.567.567,0,0,1-.392.976" transform="translate(-527.813 -324.913)" fill="#571519"/>
        <path id="パス_10894" data-name="パス 10894" d="M532.894,483.243a6.7,6.7,0,0,1-.868-.057c-5.226-.808-6.052-6.188-6.059-6.242a.567.567,0,0,1,.555-.647c.032,0,3.281-.033,6.451.3a45.217,45.217,0,0,1,6.263,1.151.567.567,0,0,1,.365.793c-.1.2-2.308,4.708-6.705,4.708m-5.659-5.812a6.117,6.117,0,0,0,4.95,4.632c3.247.423,5.274-2.17,6.043-3.4a44.317,44.317,0,0,0-5.374-.941c-2.232-.231-4.506-.28-5.62-.289" transform="translate(-447.721 -405.444)" fill="#571519"/>
        <path id="パス_10895" data-name="パス 10895" d="M576.566,237.124a11.943,11.943,0,0,1-6.271-1.644c-3.691-2.284-5.188-6.233-7.05-12-.652-1.977-1.667-3.034-3.015-3.139a5.325,5.325,0,0,0-4.388,2.594.567.567,0,1,1-1.009-.518,6.442,6.442,0,0,1,5.485-3.207c1.271.1,3,.859,4.005,3.918,1.786,5.528,3.208,9.305,6.566,11.383a11.465,11.465,0,0,0,7,1.4c-2.517-.817-5.667-3.035-7.254-8.853a.567.567,0,1,1,1.094-.3c2.594,9.509,9.378,8.481,9.667,8.433a.567.567,0,0,1,.291,1.091,16.184,16.184,0,0,1-5.122.834" transform="translate(-472.245 -186.594)" fill="#571519"/>
        <path id="パス_10896" data-name="パス 10896" d="M759.276,263.221h-.016a.567.567,0,0,1-.552-.582,15.95,15.95,0,0,0-1.013-6.527c-1.217-3.7-3.271-5.869-5.257-7.97a20.283,20.283,0,0,1-5.1-7.53c-1.514-4.276-.631-9.047.3-14.1.8-4.32,1.627-8.787.873-13.007-1.1-6.148-4.141-11.163-8.366-16.8a.567.567,0,0,1,.908-.68c4.321,5.768,7.433,10.913,8.575,17.281.79,4.423-.057,8.993-.875,13.413-.907,4.9-1.763,9.525-.35,13.516,1.114,3.176,2.929,5.1,4.85,7.128,2.072,2.191,4.215,4.457,5.511,8.4a17.09,17.09,0,0,1,1.07,6.91.567.567,0,0,1-.567.552" transform="translate(-629.955 -166.672)" fill="#571519"/>
        <path id="パス_10897" data-name="パス 10897" d="M540.849,106.593q-.359,0-.731-.023a.567.567,0,1,1,.069-1.132,8.91,8.91,0,0,0,6.885-2.3,14.415,14.415,0,0,1-7.884-1.762,50.372,50.372,0,0,1-9.637-7.013l-.781-.667c-5.883-4.871-12.029-3.065-15.818.249-.411.335-2.473,2.706-2.585,3.786-.315,2.131,2.083,6.111,3.033,7.467a.567.567,0,0,1-.929.651c-.15-.214-3.671-5.276-3.229-8.26.164-1.591,2.6-4.206,2.979-4.511,4.123-3.609,10.84-5.58,17.278-.251l.788.673a48.807,48.807,0,0,0,9.425,6.87,13.329,13.329,0,0,0,7.988,1.575l.148-.014a.681.681,0,0,1,.669.267.856.856,0,0,1-.043.957c-.624,1.127-3.364,3.439-7.625,3.439" transform="translate(-433.457 -76.229)" fill="#571519"/>
        <path id="パス_10898" data-name="パス 10898" d="M396.743,275.368a7.882,7.882,0,0,1-2.136-.265.567.567,0,0,1,.041-1.092c.246-.062,6.107-1.637,7.641-11.9a.567.567,0,0,1,1.122.168c-1.116,7.465-4.467,10.667-6.615,11.981,2.3.027,6.233-1.006,8.708-7.255.6-1.472,1.122-3.024,1.629-4.526,1.728-5.127,3.516-10.428,8.432-12.422a.567.567,0,1,1,.426,1.051c-4.434,1.8-6.061,6.625-7.783,11.734-.512,1.517-1.041,3.087-1.651,4.586-2.7,6.819-7.172,7.936-9.812,7.936" transform="translate(-335.572 -212.828)" fill="#571519"/>
        <path id="パス_10899" data-name="パス 10899" d="M210.283,227.3c-1.606,0-3.993-.772-4.877-1.846a1.325,1.325,0,0,1-.337-1.151c.153-.558.689-.594,1.432-.644,1.156-.078,3.091-.207,4.316-1.765,1.21-1.538,1.506-4.159.88-7.789-1.61-9.491,4.067-13.4,8.211-16.249a18.125,18.125,0,0,0,3.333-2.651c3.526-3.99,5.672-10.211,6.383-18.495,1.188-15.312,6.951-24.733,17.614-28.795a.567.567,0,0,1,.4,1.06c-10.212,3.89-15.736,12.992-16.888,27.827-.733,8.536-2.973,14.977-6.659,19.148a19.1,19.1,0,0,1-3.544,2.839c-4.11,2.828-9.224,6.347-7.736,15.123.682,3.959.31,6.88-1.107,8.681-1.538,1.955-3.876,2.112-5.132,2.2l-.229.016a6.463,6.463,0,0,0,4.012,1.358.567.567,0,0,1,.024,1.134h-.1" transform="translate(-174.542 -125.882)" fill="#571519"/>
        <path id="パス_10900" data-name="パス 10900" d="M673.873,353.34a.567.567,0,0,1-.379-.989c.046-.043,4.847-4.638,1.329-17.408a.567.567,0,1,1,1.093-.3c2.677,9.716.76,14.947-.612,17.195a7.418,7.418,0,0,0,2.924-2.068c2.177-2.5,3.075-6.476,2.669-11.833a.567.567,0,0,1,1.131-.086c.431,5.691-.568,9.961-2.97,12.692a7.974,7.974,0,0,1-5.157,2.8h-.03" transform="translate(-573.147 -284.507)" fill="#571519"/>
        <path id="パス_10901" data-name="パス 10901" d="M733.615,535.731a.567.567,0,0,1-.564-.517c-.307-3.431-2-5.844-3.961-8.638-2.938-4.187-6.269-8.934-5.489-18.385a.567.567,0,1,1,1.13.093c-.746,9.043,2.459,13.61,5.287,17.64,1.969,2.806,3.829,5.456,4.163,9.189a.567.567,0,0,1-.514.615l-.051,0" transform="translate(-615.863 -432.152)" fill="#571519"/>
        <path id="パス_10902" data-name="パス 10902" d="M748.517,623.285a.567.567,0,0,1-.5-.84c2.621-4.776.145-10.145-.378-11.172a.567.567,0,0,1,1.011-.514c.568,1.117,3.257,6.956.361,12.233a.567.567,0,0,1-.5.294" transform="translate(-636.374 -519.641)" fill="#571519"/>
        <path id="パス_10903" data-name="パス 10903" d="M295.244,563.882a.567.567,0,0,1-.42-.948c1.988-2.194,1.374-3.814.525-6.056-.908-2.395-2.037-5.375.429-9.639a.567.567,0,0,1,.982.568c-2.2,3.8-1.258,6.274-.351,8.668.841,2.218,1.71,4.512-.745,7.22a.566.566,0,0,1-.421.186" transform="translate(-250.509 -465.593)" fill="#571519"/>
        <path id="パス_10904" data-name="パス 10904" d="M386.368,500.343a.567.567,0,0,1-.446-.916c3.675-4.7,3.372-8.444,3.022-12.775-.268-3.317-.546-6.746.977-10.9a.567.567,0,0,1,1.065.39c-1.438,3.921-1.171,7.225-.912,10.419.354,4.377.689,8.512-3.258,13.564a.566.566,0,0,1-.447.218" transform="translate(-328.411 -404.664)" fill="#571519"/>
        <path id="パス_10905" data-name="パス 10905" d="M406.228,546.737a.567.567,0,0,1-.163-1.11c5.284-1.59,8.017-3.336,8.861-5.66,1.166-3.211,1.516-9.969,1.519-10.037a.567.567,0,1,1,1.133.057c-.014.284-.362,7-1.586,10.368-.992,2.73-3.863,4.632-9.6,6.359a.57.57,0,0,1-.164.024" transform="translate(-345.317 -450.641)" fill="#571519"/>
        <path id="パス_10906" data-name="パス 10906" d="M660.863,574.119a.567.567,0,0,1-.254-.06,66.8,66.8,0,0,0-7.956-3.169c-5.46-1.908-10.175-3.555-10.7-7.24-.381-3.522.216-11.978.242-12.336a.567.567,0,1,1,1.131.081c-.006.087-.616,8.712-.248,12.114.425,2.982,4.839,4.525,9.949,6.31a67.679,67.679,0,0,1,8.09,3.225.567.567,0,0,1-.255,1.074" transform="translate(-546.351 -468.854)" fill="#571519"/>
        <path id="パス_10907" data-name="パス 10907" d="M71,889.777a.567.567,0,0,1-.4-.969A55.29,55.29,0,0,1,83.572,879.9c5.9-2.738,13.032-4.585,19.926-6.372,2.591-.672,5.269-1.366,7.791-2.087,5.789-1.654,11.764-3.681,16.253-7.272a.567.567,0,1,1,.708.886c-4.645,3.716-10.747,5.79-16.65,7.477-2.535.724-5.221,1.421-7.818,2.094-6.845,1.774-13.923,3.608-19.733,6.3A53.916,53.916,0,0,0,71.4,889.612a.566.566,0,0,1-.4.165" transform="translate(-59.956 -735.513)" fill="#571419"/>
        <path id="パス_10908" data-name="パス 10908" d="M437.675,949.7a.567.567,0,0,1-.374-.994c4.239-3.72,7.956-6.65,13.921-7.709a.567.567,0,1,1,.2,1.117c-5.675,1.009-9.266,3.844-13.371,7.445a.566.566,0,0,1-.374.141" transform="translate(-372.085 -801.013)" fill="#571419"/>
        <path id="パス_10909" data-name="パス 10909" d="M11.317,717.947a23.922,23.922,0,0,1-5.93-.738A6.233,6.233,0,0,1,1.3,713.955c-2.73-5.1-.5-14.234.592-17.324,2.572-7.288,22.288-51.2,35.291-56.645,3.988-1.671,8.123-2.378,12.912-3.2,2.987-.51,6.372-1.089,10.228-1.984a.567.567,0,1,1,.257,1.1c-3.889.9-7.292,1.484-10.294,2-4.914.839-8.8,1.5-12.664,3.124-12.449,5.217-32.213,49.042-34.66,55.976C1.457,701.284.036,709.182,2.3,713.42a5.141,5.141,0,0,0,3.361,2.69c7.943,2.016,15.373-.588,25-4.487a.567.567,0,1,1,.426,1.051c-7.452,3.017-13.622,5.273-19.777,5.273" transform="translate(0 -540.363)" fill="#571419"/>
        <path id="パス_10910" data-name="パス 10910" d="M407.657,911.735a.585.585,0,0,1-.129-.015c-6.271-1.458-7.8-12.352-7.167-15.7a.567.567,0,1,1,1.114.212c-.677,3.567,1.1,13.17,6.31,14.38a.567.567,0,0,1-.128,1.12" transform="translate(-340.693 -762.342)" fill="#571419"/>
        <path id="パス_10911" data-name="パス 10911" d="M1330.228,666.7c-8.109,0-20.813-6.306-23.671-7.779-5.144-2.653-10.415-5.737-16.587-9.7a.567.567,0,1,1,.613-.955c6.141,3.948,11.382,7.014,16.494,9.651,7.367,3.8,21.272,9.55,26.656,7.019,8.27-3.89,8.373-18.273,8.417-24.414a91.64,91.64,0,0,0-.876-9.989c-.229-1.888-.446-3.67-.567-5.1-.834-9.859-7.088-50.826-20.424-56.076-7.436-2.927-19.376-4.982-27.278-6.341-3.558-.612-6.13-1.055-7.142-1.382a.567.567,0,0,1,.348-1.079c.936.3,3.606.761,6.987,1.343,7.947,1.367,19.958,3.434,27.5,6.4,15.887,6.254,21.1,56.532,21.139,57.036.12,1.413.335,3.185.563,5.062a92.3,92.3,0,0,1,.885,10.134c-.045,6.355-.152,21.239-9.068,25.432a9.424,9.424,0,0,1-3.988.742" transform="translate(-1094.248 -477.14)" fill="#571419"/>
        <path id="パス_10912" data-name="パス 10912" d="M1102.172,872.318a.563.563,0,0,1-.339-.113c-7.855-5.871-28.84-11.16-47.355-15.826-9.325-2.35-18.134-4.57-24.044-6.584-5.994-2.042-9.888-3.432-14.24-6.176a.567.567,0,1,1,.605-.96c4.253,2.681,7.907,3.986,14,6.062,5.866,2,14.653,4.213,23.955,6.557,18.618,4.693,39.72,10.011,47.757,16.018a.567.567,0,0,1-.34,1.021" transform="translate(-864.804 -717.235)" fill="#571419"/>
        <path id="パス_10913" data-name="パス 10913" d="M988.516,396.989c-1.537,0-5.528-.343-11.144-3.326a19.531,19.531,0,0,1-8.088-7.688,56.958,56.958,0,0,1-5.209-11.722.567.567,0,0,1,1.073-.368,55.949,55.949,0,0,0,5.092,11.481,18.292,18.292,0,0,0,7.662,7.295c6.827,3.627,11.133,3.178,11.175,3.173a.567.567,0,0,1,.131,1.127,6.418,6.418,0,0,1-.692.03" transform="translate(-820.637 -317.94)" fill="#571519"/>
        <path id="パス_10914" data-name="パス 10914" d="M1086.885,316.7a.567.567,0,0,1-.21-.04c-.123-.049-3.012-1.226-3.174-3.395a2.669,2.669,0,0,1,.846-2,2.994,2.994,0,0,0,.9-2.4,11.286,11.286,0,0,0-1.049-3.638.567.567,0,1,1,1.049-.431,11.844,11.844,0,0,1,1.134,4.041,4.107,4.107,0,0,1-1.172,3.159c-.4.473-.609.74-.581,1.185.09,1.207,1.808,2.155,2.463,2.418a.568.568,0,0,1-.211,1.094" transform="translate(-922.32 -259.161)" fill="#571519"/>
        <path id="パス_10915" data-name="パス 10915" d="M1020.237,316.624c-.209-1.431.4-2.716,1.422-3,1.041-.152,2.1.755,2.333,2.317s-.4,2.716-1.422,3c-.911.133-1.993-.9-2.333-2.317" transform="translate(-868.435 -266.958)" fill="#571519" fill-rule="evenodd"/>
        <path id="パス_10916" data-name="パス 10916" d="M925.815,326.188h-.034a8.847,8.847,0,0,1-7.962-5.94c-.381-1.131-1.11-3.965.35-5.842.911-1.171,2.449-1.682,4.579-1.521a.567.567,0,0,1-.086,1.131c-1.725-.132-2.936.233-3.6,1.086-1.154,1.484-.422,4.037-.17,4.784a7.72,7.72,0,0,0,6.954,5.17.567.567,0,0,1-.033,1.133" transform="translate(-780.843 -266.316)" fill="#571519"/>
        <path id="パス_10917" data-name="パス 10917" d="M994.788,263.32a.567.567,0,0,1-.376-.991,9.531,9.531,0,0,1,9.1-1.757.567.567,0,0,1-.38,1.069,8.5,8.5,0,0,0-7.964,1.536.564.564,0,0,1-.376.143" transform="translate(-846.325 -221.37)" fill="#571519"/>
        <path id="パス_10918" data-name="パス 10918" d="M1241.448,276.654a.567.567,0,0,1-.194-1.1,7.718,7.718,0,0,0,5.181-6.944c.14-2.022-.377-3.684-1.382-4.464-.9-.7-2.234-.768-3.953-.2a.567.567,0,1,1-.355-1.077c2.1-.694,3.786-.565,5,.383,1.879,1.46,1.9,4.276,1.818,5.419a8.837,8.837,0,0,1-5.925,7.951.571.571,0,0,1-.194.035" transform="translate(-1055.844 -223.391)" fill="#571519"/>
        <path id="パス_10919" data-name="パス 10919" d="M943.919,345.3a.566.566,0,0,1-.451-.222,3.864,3.864,0,0,0-1.387-1.158.567.567,0,0,1,.355-1.077,4.926,4.926,0,0,1,1.932,1.546.567.567,0,0,1-.45.911" transform="translate(-801.609 -291.821)" fill="#571519"/>
        <path id="パス_10920" data-name="パス 10920" d="M1251.31,296.656a.567.567,0,0,1-.53-.768,4.921,4.921,0,0,1,1.409-2.035.567.567,0,1,1,.649.93,3.856,3.856,0,0,0-1,1.507.569.569,0,0,1-.53.366" transform="translate(-1064.687 -250.054)" fill="#571519"/>
        <path id="パス_10921" data-name="パス 10921" d="M1007.2,315.119a.567.567,0,0,1-.409-.96c1.185-1.236,4.483-2.3,6.608-1.252a.567.567,0,0,1-.5,1.016c-1.583-.786-4.373.068-5.285,1.02a.565.565,0,0,1-.409.175" transform="translate(-856.893 -265.996)" fill="#571519"/>
        <path id="パス_10922" data-name="パス 10922" d="M1075.27,420.487c-5.04,0-7.094-4.847-7.116-4.9a.567.567,0,0,1,.379-.764c.034-.009,3.4-.9,6.773-1.393a48.35,48.35,0,0,1,6.8-.456.568.568,0,0,1,.549.679c-.051.251-1.294,6.161-6.6,6.8-.268.026-.529.038-.782.038m-5.768-4.738a6.608,6.608,0,0,0,6.428,3.573c3.509-.42,4.956-3.749,5.425-5.209a47.631,47.631,0,0,0-5.885.441c-2.417.353-4.83.915-5.968,1.2m5.886-1.756h0Z" transform="translate(-909.224 -351.542)" fill="#571519"/>
        <path id="パス_10923" data-name="パス 10923" d="M1130.393,361.987a.567.567,0,0,1-.064-1.131c.064-.008,3.728-.527,9.15-5.878a21.536,21.536,0,0,0,5.863-9.53,55.947,55.947,0,0,0,1.593-12.469.581.581,0,0,1,.589-.544.567.567,0,0,1,.544.59,56.955,56.955,0,0,1-1.635,12.733,22.684,22.684,0,0,1-6.159,10.029c-5.762,5.688-9.654,6.178-9.817,6.2a.541.541,0,0,1-.063,0" transform="translate(-961.758 -282.983)" fill="#571519"/>
        <path id="パス_10924" data-name="パス 10924" d="M1155.108,296.865c-.21-1.431-1.162-2.488-2.222-2.466s-1.8,1.326-1.571,2.888,1.161,2.488,2.221,2.466c1.022-.282,1.651-1.437,1.572-2.888" transform="translate(-980.015 -250.605)" fill="#571519" fill-rule="evenodd"/>
        <path id="パス_10925" data-name="パス 10925" d="M1118.614,245.536a.567.567,0,0,1-.335-1.025,9.533,9.533,0,0,1,9.219-.923.567.567,0,1,1-.479,1.028,8.384,8.384,0,0,0-8.071.81.566.566,0,0,1-.334.11" transform="translate(-951.731 -206.679)" fill="#571519"/>
        <path id="パス_10926" data-name="パス 10926" d="M1141.652,295.519a.567.567,0,0,1-.407-.962c1.7-1.754,5.164-1.591,6.71-.714a.567.567,0,1,1-.559.987c-1.1-.622-4.034-.826-5.336.517a.565.565,0,0,1-.407.172" transform="translate(-971.342 -249.587)" fill="#571519"/>
        <path id="パス_10927" data-name="パス 10927" d="M1176.24,185.691a.567.567,0,0,1-.563-.639,22.114,22.114,0,0,0-7.721-18.145.567.567,0,1,1,.744-.856,23.464,23.464,0,0,1,8.168,17.654c1.5-1.763,4.028-6.01,2.465-13.484a.567.567,0,1,1,1.11-.232c2.259,10.8-3.612,15.4-3.863,15.588a.568.568,0,0,1-.343.115" transform="translate(-994.05 -141.231)" fill="#571519"/>
        <path id="パス_10928" data-name="パス 10928" d="M938.983,244.4h-.032c-.064,0-6.386-.461-7.386-9.2a.567.567,0,0,1,1.127-.129c.651,5.691,3.632,7.437,5.261,7.968a16.328,16.328,0,0,1,.269-13.908.567.567,0,0,1,1.015.508,15.476,15.476,0,0,0,.233,13.907.567.567,0,0,1-.488.856" transform="translate(-792.986 -194.776)" fill="#571519"/>
        <path id="パス_10929" data-name="パス 10929" d="M887.179,208.88a.565.565,0,0,1-.469-.248c-3.668-5.377-7.6-13.148-5.529-19.63a.567.567,0,1,1,1.08.346c-1.936,6.045,1.86,13.476,5.385,18.645a.567.567,0,0,1-.468.887" transform="translate(-749.611 -160.552)" fill="#571519"/>
        <path id="パス_10930" data-name="パス 10930" d="M1263.076,129.624a.568.568,0,0,1-.539-.745c.46-1.4,4.346-13.91-.889-23.2a.567.567,0,0,1,.988-.557c5.474,9.711,1.455,22.664.979,24.109a.567.567,0,0,1-.539.39" transform="translate(-1073.908 -89.242)" fill="#571519"/>
        <path id="パス_10931" data-name="パス 10931" d="M1052.592,13.793a8.869,8.869,0,0,1-2.566-.394.567.567,0,0,1,.328-1.086,6.277,6.277,0,0,0,5.268-.459,2.55,2.55,0,0,0,.6-.518,17.073,17.073,0,0,1-5.6-2.212,22,22,0,0,1-3.526-2.642,18.8,18.8,0,0,0-9.394-4.952c-6.586-1.427-13.307,1.361-16.54,4.853a.567.567,0,1,1-.832-.77A19.372,19.372,0,0,1,1037.94.422a20.008,20.008,0,0,1,9.9,5.2,21.125,21.125,0,0,0,3.345,2.515c3.665,2.078,5.586,2.119,5.616,2.119h.007a.566.566,0,0,1,.378.145,1.041,1.041,0,0,1,.123,1.353,5.583,5.583,0,0,1-4.713,2.037" transform="translate(-868.421 -0.002)" fill="#571519"/>
        <path id="パス_10932" data-name="パス 10932" d="M861.553,58.7a3.529,3.529,0,0,1-1.245-.2,1.392,1.392,0,0,1-1-1.184c-.047-.436.284-.7.872-1.179a14.863,14.863,0,0,0,3.458-3.784,58.83,58.83,0,0,0,3.028-5.951c.2-.435.383-.829.54-1.159a12.7,12.7,0,0,1,12.855-7.3.567.567,0,0,1-.146,1.125,11.414,11.414,0,0,0-11.687,6.666c-.152.321-.333.711-.533,1.143a59.466,59.466,0,0,1-3.1,6.082,16.1,16.1,0,0,1-3.7,4.058c-.134.109-.28.227-.383.317a.809.809,0,0,0,.2.1c1.027.392,3.462-.091,5.1-1.763a.567.567,0,0,1,.811.793,7.513,7.513,0,0,1-5.069,2.231" transform="translate(-731.482 -32.218)" fill="#571519"/>
        <path id="パス_10933" data-name="パス 10933" d="M1038.373,193.11a.567.567,0,0,1-.508-.819c.028-.055,2.734-5.555,3.259-9.87a20.321,20.321,0,0,0-.8-8.13.567.567,0,0,1,1.071-.374,21.113,21.113,0,0,1,.855,8.64,35.344,35.344,0,0,1-2.831,9.085,13.809,13.809,0,0,0,5.213-3.778,13.386,13.386,0,0,0,3.842-9.586.567.567,0,1,1,1.129-.108,14.327,14.327,0,0,1-4.135,10.461c-3.515,3.922-6.871,4.452-7.012,4.473a.593.593,0,0,1-.082.006" transform="translate(-883.426 -147.723)" fill="#571519"/>
        <path id="パス_10934" data-name="パス 10934" d="M1101.437,153.423a.567.567,0,0,1-.539-.744,21,21,0,0,0,.879-8.113.567.567,0,0,1,1.123-.164,19.737,19.737,0,0,1-.454,6.881,13.047,13.047,0,0,0,4.008-8.454,25.006,25.006,0,0,0-2.324-11.45.567.567,0,0,1,1.013-.511,25.775,25.775,0,0,1,2.442,12.04,14.017,14.017,0,0,1-5.843,10.426.565.565,0,0,1-.306.09" transform="translate(-937.109 -111.135)" fill="#571519"/>
        <path id="パス_10935" data-name="パス 10935" d="M970.127,196.191a.567.567,0,0,1-.052-1.132c4.614-.429,11.991-5.29,12.6-11.64a.567.567,0,0,1,1.129.108c-.668,7.018-8.513,12.187-13.62,12.662l-.053,0" transform="translate(-825.332 -155.697)" fill="#571519"/>
        <path id="パス_10936" data-name="パス 10936" d="M1150.72,202.936a.539.539,0,0,1-.06,0c-7.614-.795-10.352-5.127-10.465-5.311a.567.567,0,0,1,.966-.594c.03.048,2.6,4.045,9.617,4.777a.567.567,0,0,1-.058,1.131" transform="translate(-970.513 -167.489)" fill="#571519"/>
        <path id="パス_10937" data-name="パス 10937" d="M1000.078,500.242a.567.567,0,0,1-.218-1.091,7.031,7.031,0,0,0,4.528-5.5c.238-3.613-1.236-10.2-1.251-10.266a.567.567,0,0,1,1.107-.25c.062.277,1.525,6.814,1.274,10.61a8.068,8.068,0,0,1-5.222,6.452.565.565,0,0,1-.218.044" transform="translate(-850.827 -410.891)" fill="#571519"/>
        <path id="パス_10938" data-name="パス 10938" d="M1226.365,475.844a.564.564,0,0,1-.167-.025c-3.608-1.113-7.119-2.564-8.374-5.613-1.334-3.583-1.8-10.266-1.824-10.548a.567.567,0,1,1,1.132-.077c0,.068.479,6.8,1.749,10.212,1.068,2.6,4.31,3.911,7.652,4.943a.567.567,0,0,1-.167,1.109" transform="translate(-1035.111 -390.765)" fill="#571519"/>
        <path id="パス_10939" data-name="パス 10939" d="M556.237,809.973c-1.473,0-3.765-.966-6.5-2.194-.806-.363-1.5-.676-2.017-.871-2.411-.914-6.091-.849-9.334-.789-1.521.027-2.956.053-4.165-.021-.672-.042-1.357-.134-2.083-.232a18.066,18.066,0,0,0-5.532-.133.567.567,0,0,1-.183-1.119,19.009,19.009,0,0,1,5.867.129c.7.095,1.37.184,2,.223,1.163.072,2.577.047,4.074.02,3.348-.06,7.142-.129,9.757.863.547.207,1.257.527,2.081.9,1.971.886,5.64,2.536,6.482,2.015l.07-.042c.249-.149.43-.276.493-.549s.039-.974-.878-2.374c-2.36-3.6-6.256-4.591-9.1-5.312a10.916,10.916,0,0,1-2.991-1.023c-3.013-1.944-7.576-7.359-5.011-11.659a19.038,19.038,0,0,1,2.666-3.1,36.111,36.111,0,0,0,3.314-3.739.567.567,0,0,1,.914.673,37.089,37.089,0,0,1-3.415,3.858,18.437,18.437,0,0,0-2.5,2.891c-2.142,3.591,2.044,8.442,4.652,10.124a10.68,10.68,0,0,0,2.655.878c2.855.724,7.169,1.819,9.77,5.79.887,1.355,1.225,2.417,1.034,3.249a1.969,1.969,0,0,1-1.016,1.268l-.057.035a1.97,1.97,0,0,1-1.047.249" transform="translate(-447.713 -664.589)" fill="#571419"/>
        <path id="パス_10940" data-name="パス 10940" d="M449.616,735.7a.567.567,0,0,1-.365-1c4.456-3.746,11.628-10.373,17.442-16.114l.3-.292c2.813-2.782,3.977-3.933,8.294-5.1.267-.072.821-.265,1.462-.489a18.225,18.225,0,0,1,4.719-1.3c1.509.1,6.254,3.108,7.67,4.676a.567.567,0,1,1-.842.76c-1.377-1.525-5.882-4.238-6.9-4.3a23.181,23.181,0,0,0-4.272,1.237c-.69.241-1.234.43-1.539.513-4.028,1.089-5.053,2.1-7.792,4.811l-.3.293c-5.833,5.76-13.033,12.411-17.51,16.175a.565.565,0,0,1-.365.133" transform="translate(-382.25 -605.578)" fill="#571419"/>
        <path id="パス_10941" data-name="パス 10941" d="M601.227,749.322a5.576,5.576,0,0,1-3.43-1.627,26.6,26.6,0,0,0-5.149-2.047c-1.464-.312-3.842.807-5.782,2.723a.567.567,0,0,1-.8-.807c1.857-1.834,4.683-3.478,6.816-3.025a25.078,25.078,0,0,1,5.641,2.287c1.285,1.078,2.32,1.655,3.506,1.208.352-.132.542-.29.565-.47.025-.2-.047-1.311-3.927-4.048a15.358,15.358,0,0,0-6.349-2.756c-1.774-.4-3.515.495-5.716,1.626-.5.259-1.032.53-1.59.8a.567.567,0,0,1-.5-1.02c.55-.268,1.071-.535,1.568-.791,2.406-1.235,4.306-2.211,6.483-1.724a16.534,16.534,0,0,1,6.754,2.936c4.154,2.929,4.5,4.324,4.4,5.118a1.737,1.737,0,0,1-1.29,1.388,3.386,3.386,0,0,1-1.2.227" transform="translate(-497.295 -629.516)" fill="#571419"/>
        <path id="パス_10942" data-name="パス 10942" d="M613.783,735.018a3.656,3.656,0,0,1-2.434-.913.567.567,0,0,1,.752-.85,2.476,2.476,0,0,0,2.563.459c.321-.143.514-.349.515-.55,0-.376-.418-1.49-3.264-4.728-.143-.163-.242-.276-.281-.325a21.894,21.894,0,0,0-7.125-4.966c-1.358-.541-6,.734-8.6,1.665a.567.567,0,1,1-.382-1.068c.731-.261,7.206-2.527,9.4-1.651a22.923,22.923,0,0,1,7.594,5.317c.033.042.119.139.243.279,2.46,2.8,3.553,4.49,3.546,5.485a1.8,1.8,0,0,1-1.188,1.578,3.344,3.344,0,0,1-1.343.268" transform="translate(-506.618 -614.505)" fill="#571419"/>
        <path id="パス_10943" data-name="パス 10943" d="M530.443,806.909a.567.567,0,0,1-.457-.9,49.894,49.894,0,0,1,3.983-4.673,25.441,25.441,0,0,0,5.7-8.142.567.567,0,1,1,1.051.428c-1.54,3.783-3.665,6.068-5.915,8.487a49.069,49.069,0,0,0-3.9,4.57.567.567,0,0,1-.458.232" transform="translate(-451.054 -674.899)" fill="#571419"/>
        <path id="パス_10944" data-name="パス 10944" d="M703.892,732.684a.568.568,0,0,1-.232-.05,8.966,8.966,0,0,0-1.99-.629.567.567,0,1,1,.212-1.114,10.087,10.087,0,0,1,2.242.708.567.567,0,0,1-.233,1.085" transform="translate(-596.9 -622.158)" fill="#571419"/>
        <path id="パス_10945" data-name="パス 10945" d="M786.489,796.523a.57.57,0,0,1-.232-.05c-4.705-2.109-17.061-7.216-19.633-7.531a22.177,22.177,0,0,0-4.538.148c-.54.055-1.043.105-1.479.134-1.09.071-2.351.081-3.685.091-3.736.029-7.971.062-10.655,1.392a13.713,13.713,0,0,0-2.259,1.825c-2,1.816-4.269,3.874-5.882,2.82-.869-.568-2.119-2.046-.728-5.565,1.935-4.892,6.416-6.566,9.381-7.674a13.366,13.366,0,0,0,2.277-.988c2.831-1.839,7.364-7.134,5.018-11.041a20,20,0,0,0-2.726-3.129,40.065,40.065,0,0,1-3.707-4.162.567.567,0,1,1,.911-.675,39.194,39.194,0,0,0,3.605,4.043,20.558,20.558,0,0,1,2.889,3.34c2.774,4.619-2.13,10.47-5.372,12.576a13.875,13.875,0,0,1-2.5,1.1c-2.943,1.1-6.973,2.606-8.723,7.029-.574,1.452-.99,3.359.293,4.2.88.578,3.058-1.4,4.5-2.71a13.744,13.744,0,0,1,2.517-2c2.918-1.446,7.292-1.48,11.15-1.51,1.318-.01,2.563-.02,3.621-.089.425-.028.914-.078,1.439-.131a22.923,22.923,0,0,1,4.791-.145c3.007.368,16.725,6.172,19.959,7.621a.567.567,0,0,1-.233,1.085" transform="translate(-627.174 -648.553)" fill="#571419"/>
        <path id="パス_10946" data-name="パス 10946" d="M762.63,712.476a.559.559,0,0,1-.227-.048c-3.824-1.678-9.474-7.4-14.939-12.933-1.438-1.456-2.8-2.831-4.1-4.109l-.32-.315c-2.982-2.93-4.1-4.027-8.475-5.2-.329-.088-.916-.291-1.659-.547A24.2,24.2,0,0,0,728.257,688c-1.154.079-6.641,3.708-8.154,5.394-1.1,1.222-2.352,2.651-3.334,3.981-.568.769-.785,1.411-.611,1.809a1.1,1.1,0,0,0,.883.511.567.567,0,0,1-.125,1.127,2.142,2.142,0,0,1-1.8-1.184c-.243-.556-.312-1.517.738-2.938,1.011-1.368,2.287-2.822,3.4-4.065,1.469-1.636,7.292-5.657,8.921-5.768a20.194,20.194,0,0,1,5.1,1.389c.693.239,1.291.446,1.581.524,4.666,1.246,5.928,2.486,8.977,5.483l.32.314c1.309,1.285,2.67,2.663,4.111,4.123,5.138,5.2,10.962,11.1,14.587,12.691a.567.567,0,0,1-.228,1.086" transform="translate(-608.612 -584.689)" fill="#571419"/>
        <path id="パス_10947" data-name="パス 10947" d="M754.431,727.74a3.612,3.612,0,0,1-1.275-.238,1.837,1.837,0,0,1-1.371-1.461c-.174-1.329,1.372-3.132,4.726-5.512a17.85,17.85,0,0,1,7.286-3.193c2.335-.532,4.39.514,6.99,1.839.541.276,1.106.564,1.7.852a.567.567,0,0,1-.493,1.022c-.605-.292-1.179-.584-1.726-.863-2.395-1.22-4.287-2.182-6.224-1.743a16.665,16.665,0,0,0-6.881,3.012c-4.108,2.915-4.3,4.136-4.258,4.44.028.214.244.4.643.546,1.3.485,2.477-.18,3.838-1.328a27.782,27.782,0,0,1,6.079-2.486c2.189-.475,6.73,1.824,7.963,4.032a.567.567,0,1,1-.99.553c-1.063-1.9-5.148-3.818-6.733-3.477a28.876,28.876,0,0,0-5.588,2.244,5.984,5.984,0,0,1-3.691,1.762" transform="translate(-639.942 -610.508)" fill="#571419"/>
        <path id="パス_10948" data-name="パス 10948" d="M730.8,712.093a3.8,3.8,0,0,1-1.516-.3,1.785,1.785,0,0,1-1.206-1.574c-.011-1.065,1.163-2.89,3.808-5.918.134-.154.228-.261.264-.307a24.76,24.76,0,0,1,8.186-5.767c2.353-.949,8.9,1.143,9.636,1.385a.567.567,0,0,1-.353,1.078c-1.9-.621-7.189-2.082-8.86-1.411a23.781,23.781,0,0,0-7.717,5.415c-.042.053-.148.176-.3.353-3.08,3.526-3.532,4.746-3.528,5.16,0,.293.407.494.53.549a3.069,3.069,0,0,0,3.094-.544.567.567,0,0,1,.755.847,4.2,4.2,0,0,1-2.791,1.031" transform="translate(-619.768 -594.156)" fill="#571419"/>
        <path id="パス_10949" data-name="パス 10949" d="M887.237,793.056a.566.566,0,0,1-.457-.231,51.136,51.136,0,0,0-4.017-4.732,30.943,30.943,0,0,1-6.2-8.785.567.567,0,0,1,1.026-.483,29.589,29.589,0,0,0,6,8.5,52.19,52.19,0,0,1,4.1,4.831.567.567,0,0,1-.456.9" transform="translate(-746.123 -662.693)" fill="#571419"/>
        <path id="パス_10950" data-name="パス 10950" d="M708.586,716.875a.566.566,0,0,1-.209-.04,1.5,1.5,0,0,1-.924-.893,3.225,3.225,0,0,1,.643-2.447c.07-.122.135-.237.19-.341a10.557,10.557,0,0,1,7.2-5.066.567.567,0,0,1,.215,1.114,9.491,9.491,0,0,0-6.409,4.479c-.06.114-.132.241-.209.375-.252.442-.673,1.181-.558,1.51.011.03.044.124.272.214a.567.567,0,0,1-.209,1.094" transform="translate(-602.146 -602.747)" fill="#571419"/>
        <path id="パス_10951" data-name="パス 10951" d="M790.526,1110.007a.564.564,0,0,1-.349-.12c-2.9-2.266-10.651-12.923-12.781-19.935a.567.567,0,1,1,1.085-.33c2.035,6.7,9.658,17.235,12.394,19.371a.567.567,0,0,1-.35,1.014" transform="translate(-661.733 -927.192)" fill="#571419"/>
        <path id="パス_10952" data-name="パス 10952" d="M732.037,788.409c-.052,0-.248,0-1.243-.049a.567.567,0,0,1,.05-1.133s1.06.047,1.186.048c.251-.008.625-.093.835-.726a.567.567,0,0,1,1.076.359,2,2,0,0,1-1.887,1.5h-.017" transform="translate(-621.623 -669.215)" fill="#571419"/>
        <path id="パス_10953" data-name="パス 10953" d="M760.673,828.282a.567.567,0,0,1-.564-.512s-.106-1.083-.266-2.764c-.257-2.691-.739-7.833-1.086-12.044a.567.567,0,1,1,1.13-.093c.347,4.2.829,9.341,1.085,12.03.161,1.68.266,2.762.266,2.762a.567.567,0,0,1-.509.62l-.056,0" transform="translate(-645.885 -691.507)" fill="#571419"/>
        <path id="パス_10954" data-name="パス 10954" d="M816.9,779.212a.567.567,0,0,1-.527-.357c-.036-.09-3.623-9.075-5.357-14.362a.567.567,0,0,1,1.078-.354c1.723,5.254,5.3,14.2,5.333,14.295a.567.567,0,0,1-.527.778" transform="translate(-690.348 -650.136)" fill="#571419"/>
        <path id="パス_10955" data-name="パス 10955" d="M1052.924,899.251a.9.9,0,0,1-.452-.122c-.755-.437-.827-2.015-.8-2.916a.552.552,0,0,1,.582-.551.567.567,0,0,1,.552.582,5.791,5.791,0,0,0,.2,1.8c3.621-2.388,7.509-12.556,6.465-16.977a.567.567,0,0,1,1.1-.26c1.157,4.9-3.081,15.833-7.086,18.276a1.068,1.068,0,0,1-.56.171" transform="translate(-895.224 -749.407)" fill="#571419"/>
        <path id="パス_10956" data-name="パス 10956" d="M1101.276,1027.416a.563.563,0,0,1-.306-.09c-5.648-3.621-40.1-24.323-45.059-26.487a.567.567,0,1,1,.454-1.04c5.157,2.251,39.449,22.873,45.217,26.571a.567.567,0,0,1-.307,1.045" transform="translate(-898.549 -851.034)" fill="#571419"/>
        <g id="グループ_4835" data-name="グループ 4835" transform="translate(21.543 184.461)" opacity="0">
          <g id="グループ_4834" data-name="グループ 4834">
            <g id="グループ_4833" data-name="グループ 4833" clip-path="url(#clip-path-3)">
              <path id="パス_10957" data-name="パス 10957" d="M153.183,1272.4a.565.565,0,0,1-.41-.175c-.693-.724-.716-2.437-.05-3.665,1.58-2.912,7.915-2.335,8.774-2.242a15.521,15.521,0,0,1,4.279.536,2.173,2.173,0,0,1,1.39,1.672,3.031,3.031,0,0,1-1.245,2.615,4.643,4.643,0,0,1-2.194.8l-.129.021a.567.567,0,1,1-.193-1.117l.133-.023a3.714,3.714,0,0,0,1.662-.56,1.979,1.979,0,0,0,.842-1.585,1.065,1.065,0,0,0-.725-.789,14.648,14.648,0,0,0-3.857-.439.507.507,0,0,1-.058,0c-1.782-.2-6.632-.282-7.681,1.652a2.606,2.606,0,0,0-.127,2.341.567.567,0,0,1-.41.959" transform="translate(-151.135 -1262.317)" fill="#571419"/>
              <path id="パス_10958" data-name="パス 10958" d="M172.524,1245.4a.567.567,0,0,1-.558-.47,3.705,3.705,0,0,1,2.691-4.45,12.749,12.749,0,0,1,7.057.113,2.206,2.206,0,0,1,1.634,1.773,2.529,2.529,0,0,1-1.284,2.27,3.643,3.643,0,0,1-1.51.453c-.167.024-.333.049-.489.081a.567.567,0,0,1-.232-1.11c.178-.037.367-.065.557-.093a2.855,2.855,0,0,0,1.047-.276,1.459,1.459,0,0,0,.783-1.2c-.049-.446-.592-.717-.911-.839a11.547,11.547,0,0,0-6.278-.1,2.607,2.607,0,0,0-1.948,3.185.567.567,0,0,1-.462.655.586.586,0,0,1-.1.008" transform="translate(-167.862 -1240.026)" fill="#571419"/>
              <path id="パス_10959" data-name="パス 10959" d="M148.233,1302.311a.565.565,0,0,1-.374-.141c-1.17-1.027-.589-3.542.037-4.546,1.039-1.666,4.5-1.835,8.1-1.772,1.732.031,3.593.177,4.266,1.033a2.462,2.462,0,0,1-.646,3.325,7.932,7.932,0,0,1-3.824,1.369.56.56,0,0,1-.588-.546.567.567,0,0,1,.546-.588,6.894,6.894,0,0,0,3.161-1.124c.519-.412.833-1.26.459-1.736-.129-.164-.718-.552-3.393-.6-1.551-.027-6.273-.112-7.115,1.238-.479.768-.79,2.621-.252,3.094a.567.567,0,0,1-.374.994" transform="translate(-146.833 -1287.538)" fill="#571419"/>
              <path id="パス_10960" data-name="パス 10960" d="M146.887,1331.867a.632.632,0,0,1-.065,0,1.95,1.95,0,0,1-1.878-1.553c-.3-1.062-.053-2.546.792-3.064,1.525-.935,5.865-1.934,8.13-1.355a2.251,2.251,0,0,1,1.486.988,1.676,1.676,0,0,1,.122,1.4,3.607,3.607,0,0,1-1.961,1.916,13.553,13.553,0,0,1-1.87.534c-.246.059-.482.115-.688.169-.451.118-.9.243-1.321.361a13.292,13.292,0,0,1-2.74.6Zm5.382-5.015a14.888,14.888,0,0,0-5.939,1.361,1.986,1.986,0,0,0-.293,1.79c.205.727.659.727.808.727a.534.534,0,0,1,.06,0,14.521,14.521,0,0,0,2.425-.562c.431-.121.882-.247,1.339-.366.213-.056.457-.114.711-.175a13.257,13.257,0,0,0,1.692-.476,2.534,2.534,0,0,0,1.329-1.234.543.543,0,0,0-.032-.478,1.282,1.282,0,0,0-.782-.452,5.423,5.423,0,0,0-1.316-.138" transform="translate(-144.822 -1312.973)" fill="#571419"/>
            </g>
          </g>
        </g>
        <path id="パス_10961" data-name="パス 10961" d="M204.5,1007.638a.567.567,0,0,1-.246-1.078c7.924-3.809,27.586-16.022,36.089-22.826a1.7,1.7,0,0,0,.2-1.732.567.567,0,1,1,1.085-.332,2.719,2.719,0,0,1-.575,2.95c-8.553,6.844-28.333,19.129-36.306,22.963a.563.563,0,0,1-.245.056" transform="translate(-173.595 -835.299)" fill="#571419"/>
        <g id="グループ_4838" data-name="グループ 4838" transform="translate(20.914 185.132)" opacity="0">
          <g id="グループ_4837" data-name="グループ 4837">
            <g id="グループ_4836" data-name="グループ 4836" clip-path="url(#clip-path-4)">
              <path id="パス_10962" data-name="パス 10962" d="M196.17,1272.657a.566.566,0,0,1-.406-.171,12.8,12.8,0,0,0-2.777-2.172,6.288,6.288,0,0,1-2.4-2.2.567.567,0,0,1,.961-.6,5.233,5.233,0,0,0,2.029,1.832,13.955,13.955,0,0,1,2.994,2.346.567.567,0,0,1-.406.963" transform="translate(-183.081 -1263.872)" fill="#571419"/>
              <path id="パス_10963" data-name="パス 10963" d="M173.055,1257.542a1.62,1.62,0,0,1-.185-.011,14.223,14.223,0,0,1-7.881-4.914,4.568,4.568,0,0,1-1.148-3.4l.017-.12a4.658,4.658,0,0,1,1.511-3.037c.942-.863,3.931-1.411,4.521-1.512a.567.567,0,0,1,.192,1.118,11.859,11.859,0,0,0-3.946,1.23,3.539,3.539,0,0,0-1.154,2.359l-.018.128a3.686,3.686,0,0,0,.928,2.547c1.712,2.244,5.23,4.249,7.115,4.476a1.1,1.1,0,0,0,.947-.667c.351-.71.058-1.624-.8-2.509a.567.567,0,1,1,.813-.792c1.729,1.775,1.281,3.251,1.008,3.8a2.264,2.264,0,0,1-1.914,1.3" transform="translate(-160.354 -1244.539)" fill="#571419"/>
              <path id="パス_10964" data-name="パス 10964" d="M161.055,1296.06c-1.117,0-3.064-.755-6.769-3.694-.146-.116-.306-.238-.474-.366-1.177-.9-2.788-2.125-3.081-3.824-.381-2.208,1.826-3.928,1.92-4a.567.567,0,0,1,.691.9c-.018.014-1.757,1.379-1.493,2.907.217,1.26,1.624,2.332,2.651,3.116.174.133.34.259.492.379,4.862,3.857,6.192,3.53,6.483,3.338a1.932,1.932,0,0,0,.2-2.181,5.469,5.469,0,0,0-1.621-1.854.567.567,0,0,1,.651-.929,6.567,6.567,0,0,1,2.007,2.324,2.947,2.947,0,0,1-.611,3.587,1.815,1.815,0,0,1-1.044.3" transform="translate(-149.185 -1278.179)" fill="#571419"/>
              <path id="パス_10965" data-name="パス 10965" d="M151.931,1330.259c-1.588,0-3.963-1.786-4.673-2.351a31.335,31.335,0,0,1-2.9-2.52,4.33,4.33,0,0,1-1.033-3.682,2.6,2.6,0,0,1,1.852-1.89.567.567,0,1,1,.348,1.079,1.494,1.494,0,0,0-1.1,1.087,3.246,3.246,0,0,0,.749,2.618,30.5,30.5,0,0,0,2.792,2.42c1.664,1.323,3.282,2.157,4.038,2.1.18-.015.356-.182.471-.445a1.987,1.987,0,0,0-.343-1.973,15.891,15.891,0,0,0-1.413-1.7l-.167-.172a.567.567,0,1,1,.818-.785l.159.164a16.709,16.709,0,0,1,1.5,1.794,3.144,3.144,0,0,1,.485,3.123,1.752,1.752,0,0,1-1.411,1.12q-.083.007-.17.007" transform="translate(-142.839 -1308.595)" fill="#571419"/>
              <path id="パス_10966" data-name="パス 10966" d="M145.638,1361.739a1.6,1.6,0,0,1-.244-.019c-1.831-.286-3.525-2.576-3.542-2.6-.577-.789-2.333-3.189-.313-5.606a.567.567,0,1,1,.87.727c-1.017,1.216-.91,2.475.358,4.209a5.828,5.828,0,0,0,2.8,2.148.857.857,0,0,0,.784-.461c.21-.363.515-1.437-1.2-3.571a.567.567,0,0,1,.885-.71c2.073,2.584,1.7,4.148,1.294,4.849a2.028,2.028,0,0,1-1.7,1.032" transform="translate(-140.593 -1337.13)" fill="#571419"/>
            </g>
          </g>
        </g>
        <path id="パス_10967" data-name="パス 10967" d="M157.375,1289.18a.552.552,0,0,1-.121-.013.567.567,0,0,1-.434-.674,185.115,185.115,0,0,1,5.618-20.205.567.567,0,0,1,1.063.4,183.793,183.793,0,0,0-5.572,20.049.567.567,0,0,1-.554.447" transform="translate(-133.481 -1079.308)" fill="#571419"/>
      </g>
    </g>
  </g>
</svg>
