<svg id="グループ_4810" data-name="グループ 4810" xmlns="http://www.w3.org/2000/svg" width="351.766" height="291.497" viewBox="0 0 351.766 291.497">
  <path id="パス_9314" data-name="パス 9314" d="M631.421,538.727c0-7.888.23-26.427-.243-42.248-.091-3.026-1-8.536-1.072-11.034-.171-5.525-.166-8.4-.244-9.71-.493-8.263,50.308-26.158,59.585-4.167.95,2.252-.293,13.587-.749,25.615-.61,16.043-.15,33.792-.15,36.983,0,6.428,1.558,110.91,1.558,110.91H629.93s1.491-93.619,1.491-106.348" transform="translate(-484.519 -354.633)" fill="#fff" fill-rule="evenodd"/>
  <path id="パス_9315" data-name="パス 9315" d="M595.572,26.394c.141-1.93,3.6-.972,6.634-3.925,3.615-3.617,6.329-9.415,11.172-12.941,5.783-4.34,9.014-2.694,14.452-2.3,4.912.357,9.014-2.694,16.608-2.846a30.562,30.562,0,0,1,17.6,5.338c5.4,3.391,8.154,11.528,14.966,14.847,3.757,1.684-1.407,2.366-1.407,2.366l1.919,7.546a58.671,58.671,0,0,1-.13,11.453c-.721,5.062-6.291,18.588-7.734,19.012-1.629.586-9.428,3.545-9.428,3.545S639.668,62.585,633,62.1c-4.21-.307-12.92.645-21.2.572-3.521-.08-7.6-2.141-9.97-3.548-2.2-1.219-4.8-11.636-4.434-19.016a40.89,40.89,0,0,1,2.3-12.177s-4.274.57-4.12-1.535" transform="translate(-458.141 -3.372)" fill="#81544b" fill-rule="evenodd"/>
  <path id="パス_9316" data-name="パス 9316" d="M625.553,213.819a28.929,28.929,0,0,1-4.5-8.44,94.6,94.6,0,0,1-2.678-11.658,10.721,10.721,0,0,1-8.008-8.7c-1.529-8.047,5.037-8.627,5.037-8.627l2.431.53s4.677,5.984,4.583,2.45a17.656,17.656,0,0,1,.061-8.107c.491-1.9.718-2.593.718-2.593a24.649,24.649,0,0,0,11.269-2.177c5.3-2.611,9.774-8.281,9.774-8.281a20.089,20.089,0,0,1-1.718,9.044c-2.112,4.785-6.556,10.1-6.431,10.818.137.539,5.566-1.358,10.019-4.385A32.84,32.84,0,0,0,652,167.954L650.71,173.5l-1.094,2.919a16.794,16.794,0,0,0,6.5-4.465c2.523-3.167,1.414-7.3,3.583-8.027,2.357-.887,2.641,2.484,5.469,4.808,3.5,2.724,7.515,3.368,7.489,3.719.741,6.755-2.033,10.962-1.007,11.39,1.867,1.018,5.381-3.665,5.381-3.665s4.95-.168,6.034,4.319a16.567,16.567,0,0,1-.6,5.777c-1.2,4.321-9.359,7.43-9.359,7.43a54.166,54.166,0,0,1-3.736,10.132,58.8,58.8,0,0,1-6.154,9.427s-11.878,9.136-19.493,8.557c-7.364-.559-18.171-12.005-18.171-12.005" transform="translate(-469.348 -121.709)" fill="#ffe4ce" fill-rule="evenodd"/>
  <path id="パス_9317" data-name="パス 9317" d="M638.056,381.009l44.913,1.785s-.077,1.829-.309,4.14a26.2,26.2,0,0,0-.144,5.423,37.048,37.048,0,0,0,.219,4c.269,1.1.089,1.565,1.079,2.2a21.727,21.727,0,0,0,3.1,1.418s.685,1.964,1.185,3.847a28.488,28.488,0,0,1,1.015,5.725c.03,1.5-.485,1.955-1.164,3.457a50.163,50.163,0,0,1-3.869,6.8c-1.06,1.348-3.254,4.381-4.989,5.727s-5.065,3.951-6.623,4.9a37.233,37.233,0,0,1-8.136,3.126,23.805,23.805,0,0,1-6.957.308c-2.363-.317-3.489-.127-5.651-.956a40.626,40.626,0,0,1-6.153-2.8,74.723,74.723,0,0,1-7.4-5.624,42.723,42.723,0,0,1-5.271-5.539,21.9,21.9,0,0,1-2.978-4.059c-.406-1.028-.135-2.579-.043-4.244a51.533,51.533,0,0,1,1.15-7.191,42.5,42.5,0,0,1,1.97-5.308c.567-1.067,1.486.256,2.453-.612s1.178-1.884,1.706-4.923a28.413,28.413,0,0,0,.715-5.815c0-2,.178-5.786.178-5.786" transform="translate(-484.405 -293.091)" fill="#ffe4ce" fill-rule="evenodd"/>
  <path id="パス_9318" data-name="パス 9318" d="M363.225,491.562s.4-4.541.318-7.17.478-8.046.637-11.631a88.221,88.221,0,0,1,1.753-13.224c.8-3.265,2.629-9.957,4.3-13.144a64.2,64.2,0,0,1,5.735-9.239c1.753-2.151,4.541-3.984,6.771-5.736a19.182,19.182,0,0,1,7.887-3.267c2.31-.4,5.258-1.354,8.444-1.432s5.975-.479,8.046-.558,6.851-.24,6.851-.24a11.32,11.32,0,0,1,2.23-1.911c1.434-.956,3.107-1.115,4.461-2.311s3.346-3.265,4.7-4.38a32.866,32.866,0,0,1,4.063-3.187,15.43,15.43,0,0,1,3.664-1.753s-.558,3.346-.957,5.258-1.369,4.8-1.369,4.8l-2.638-.313a31.066,31.066,0,0,0-1.969,5.322,74.079,74.079,0,0,0-1.162,7.426c0,1.431-.313,3.668-.224,5.591s.358,6.844.627,9.081.76,6.665.849,9.3.386,12.463.386,16.157.1,19.443,0,23.526-.777,20.122-.583,24.982-.388,18.957-.291,24.109-.2,19.247-.2,23.331-.388,15.456-.388,17.983-.163,19.009-.163,19.009l-39.867-.094.337-68.667Z" transform="translate(-279.411 -317.222)" fill="#6ea0a1" fill-rule="evenodd"/>
  <path id="パス_9319" data-name="パス 9319" d="M76.021,728.8a127.3,127.3,0,0,0-2-20.465c-1.366-7.495-3.851-15.8-5.457-17.433-.809-.821-12.63-.955-21.444-2.005a61.444,61.444,0,0,1-14.966-3.713c-3.379-1.184-6.844-2.557-9.377-3.642a17.031,17.031,0,0,1-5-2.813c-.53-.472-.7-1.632.92-2.4,1.025-.482-6.945-2.281-10.95-4.538-2.025-1.14-2.164-3.33-1.389-3.626.588-.224-2.038-1.569-2.877-2.712-.857-1.168.078-2.134,1.228-2.193.6-.031-1.109-2.153-.8-3.165.337-1.12,2.7-1.136,3.572-1.067,4.7.369,7.918,2.035,13.455,3.968,3.176,1.109,6.051,2.567,8.981,3.527a36.655,36.655,0,0,0,7.2,1.761c-4.03-2.294-5.845-4.8-6.271-6.689-.154-.685-.567-1.678,1.583-1.81,1.357-.082,1.958.516,3.478,1.093a27.775,27.775,0,0,0,6.485,1.454c6.091.587,13.613-.6,14.1-.6a20.015,20.015,0,0,1,5.289.4,56.493,56.493,0,0,1,13.086,5.187,24.141,24.141,0,0,1,8.65,7.7c2.2,3.075,2.661,6.405,4.384,10.479,2.4,5.685,5.968,12.4,8.662,18.142,1.576,3.359,4.369,8.841,4.369,8.841a5.635,5.635,0,0,1,2.848.572,29.524,29.524,0,0,1,4.142,2.43l.428,13.056s.568,40.389-.291,44.883c-.312,1.633-8.037,3.5-8.85,3.5a13.73,13.73,0,0,1-5.741-2.207,53.857,53.857,0,0,1-5.76-4.734,28.684,28.684,0,0,1-7.941-10.208c-2.585-5.323-2.809-12.651-3.073-18.693-.217-4.987-.668-8.835-.668-12.279" transform="translate(-2.423 -506.943)" fill="#ffe4ce" fill-rule="evenodd"/>
  <path id="パス_9320" data-name="パス 9320" d="M928.332,496.827s-.4-4.541-.318-7.168-.479-8.046-.638-11.632a88.145,88.145,0,0,0-1.753-13.223c-.8-3.267-2.629-9.958-4.3-13.145a64.071,64.071,0,0,0-5.735-9.24c-1.753-2.15-4.541-3.983-6.771-5.736a19.163,19.163,0,0,0-7.887-3.266c-2.309-.4-5.257-1.354-8.444-1.435s-5.975-.478-8.046-.557-6.85-.239-6.85-.239a11.274,11.274,0,0,0-2.231-1.912c-1.433-.956-3.107-1.115-4.461-2.31s-3.346-3.266-4.7-4.382a32.971,32.971,0,0,0-4.063-3.185,15.441,15.441,0,0,0-3.664-1.753,21.04,21.04,0,0,0,.1,4.958,23.626,23.626,0,0,1,.445,3.708l3.189,1.186a20.006,20.006,0,0,1,2.225,4.895,75.587,75.587,0,0,1,1.112,7.566c0,1.431.238,5.271.149,7.193s-.028,5.775-.3,8.011-.5,7-.593,9.642-.52,11.213-.52,14.907-.022,19.28.075,23.363.235,25.017.235,25.017.389,18.956.292,24.108.529,18.386.529,22.467.282,15.621.282,18.148.188,18.9.188,18.9L906.13,612l-.052-67.545Z" transform="translate(-660.298 -321.273)" fill="#6ea0a1" fill-rule="evenodd"/>
  <path id="パス_9324" data-name="パス 9324" d="M1097.187,734.667a127.232,127.232,0,0,1,2-20.464c1.366-7.5,3.851-15.8,5.456-17.434.811-.822,12.631-.956,21.445-2.006a61.432,61.432,0,0,0,14.965-3.711c3.38-1.184,6.844-2.557,9.377-3.643a16.984,16.984,0,0,0,5-2.813c.53-.472.7-1.632-.921-2.4-1.025-.483,6.945-2.281,10.95-4.536,2.025-1.141,2.165-3.333,1.389-3.627-.587-.224,2.038-1.569,2.876-2.713.858-1.169-.076-2.135-1.227-2.193-.6-.031,1.11-2.153.805-3.166-.337-1.118-2.7-1.136-3.573-1.067-4.7.369-7.917,2.035-13.455,3.969-3.176,1.108-6.05,2.565-8.981,3.526a36.658,36.658,0,0,1-7.2,1.761c4.03-2.293,5.844-4.795,6.271-6.689.154-.686.567-1.678-1.583-1.808-1.358-.083-1.959.516-3.478,1.091a27.8,27.8,0,0,1-6.485,1.454c-6.092.587-13.614-.6-14.1-.6a20.037,20.037,0,0,0-5.289.4,56.479,56.479,0,0,0-13.086,5.186,24.141,24.141,0,0,0-8.649,7.7c-2.2,3.075-2.661,6.4-4.385,10.48-2.4,5.683-4.67,10.384-7.366,16.13a55.62,55.62,0,0,1-2.969,5.561,61.5,61.5,0,0,0-6.129,3.286,26.648,26.648,0,0,0-3.476,2.842l-.509,15.221s-.567,40.39.292,44.883c.312,1.632,8.036,3.5,8.849,3.5a13.736,13.736,0,0,0,5.741-2.207,53.8,53.8,0,0,0,5.76-4.734,28.66,28.66,0,0,0,7.942-10.208c2.584-5.324,2.809-12.651,3.073-18.693.217-4.987.668-8.835.668-12.279" transform="translate(-819.005 -511.454)" fill="#ffe4ce" fill-rule="evenodd"/>
  <path id="パス_9341" data-name="パス 9341" d="M667.657,328.265c-.035,0-.072,0-.109-.005-.256-.027-6.374-.725-14.663-7.8a26.39,26.39,0,0,1-8.425-12.505c-1.944-5.17-2.887-12.109-3.426-16.879a1.054,1.054,0,0,1,2.1-.237c.526,4.657,1.442,11.423,3.311,16.394a24.2,24.2,0,0,0,7.809,11.619c7.74,6.605,13.46,7.3,13.517,7.309a1.054,1.054,0,0,1-.11,2.1" transform="translate(-493.11 -223.008)" fill="#571519"/>
  <path id="パス_9342" data-name="パス 9342" d="M747.99,272.133a1.048,1.048,0,0,1-.592-.183c-.383-.26-3.724-2.63-3.288-5.638a3.866,3.866,0,0,1,1.8-2.554,3.717,3.717,0,0,0,1.763-2.683,14.836,14.836,0,0,0-.319-4.953,1.055,1.055,0,1,1,2.078-.361,16.06,16.06,0,0,1,.31,5.719,5.743,5.743,0,0,1-2.555,3.957c-.63.48-.912.712-.988,1.19-.21,1.449,1.7,3.112,2.389,3.579a1.055,1.055,0,0,1-.594,1.926" transform="translate(-572.376 -196.073)" fill="#571519"/>
  <path id="パス_9343" data-name="パス 9343" d="M697.987,256.039c.14-1.93,1.307-3.432,2.724-3.505,1.4.1,2.529,1.6,2.376,3.7s-1.308,3.431-2.724,3.5c-1.228-.089-2.341-1.757-2.376-3.7" transform="translate(-536.927 -194.261)" fill="#571519" fill-rule="evenodd"/>
  <path id="パス_9344" data-name="パス 9344" d="M616.373,253.736a1.065,1.065,0,0,1-.289-.041,12.127,12.127,0,0,1-8.891-10.312c-.176-1.635-.309-5.666,2.252-7.788,1.607-1.333,3.861-1.575,6.693-.717a1.054,1.054,0,0,1-.611,2.018c-2.115-.641-3.706-.531-4.737.322-1.822,1.51-1.609,4.927-1.5,5.938a10.032,10.032,0,0,0,7.371,8.509,1.055,1.055,0,0,1-.288,2.069" transform="translate(-467.02 -180.293)" fill="#571519"/>
  <path id="パス_9345" data-name="パス 9345" d="M881.958,268.843a1.054,1.054,0,0,1-.136-2.1,10.029,10.029,0,0,0,8.527-7.35c.741-2.516.567-4.734-.456-5.968-.909-1.1-2.538-1.533-4.846-1.3a1.055,1.055,0,0,1-.212-2.1c3.049-.309,5.3.383,6.682,2.053,2.122,2.559,1.311,6.36.865,7.875a12.111,12.111,0,0,1-10.284,8.879,1.054,1.054,0,0,1-.139.009" transform="translate(-677.637 -192.277)" fill="#571519"/>
  <path id="パス_9346" data-name="パス 9346" d="M630.759,264.265a1.056,1.056,0,0,1-.957-.609,4.837,4.837,0,0,0-1.359-1.785,1.055,1.055,0,1,1,1.078-1.813,6.9,6.9,0,0,1,2.194,2.708,1.055,1.055,0,0,1-.956,1.5" transform="translate(-483.034 -199.936)" fill="#571519"/>
  <path id="パス_9347" data-name="パス 9347" d="M896.074,281.809a1.054,1.054,0,0,1-.881-1.631,6.889,6.889,0,0,1,2.564-2.362,1.055,1.055,0,0,1,.8,1.951,4.822,4.822,0,0,0-1.6,1.569,1.054,1.054,0,0,1-.882.474" transform="translate(-688.496 -213.648)" fill="#571519"/>
  <path id="パス_9348" data-name="パス 9348" d="M695.518,254.183a1.05,1.05,0,0,1-.661-.233c-1.718-1.385-5.483-1.091-6.848-.181a1.055,1.055,0,0,1-1.17-1.755c1.977-1.319,6.772-1.777,9.341.294a1.054,1.054,0,0,1-.662,1.876" transform="translate(-527.991 -192.995)" fill="#571519"/>
  <path id="パス_9349" data-name="パス 9349" d="M754.061,341.972a4.933,4.933,0,0,1-.5-.02,1.055,1.055,0,0,1,.219-2.1c.08.007,4.948.364,13.463-4.985a28.5,28.5,0,0,0,10.308-10.637c2.578-4.662,4.466-11.225,5.663-15.758a1.054,1.054,0,0,1,2.039.539c-1.225,4.641-3.165,11.373-5.846,16.222a30.627,30.627,0,0,1-11.046,11.424c-7.765,4.878-12.762,5.314-14.3,5.314" transform="translate(-578.954 -236.689)" fill="#571519"/>
  <path id="パス_9350" data-name="パス 9350" d="M817.092,264.649c.142-1.93-.8-3.584-2.187-3.863s-2.734,1.211-2.888,3.316.8,3.585,2.188,3.864c1.416-.074,2.571-1.4,2.886-3.317" transform="translate(-624.632 -200.584)" fill="#571519" fill-rule="evenodd"/>
  <path id="パス_9351" data-name="パス 9351" d="M805.969,204.618a1.048,1.048,0,0,1-.641-.217c-.2-.15-4.948-3.672-10.474-1.241a1.054,1.054,0,1,1-.849-1.931c6.689-2.939,12.367,1.316,12.6,1.5a1.054,1.054,0,0,1-.641,1.892" transform="translate(-610.304 -154.001)" fill="#571519"/>
  <path id="パス_9352" data-name="パス 9352" d="M812.65,262.524a1.049,1.049,0,0,1-.705-.271c-1.162-1.047-4.814-2.122-6.756-.841a1.055,1.055,0,0,1-1.162-1.761c2.84-1.872,7.5-.617,9.33,1.036a1.054,1.054,0,0,1-.707,1.837" transform="translate(-618.134 -199.018)" fill="#571519"/>
  <path id="パス_9353" data-name="パス 9353" d="M857.219,181.881a1.055,1.055,0,0,1-.993-1.412,29.291,29.291,0,0,0-4.792-25.651,1.054,1.054,0,1,1,1.695-1.254,31.3,31.3,0,0,1,5.813,24.812c2.485-2.148,6.224-6.9,6.333-16.12a1.033,1.033,0,0,1,1.067-1.042,1.055,1.055,0,0,1,1.042,1.067c-.177,14.943-9.336,19.325-9.727,19.5a1.054,1.054,0,0,1-.439.1" transform="translate(-654.807 -117.798)" fill="#571519"/>
  <path id="パス_9354" data-name="パス 9354" d="M640.534,191.374a1.035,1.035,0,0,1-.285-.04c-.085-.024-8.444-2.52-7.2-14.467a1.054,1.054,0,1,1,2.1.219c-.7,6.757,1.941,9.9,3.858,11.272a22.066,22.066,0,0,1,4.558-17.645,1.055,1.055,0,0,1,1.637,1.329c-6.7,8.251-3.7,17.854-3.665,17.951a1.056,1.056,0,0,1-1,1.382" transform="translate(-486.878 -131.021)" fill="#571519"/>
  <path id="パス_9355" data-name="パス 9355" d="M603.421,148.07a1.055,1.055,0,0,1-.979-.663c-3.259-8.145-6.169-19.525-1.524-27.492a1.055,1.055,0,0,1,1.822,1.063c-4.216,7.231-1.424,17.937,1.66,25.645a1.056,1.056,0,0,1-.978,1.447" transform="translate(-460.396 -91.842)" fill="#571519"/>
  <path id="パス_9356" data-name="パス 9356" d="M918.281,152.478a1.055,1.055,0,0,1-.906-1.593c1-1.68,9.631-16.8,5.518-30.312a1.054,1.054,0,1,1,2.017-.614c4.376,14.38-4.676,30.242-5.722,32a1.054,1.054,0,0,1-.908.516" transform="translate(-705.578 -91.702)" fill="#571519"/>
  <path id="パス_9357" data-name="パス 9357" d="M793.726,24.848a11.472,11.472,0,0,1-5.6-1.556,1.054,1.054,0,1,1,1.032-1.839c3.21,1.8,5.974,1.318,7.173.735a24.961,24.961,0,0,1-6.245-4.343,29.672,29.672,0,0,1-3.877-4.512c-2.349-3.138-4.776-6.384-10.72-9.092-8.09-3.724-17.547-2.05-22.711,1.527a1.054,1.054,0,1,1-1.2-1.733c5.481-3.8,15.577-5.954,24.79-1.711,6.432,2.93,9.14,6.552,11.531,9.746a28.069,28.069,0,0,0,3.6,4.209c4.129,3.724,6.569,4.319,6.593,4.325a1.084,1.084,0,0,1,.631.416,1.676,1.676,0,0,1-.252,2.172,6.52,6.52,0,0,1-4.741,1.657" transform="translate(-577.797 0.003)" fill="#571519"/>
  <path id="パス_9358" data-name="パス 9358" d="M596.375,33.187a6.509,6.509,0,0,1-3.495-.863,2.136,2.136,0,0,1-1.08-2.163c.045-.677.677-.992,1.634-1.469a19.587,19.587,0,0,0,5.533-3.885,78.266,78.266,0,0,0,5.649-6.864c.39-.511.742-.973,1.043-1.361,4.783-5.975,12.506-8.343,19.233-5.909a1.055,1.055,0,0,1-.719,1.984c-5.968-2.164-12.585-.108-16.858,5.231-.288.371-.637.828-1.022,1.333a79.818,79.818,0,0,1-5.831,7.074,21.836,21.836,0,0,1-6.087,4.284l-.163.081a3.277,3.277,0,0,0,.706.249,8.141,8.141,0,0,0,5.966-1.175,1.054,1.054,0,1,1,1.152,1.766,10.516,10.516,0,0,1-5.662,1.686m-2.487-2.747h0c0-.007,0-.013,0-.021a.1.1,0,0,1,0,.02" transform="translate(-455.22 -7.482)" fill="#571519"/>
  <path id="パス_9359" data-name="パス 9359" d="M718.589,163.923c-.185,0-.295-.007-.321-.009a1.055,1.055,0,0,1-.745-1.714c.051-.063,5.146-6.426,7.062-11.859a26.759,26.759,0,0,0,1.292-10.713,1.055,1.055,0,1,1,2.094-.249,28.575,28.575,0,0,1-1.4,11.664,45.986,45.986,0,0,1-5.926,10.523,18.786,18.786,0,0,0,7.05-3.242,17.727,17.727,0,0,0,7.668-11.206,1.055,1.055,0,0,1,2.093.261,19.48,19.48,0,0,1-8.552,12.673c-5.01,3.593-9.152,3.872-10.317,3.872" transform="translate(-551.776 -106.502)" fill="#571519"/>
  <path id="パス_9360" data-name="パス 9360" d="M775.32,144.48a1.055,1.055,0,0,1-.907-1.593c.031-.052,3.094-5.266,3.454-10.21a1.055,1.055,0,1,1,2.1.153,25.522,25.522,0,0,1-2.186,8.027,17.039,17.039,0,0,0,6.7-9.16,33.239,33.239,0,0,0,.276-15.467,1.054,1.054,0,0,1,2.044-.519,34.791,34.791,0,0,1-.3,16.585,19.058,19.058,0,0,1-10.827,12.119,1.045,1.045,0,0,1-.363.065" transform="translate(-595.604 -88.401)" fill="#571519"/>
  <path id="パス_9361" data-name="パス 9361" d="M668.661,161.2a14.079,14.079,0,0,1-1.764-.105A1.054,1.054,0,1,1,667.16,159c6.058.762,16.914-3.377,19.5-11.354a1.055,1.055,0,0,1,2.007.649c-2.711,8.379-13,12.9-20,12.9" transform="translate(-512.301 -113.017)" fill="#571519"/>
  <path id="パス_9362" data-name="パス 9362" d="M834.9,185.548a1.065,1.065,0,0,1-.334-.054c-9.85-3.287-12.221-9.869-12.317-10.147a1.055,1.055,0,0,1,1.992-.693c.085.24,2.188,5.9,10.992,8.839a1.055,1.055,0,0,1-.334,2.055" transform="translate(-632.472 -133.809)" fill="#571519"/>
  <path id="パス_9363" data-name="パス 9363" d="M642.683,400.518a1.054,1.054,0,0,1-.846-1.684c3.543-4.767,4.662-13.61,4.2-20.259a1.055,1.055,0,0,1,.979-1.126,1.074,1.074,0,0,1,1.125.979c.49,7.037-.746,16.464-4.61,21.664a1.054,1.054,0,0,1-.847.425" transform="translate(-493.574 -290.352)" fill="#571519"/>
  <path id="パス_9364" data-name="パス 9364" d="M858.216,410.982a1.054,1.054,0,0,1-.629-.208c-5.435-4.04-3.159-22.331-3.135-22.516a1.054,1.054,0,1,1,2.092.268c-.69,5.39-1.07,18.048,2.3,20.555a1.054,1.054,0,0,1-.63,1.9" transform="translate(-656.909 -297.96)" fill="#571519"/>
  <path id="パス_9365" data-name="パス 9365" d="M360.93,532.9h0a1.055,1.055,0,0,1-1.052-1.058c.039-15.49.142-56.64,27.421-63.151a92.781,92.781,0,0,1,15.528-1.9c2.49-.163,5.064-.332,7.572-.6a1.054,1.054,0,0,1,.223,2.1c-2.55.272-5.147.442-7.658.605a91.247,91.247,0,0,0-15.176,1.849c-23,5.49-25.742,37.5-25.8,61.106a1.055,1.055,0,0,1-1.055,1.052" transform="translate(-276.835 -358.612)" fill="#571519"/>
  <path id="パス_9366" data-name="パス 9366" d="M643.971,447.792a1.055,1.055,0,0,1-.458-2,7.744,7.744,0,0,0,2.114-1.43,1.054,1.054,0,1,1,1.487,1.5,9.7,9.7,0,0,1-2.687,1.836,1.048,1.048,0,0,1-.457.1" transform="translate(-494.564 -341.584)" fill="#571519"/>
  <path id="パス_9367" data-name="パス 9367" d="M173.275,676.99a1.054,1.054,0,0,1-.931-.557c-3.131-5.856-7.933-7.98-13.493-10.437q-.992-.439-2.012-.9a26.463,26.463,0,0,0-8.642-2.44,47.237,47.237,0,0,0-8.319.316,61.115,61.115,0,0,1-7.286.4,32.061,32.061,0,0,1-8.954-1.863c-.2-.064-.437-.159-.706-.265a5.227,5.227,0,0,0-1.971-.524c-.109.227.2,1.007.3,1.264l.073.184c.938,2.416,3.455,3.763,5.89,5.066l.193.1a1.055,1.055,0,0,1-1,1.86l-.192-.1c-2.644-1.415-5.64-3.018-6.861-6.162l-.066-.169c-.318-.8-1.162-2.927.672-3.906,1.133-.606,2.636-.007,3.734.427.22.088.417.167.577.219a30.219,30.219,0,0,0,8.365,1.761,59.145,59.145,0,0,0,7.027-.392,48.754,48.754,0,0,1,8.7-.317,28.543,28.543,0,0,1,9.329,2.62c.673.3,1.339.6,1.995.89,5.67,2.506,11.026,4.874,14.5,11.371a1.055,1.055,0,0,1-.929,1.552" transform="translate(-91.41 -506.63)" fill="#571519"/>
  <path id="パス_9368" data-name="パス 9368" d="M116.983,743.373a1.134,1.134,0,0,1-.114-.006l-3.264-.352c-6.54-.708-13.3-1.441-19.993-1.946a48.566,48.566,0,0,1-14.207-3l-2.36-.892c-1.519-.577-3.039-1.153-4.555-1.711-.866-.317-1.722-.656-2.578-.994-.8-.316-1.6-.632-2.41-.931-2.334-.864-6.239-2.634-6.167-4.787.035-1.052.887-1.832,2.533-2.32a12.45,12.45,0,0,1,4.276-.455,27.881,27.881,0,0,1,9,2.419c3.047,1.2,5.92,2.346,9.1,2.283,3.775-.065,7.648-1.36,11.393-2.613,6.858-2.294,13.946-4.664,21.194-.07a1.055,1.055,0,0,1-1.13,1.782c-6.4-4.06-12.713-1.946-19.4.288-3.9,1.3-7.925,2.651-12.025,2.722-3.608.032-6.8-1.2-9.907-2.43-2.8-1.105-5.444-2.148-8.321-2.274a10.308,10.308,0,0,0-3.584.371,3.173,3.173,0,0,0-.977.421c.371.593,2.355,1.8,4.744,2.685.822.3,1.638.625,2.453.947.84.332,1.681.664,2.531.976,1.524.559,3.05,1.139,4.576,1.718l2.354.891a46.579,46.579,0,0,0,13.622,2.874c6.725.508,13.5,1.242,20.062,1.952l3.262.352a1.054,1.054,0,0,1-.111,2.1" transform="translate(-47.181 -557.992)" fill="#571519"/>
  <path id="パス_9369" data-name="パス 9369" d="M46.436,702.145a1.049,1.049,0,0,1-.237-.027,78.243,78.243,0,0,1-11.983-4.166c-4.359-1.787-8.867-3.633-13.5-4.429-.381-.065-.8-.148-1.231-.236-1.8-.364-4.044-.816-5.425-.2-.41.182-.417.328-.419.384-.028.614,1.024,1.818,1.829,2.268.375.209,1.984.771,3.4,1.268a47.117,47.117,0,0,1,6.492,2.572,1.054,1.054,0,1,1-1.1,1.8,49.828,49.828,0,0,0-6.09-2.38,33.91,33.91,0,0,1-3.737-1.418c-1.219-.682-2.987-2.49-2.907-4.207a2.51,2.51,0,0,1,1.67-2.215c2-.886,4.6-.362,6.7.061.414.084.809.163,1.172.226,4.856.834,9.473,2.726,13.937,4.556a76.673,76.673,0,0,0,11.657,4.062,1.055,1.055,0,0,1-.235,2.082" transform="translate(-8.874 -531.303)" fill="#571519"/>
  <path id="パス_9370" data-name="パス 9370" d="M35.728,682.674a.888.888,0,0,1-.09,0c-5.241-.441-10.224-2.48-15.042-4.452a62.482,62.482,0,0,0-11.773-3.939c-2.352-.442-6.293-.324-6.716.367.007,0,.018.348.765,1.14a7.4,7.4,0,0,0,1.181,1.038,1.055,1.055,0,0,1-1.2,1.734,9.53,9.53,0,0,1-1.513-1.324c-1.282-1.356-1.646-2.567-1.083-3.6,1.476-2.7,8.883-1.443,8.957-1.428A64,64,0,0,1,21.4,676.266c4.671,1.912,9.5,3.889,14.42,4.3a1.054,1.054,0,0,1-.087,2.1" transform="translate(0.001 -516.86)" fill="#571519"/>
  <path id="パス_9371" data-name="パス 9371" d="M38.508,667.425a1.025,1.025,0,0,1-.237-.027,109.274,109.274,0,0,1-15.507-5.142c-3.763-1.468-7.655-2.985-11.867-4.21-1.8-.521-4.954-.963-6.225-.437a.915.915,0,0,0-.225.541,1.435,1.435,0,0,0,.121.956,1.05,1.05,0,0,1,.138,1.481,1.063,1.063,0,0,1-1.489.138,3.2,3.2,0,0,1-.859-2.864,2.68,2.68,0,0,1,1.5-2.2c2.6-1.078,7.574.344,7.624.359,4.3,1.25,8.238,2.785,12.045,4.27a105.947,105.947,0,0,0,15.212,5.051,1.054,1.054,0,0,1-.235,2.082" transform="translate(-1.781 -504.058)" fill="#571519"/>
  <path id="パス_9372" data-name="パス 9372" d="M155.676,700.363a13.082,13.082,0,0,1-4.332-.636,1.055,1.055,0,0,1,.7-1.99c2.5.884,5.772.458,8.658.082l.9-.116a1.054,1.054,0,1,1,.262,2.092l-.893.115a41.525,41.525,0,0,1-5.3.452" transform="translate(-115.88 -536.689)" fill="#571519"/>
  <path id="パス_9373" data-name="パス 9373" d="M314.752,881.906c-4.647,0-9.763-4.692-12.9-7.568l-.656-.6c-9.96-9.055-10.278-19.929-10.615-31.441-.09-3.088-.183-6.282-.472-9.468-.127-1.413-.231-3.041-.344-4.834-.555-8.787-1.394-22.069-6.94-32.43a1.055,1.055,0,1,1,1.86-.994c5.761,10.765,6.618,24.321,7.185,33.292.112,1.771.213,3.381.34,4.777.294,3.25.388,6.476.48,9.6.323,11.052.628,21.49,9.925,29.942l.662.607c3.069,2.814,8.213,7.532,12.1,6.97a27.621,27.621,0,0,0,5.692-2.217c.431-.2.821-.385,1.148-.533a1.055,1.055,0,0,1,.866,1.924c-.318.143-.7.321-1.117.518a28,28,0,0,1-6.29,2.4,6.577,6.577,0,0,1-.922.064" transform="translate(-217.469 -610.795)" fill="#571519"/>
  <path id="パス_9374" data-name="パス 9374" d="M375.479,782.743a1.054,1.054,0,0,1-1-.725c-1.21-3.675-4.116-9.4-7.48-16.025-5-9.84-11.215-22.086-15.557-34.631a1.054,1.054,0,1,1,1.992-.69c4.3,12.408,10.477,24.584,15.445,34.367,3.544,6.979,6.344,12.493,7.6,16.321a1.053,1.053,0,0,1-1,1.384" transform="translate(-270.301 -561.523)" fill="#571519"/>
  <path id="パス_9375" data-name="パス 9375" d="M428.361,791.872a1.054,1.054,0,0,1-1.055-1.054c0-2.409.057-6.423.128-11.505.19-13.541.478-34.005.214-55.858-.3-24.852-3.776-55.55-8.081-71.406a1.054,1.054,0,1,1,2.035-.552c4.346,16,7.852,46.927,8.155,71.933.265,21.879-.024,42.36-.214,55.912-.071,5.074-.128,9.081-.128,11.475a1.054,1.054,0,0,1-1.055,1.054" transform="translate(-322.724 -500.565)" fill="#571519"/>
  <path id="パス_9376" data-name="パス 9376" d="M989.194,539.387a1.055,1.055,0,0,1-1.054-1.051c-.06-23.6-2.8-55.615-25.8-61.106a91.383,91.383,0,0,0-15.179-1.849c-2.712-.178-5.516-.362-8.268-.674a1.054,1.054,0,1,1,.238-2.094c2.7.306,5.481.487,8.168.663a92.907,92.907,0,0,1,15.53,1.9c27.278,6.511,27.382,47.66,27.421,63.151a1.054,1.054,0,0,1-1.052,1.058Z" transform="translate(-721.523 -363.551)" fill="#571519"/>
  <path id="パス_9377" data-name="パス 9377" d="M861.748,454.385a1.055,1.055,0,0,1-.458-.1,8.921,8.921,0,0,1-2.427-1.652,1.055,1.055,0,1,1,1.487-1.5,6.859,6.859,0,0,0,1.857,1.248,1.054,1.054,0,0,1-.459,2" transform="translate(-660.442 -346.798)" fill="#571519"/>
  <path id="パス_9378" data-name="パス 9378" d="M1166.166,683.7a1.055,1.055,0,0,1-.929-1.552c3.474-6.5,8.828-8.864,14.5-11.369.657-.291,1.323-.585,2-.891a28.547,28.547,0,0,1,9.33-2.621,48.871,48.871,0,0,1,8.7.317,58.753,58.753,0,0,0,7.026.392,30.115,30.115,0,0,0,8.366-1.762c.159-.052.358-.131.58-.219,1.1-.435,2.6-1.031,3.73-.425,1.833.98.991,3.1.672,3.9l-.066.169c-1.223,3.144-4.219,4.747-6.862,6.162l-.193.1a1.055,1.055,0,1,1-1-1.86l.195-.1c2.434-1.3,4.951-2.65,5.89-5.066l.072-.183a3.218,3.218,0,0,0,.322-1.256,5.193,5.193,0,0,0-1.988.516c-.271.107-.514.2-.71.266a32,32,0,0,1-8.953,1.863,61.569,61.569,0,0,1-7.287-.4,47.392,47.392,0,0,0-8.318-.316,26.487,26.487,0,0,0-8.644,2.442c-.68.308-1.351.6-2.013.9-5.559,2.457-10.36,4.579-13.491,10.435a1.054,1.054,0,0,1-.931.557" transform="translate(-896.263 -511.795)" fill="#571519"/>
  <path id="パス_9379" data-name="パス 9379" d="M1214.166,750.083a1.054,1.054,0,0,1-.111-2.1l3.257-.352c6.559-.71,13.34-1.445,20.068-1.952A46.614,46.614,0,0,0,1251,742.8l2.294-.868c1.546-.587,3.093-1.174,4.637-1.741.849-.312,1.691-.645,2.531-.977.814-.321,1.629-.642,2.452-.946,2.389-.885,4.372-2.092,4.744-2.685a3.181,3.181,0,0,0-.977-.421,10.282,10.282,0,0,0-3.583-.372c-2.877.127-5.521,1.17-8.32,2.274-3.1,1.225-6.332,2.462-9.909,2.43-4.1-.071-8.129-1.419-12.026-2.722-6.682-2.235-12.994-4.347-19.394-.289a1.055,1.055,0,0,1-1.13-1.782c7.247-4.6,14.337-2.223,21.193.07,3.745,1.252,7.618,2.548,11.395,2.612,3.161.045,6.051-1.08,9.1-2.283a27.9,27.9,0,0,1,9-2.419,12.39,12.39,0,0,1,4.276.457c1.645.488,2.5,1.269,2.532,2.32.071,2.152-3.833,3.922-6.168,4.786-.808.3-1.608.615-2.408.931-.857.338-1.713.677-2.579.994-1.537.565-3.077,1.149-4.617,1.733l-2.3.87a48.592,48.592,0,0,1-14.206,3c-6.693.5-13.458,1.237-20,1.945l-3.259.352a1.107,1.107,0,0,1-.114.006" transform="translate(-932.202 -563.153)" fill="#571519"/>
  <path id="パス_9380" data-name="パス 9380" d="M1358.154,708.863a1.054,1.054,0,0,1-.235-2.082,76.774,76.774,0,0,0,11.658-4.062c4.463-1.829,9.08-3.721,13.935-4.556.363-.063.756-.142,1.17-.226,2.1-.42,4.7-.944,6.7-.06a2.51,2.51,0,0,1,1.67,2.214c.079,1.718-1.688,3.526-2.907,4.207a34.081,34.081,0,0,1-3.733,1.417,49.685,49.685,0,0,0-6.095,2.382,1.054,1.054,0,0,1-1.1-1.8,47.072,47.072,0,0,1,6.5-2.573c1.419-.5,3.027-1.057,3.4-1.267.806-.45,1.857-1.654,1.828-2.268,0-.056-.009-.2-.418-.384-1.381-.613-3.626-.161-5.428.2-.435.088-.847.171-1.229.236-4.628.8-9.135,2.643-13.494,4.429a78.339,78.339,0,0,1-11.986,4.166,1.027,1.027,0,0,1-.237.027" transform="translate(-1043.95 -536.472)" fill="#571519"/>
  <path id="パス_9381" data-name="パス 9381" d="M1366.1,689.393a1.054,1.054,0,0,1-.087-2.1c4.919-.414,9.75-2.391,14.421-4.3a63.966,63.966,0,0,1,12.182-4.06c.074-.015,7.484-1.27,8.957,1.43.563,1.031.2,2.242-1.083,3.6a9.424,9.424,0,0,1-1.511,1.322,1.054,1.054,0,1,1-1.2-1.732,7.387,7.387,0,0,0,1.18-1.037c.768-.813.759-1.16.759-1.163-.414-.669-4.355-.787-6.71-.346a62.431,62.431,0,0,0-11.772,3.939c-4.819,1.973-9.8,4.012-15.044,4.453a.846.846,0,0,1-.09,0" transform="translate(-1050.063 -522.029)" fill="#571519"/>
  <path id="パス_9382" data-name="パス 9382" d="M1361.774,674.163a1.054,1.054,0,0,1-.235-2.082,106.111,106.111,0,0,0,15.218-5.053c3.805-1.484,7.74-3.018,12.04-4.269,1.388-.4,5.468-1.257,7.624-.359a2.682,2.682,0,0,1,1.5,2.2,3.193,3.193,0,0,1-.861,2.862,1.054,1.054,0,0,1-1.348-1.622,1.45,1.45,0,0,0,.119-.951.915.915,0,0,0-.227-.543c-1.268-.526-4.428-.083-6.223.437-4.211,1.224-8.1,2.742-11.864,4.209a109.264,109.264,0,0,1-15.511,5.144,1.035,1.035,0,0,1-.237.027" transform="translate(-1046.735 -509.246)" fill="#571519"/>
  <path id="パス_9383" data-name="パス 9383" d="M1328.262,707.081a41.442,41.442,0,0,1-5.3-.451l-.9-.115a1.054,1.054,0,1,1,.262-2.092l.909.116c2.885.375,6.155.8,8.653-.083a1.055,1.055,0,1,1,.7,1.99,13.079,13.079,0,0,1-4.332.635" transform="translate(-1016.291 -541.858)" fill="#571519"/>
  <path id="パス_9384" data-name="パス 9384" d="M1073.019,888.623a6.549,6.549,0,0,1-.921-.064,28.007,28.007,0,0,1-6.29-2.4c-.419-.2-.8-.375-1.116-.518a1.055,1.055,0,0,1,.866-1.924c.327.147.717.33,1.148.532a27.622,27.622,0,0,0,5.692,2.217c3.889.561,9.025-4.154,12.094-6.969l.665-.609c9.3-8.452,9.6-18.89,9.924-29.941.091-3.12.186-6.346.479-9.6.126-1.4.228-3,.34-4.776.567-8.971,1.424-22.527,7.186-33.292a1.055,1.055,0,0,1,1.86.995c-5.546,10.361-6.386,23.641-6.941,32.43-.113,1.792-.217,3.421-.344,4.833-.288,3.187-.382,6.381-.472,9.469-.337,11.512-.655,22.385-10.614,31.44l-.659.6c-3.136,2.875-8.252,7.567-12.9,7.567" transform="translate(-818.536 -615.962)" fill="#571519"/>
  <path id="パス_9385" data-name="パス 9385" d="M1065.125,789.457a1.054,1.054,0,0,1-1-1.384c1.259-3.828,4.059-9.341,7.6-16.321,4.967-9.783,11.149-21.959,15.445-34.367a1.054,1.054,0,1,1,1.992.69c-4.342,12.545-10.56,24.792-15.557,34.632-3.365,6.627-6.271,12.351-7.481,16.026a1.054,1.054,0,0,1-1,.725" transform="translate(-818.537 -566.687)" fill="#571519"/>
  <path id="パス_9386" data-name="パス 9386" d="M1061.621,797.033a1.054,1.054,0,0,1-1.055-1.054c0-2.4-.055-6.285-.125-11.205-.186-13.049-.467-32.769-.2-54.634.3-25,3.809-55.928,8.155-71.933a1.054,1.054,0,1,1,2.035.552c-4.305,15.858-7.78,46.556-8.081,71.406-.264,21.838.016,41.541.2,54.579.07,4.929.126,8.822.126,11.235a1.054,1.054,0,0,1-1.055,1.054" transform="translate(-815.507 -505.726)" fill="#571519"/>
  <path id="パス_9387" data-name="パス 9387" d="M746.442,362.142a1.05,1.05,0,0,1-.583-.177c-2.294-1.528-4.218-2.245-5.274-1.963a1.145,1.145,0,0,0-.766.661,1.055,1.055,0,0,1-1.887-.943,3.258,3.258,0,0,1,2.111-1.756c1.715-.454,4.065.3,6.984,2.246a1.054,1.054,0,0,1-.586,1.932" transform="translate(-567.569 -275.265)" fill="#571519"/>
  <path id="パス_9388" data-name="パス 9388" d="M690.93,217.565a26.948,26.948,0,0,1-6.261-.767,1.055,1.055,0,0,1,.511-2.046c3.588.9,9.836,1.32,12.344-1.187a1.054,1.054,0,0,1,1.491,1.491c-1.9,1.9-5.039,2.509-8.085,2.509" transform="translate(-526.067 -164.047)" fill="#571519"/>
  <path id="パス_9389" data-name="パス 9389" d="M752.277,213.955a1.055,1.055,0,0,1-.745-1.8,3.286,3.286,0,0,0,1.237-2.427,1.054,1.054,0,1,1,2.109,0,5.435,5.435,0,0,1-1.855,3.918,1.051,1.051,0,0,1-.746.309" transform="translate(-577.878 -160.521)" fill="#571519"/>
  <path id="パス_9390" data-name="パス 9390" d="M382.856,486.819a1.042,1.042,0,0,1-.415-.085,1.054,1.054,0,0,1-.553-1.384c.113-.266.224-.558.339-.861.549-1.447,1.233-3.247,2.819-4.04a1.055,1.055,0,1,1,.943,1.887c-.85.424-1.349,1.741-1.79,2.9-.126.333-.248.652-.373.942a1.053,1.053,0,0,1-.97.639" transform="translate(-293.701 -369.5)" fill="#571519"/>
  <path id="パス_9391" data-name="パス 9391" d="M399.324,491a1.055,1.055,0,0,1-.942-1.526,10.177,10.177,0,0,1,3.4-4.017,1.054,1.054,0,0,1,1.17,1.755,8.1,8.1,0,0,0-2.683,3.206,1.055,1.055,0,0,1-.944.583" transform="translate(-306.37 -373.302)" fill="#571519"/>
  <path id="パス_9392" data-name="パス 9392" d="M1114.573,494.1a1.054,1.054,0,0,1-1.055-1.055c0-2.2-2.433-4.08-3.883-5a1.055,1.055,0,1,1,1.132-1.78c2.217,1.412,4.859,3.734,4.859,6.782a1.054,1.054,0,0,1-1.054,1.055" transform="translate(-853.213 -373.933)" fill="#571519"/>
  <path id="パス_9393" data-name="パス 9393" d="M1108.3,506.776a1.054,1.054,0,0,1-.979-.663,16.533,16.533,0,0,0-2.872-4.278,1.055,1.055,0,0,1,1.62-1.351,18.412,18.412,0,0,1,3.21,4.846,1.054,1.054,0,0,1-.978,1.446" transform="translate(-849.409 -384.705)" fill="#571519"/>
  <path id="パス_9424" data-name="パス 9424" d="M657.987,529.7c-7.635,0-15.026-3.292-21.97-9.786a48.847,48.847,0,0,1-8.115-9.694,1.054,1.054,0,0,1,1.784-1.125,46.731,46.731,0,0,0,7.771,9.279c6.539,6.116,13.447,9.218,20.529,9.218H658c8.691-.005,16.751-4.557,23.309-13.166a36.495,36.495,0,0,0,4.986-9.635,1.055,1.055,0,1,1,1.983.719,38.049,38.049,0,0,1-5.291,10.195c-6.971,9.151-15.611,13.991-24.986,14Z" transform="translate(-482.889 -387.773)" fill="#571519"/>
  <path id="パス_9425" data-name="パス 9425" d="M626.863,623.381h0a1.054,1.054,0,0,1-1.052-1.056c.016-6.86.244-22.591.508-40.806.566-39.112,1.341-92.678.741-106.507-.107-2.444-.353-5.138-.613-7.99-1.093-11.968-2.454-26.863,5.957-35.273a1.055,1.055,0,0,1,1.491,1.491c-7.712,7.712-6.4,22.061-5.348,33.589.263,2.878.511,5.6.62,8.091.6,13.89-.173,67.492-.739,106.629-.264,18.208-.491,33.933-.507,40.779a1.055,1.055,0,0,1-1.055,1.052" transform="translate(-481.264 -331.884)" fill="#571519"/>
  <path id="パス_9426" data-name="パス 9426" d="M572.207,446.287a1.126,1.126,0,0,1-.686-.226c-.482-.377-.938-.733-.07-10.518a99.838,99.838,0,0,1,1.7-12.527c.292-1.053,1.765-1.733,4.156-2.727a15.633,15.633,0,0,0,1.431-.64,33.315,33.315,0,0,0,4.912-4.006c1-.93,2.041-1.89,3.153-2.773a25.734,25.734,0,0,1,4.968-2.972,1.054,1.054,0,0,1,.93,1.893,23.924,23.924,0,0,0-4.586,2.731c-1.048.833-2.057,1.766-3.032,2.669a35.5,35.5,0,0,1-5.228,4.247,14.045,14.045,0,0,1-1.738.8,15.647,15.647,0,0,0-2.964,1.458c-.923,3.487-1.893,14.081-2.061,18.861,3.553-4.45,6.917-8.216,9.258-6.972a3.832,3.832,0,0,1,1.436,2.359,6.308,6.308,0,0,0,.284.765,1.054,1.054,0,1,1-1.834,1.04,6.7,6.7,0,0,1-.452-1.141,6.656,6.656,0,0,0-.462-1.163.294.294,0,0,0-.043,0c-.676,0-2.424,1.25-6.862,6.835-1.083,1.363-1.351,1.691-1.673,1.873a1.1,1.1,0,0,1-.537.136" transform="translate(-439.212 -315.23)" fill="#571519"/>
  <path id="パス_9427" data-name="パス 9427" d="M863.634,625.321a1.055,1.055,0,0,1-1.055-1.052c-.016-7.04-.273-23.32-.572-42.171-.6-38.313-1.434-90.783-.839-104.487.095-2.173.276-4.516.468-7,.922-11.926,2.071-26.77-5.891-34.731a1.054,1.054,0,0,1,1.491-1.491c8.649,8.647,7.459,24.027,6.5,36.385-.19,2.462-.37,4.788-.463,6.925-.593,13.642.236,66.077.841,104.362.3,18.859.555,35.145.571,42.2a1.054,1.054,0,0,1-1.052,1.056Z" transform="translate(-658.046 -333.917)" fill="#571519"/>
  <path id="パス_9428" data-name="パス 9428" d="M878.312,451a1.086,1.086,0,0,1-.537-.136c-.322-.182-.591-.511-1.676-1.876-4.531-5.7-6.263-6.92-6.9-6.83a6.694,6.694,0,0,0-.463,1.165,6.648,6.648,0,0,1-.45,1.137,1.054,1.054,0,1,1-1.835-1.038,6.4,6.4,0,0,0,.283-.762,3.839,3.839,0,0,1,1.438-2.362c2.341-1.245,5.7,2.524,9.257,6.972-.168-4.779-1.137-15.373-2.061-18.861a15.642,15.642,0,0,0-2.965-1.458,14.058,14.058,0,0,1-1.738-.8,35.531,35.531,0,0,1-5.228-4.249c-.975-.9-1.983-1.835-3.031-2.668a20.092,20.092,0,0,0-3.486-2.179,1.054,1.054,0,0,1,.967-1.874,22.333,22.333,0,0,1,3.831,2.4c1.111.883,2.148,1.844,3.151,2.772a33.411,33.411,0,0,0,4.913,4.008c.211.131.859.4,1.431.638,2.391.994,3.864,1.673,4.156,2.727a99.8,99.8,0,0,1,1.7,12.526c.867,9.785.412,10.142-.07,10.518a1.126,1.126,0,0,1-.686.226m-2.9-22.547h0Z" transform="translate(-660.283 -319.286)" fill="#571519"/>
  <path id="パス_9429" data-name="パス 9429" d="M398.769,813.453a1.051,1.051,0,0,1-.834-.409c-3.4-4.392-10.739-8.272-13.989-8.1a1.054,1.054,0,1,1-.123-2.1c4.2-.247,12.172,4.251,15.779,8.911a1.054,1.054,0,0,1-.833,1.7" transform="translate(-294.492 -617.578)" fill="#571519"/>
  <path id="パス_9430" data-name="パス 9430" d="M429.05,890.217a1.054,1.054,0,0,1-.944-.583c-.613-1.226-4.453-2.936-6.3-3.4a1.055,1.055,0,0,1,.511-2.047c1.019.254,6.454,2.059,7.675,4.5a1.055,1.055,0,0,1-.942,1.526" transform="translate(-323.86 -680.14)" fill="#571519"/>
  <path id="パス_9431" data-name="パス 9431" d="M1071.98,809.567a1.055,1.055,0,0,1-.691-1.853,43.427,43.427,0,0,1,15.615-8.3,1.054,1.054,0,1,1,.545,2.037,41.115,41.115,0,0,0-14.779,7.857,1.055,1.055,0,0,1-.689.256" transform="translate(-823.81 -614.924)" fill="#571519"/>
  <path id="パス_9432" data-name="パス 9432" d="M1064.6,876.1a1.054,1.054,0,0,1-.9-1.6c1.557-2.594,4.843-4.425,7.741-6.041.919-.512,1.787-1,2.516-1.459a1.054,1.054,0,1,1,1.132,1.78c-.78.5-1.674.995-2.621,1.522-2.667,1.487-5.692,3.172-6.959,5.284a1.053,1.053,0,0,1-.905.512" transform="translate(-818.134 -666.819)" fill="#571519"/>
  <path id="パス_9439" data-name="パス 9439" d="M425.17,84.227a2.6,2.6,0,0,1,1.91.507,2.146,2.146,0,0,1,.818,1.37,2.209,2.209,0,0,1-.4,1.549,2.58,2.58,0,0,1-1.7,1.027,5.81,5.81,0,0,1-3.025-.277,5.7,5.7,0,0,1-2.258-1.55,5.3,5.3,0,0,1-1.2-2.492,6.2,6.2,0,0,1,.214-3.119,10.245,10.245,0,0,1,1.072-2.288q.75-1.238,1.527-2.485t1.388-2.463a5.631,5.631,0,0,0,.654-2.312,2.929,2.929,0,0,0-.66-1.983,5.014,5.014,0,0,0-2.6-1.429l-.347.009c-.116,0-.249.013-.4.028a8.392,8.392,0,0,0-3.6,2.825,14.133,14.133,0,0,0-2.118,4.16,2.607,2.607,0,0,1-1.22,1.554,2.091,2.091,0,0,1-2.865-.8,2.613,2.613,0,0,1-.226-2,19.255,19.255,0,0,1,1.519-3.475,15.808,15.808,0,0,1,2.3-3.173,14.42,14.42,0,0,1,2.9-2.4,8.18,8.18,0,0,1,3.248-1.207,6.856,6.856,0,0,1,3.4.434,9.022,9.022,0,0,1,3.4,2.511,6.232,6.232,0,0,1,1.44,2.521,8.212,8.212,0,0,1,.279,2.706,8.99,8.99,0,0,1-.6,2.7,16.659,16.659,0,0,1-1.28,2.6,14.967,14.967,0,0,1-.939,1.363,15.14,15.14,0,0,0-1.246,1.972,7.654,7.654,0,0,0-.756,2.029,1.683,1.683,0,0,0,.443,1.624.315.315,0,0,0,.192.046.641.641,0,0,0,.375-.018,1.107,1.107,0,0,1,.354-.071m-.932,10.983a3,3,0,0,1,1.813-3.874,3.012,3.012,0,0,1,2.342.087,2.878,2.878,0,0,1,1.584,1.708,3.1,3.1,0,0,1-1.846,3.944,2.869,2.869,0,0,1-2.325-.122,3.009,3.009,0,0,1-1.568-1.742" transform="translate(-315.428 -49.038)" fill="#571519" fill-rule="evenodd"/>
</svg>
