<svg xmlns="http://www.w3.org/2000/svg" xmlns:xlink="http://www.w3.org/1999/xlink" width="711.978" height="390.413" viewBox="0 0 711.978 390.413">
  <defs>
    <clipPath id="clip-path">
      <rect id="長方形_1192" data-name="長方形 1192" width="711.978" height="390.413" fill="none"/>
    </clipPath>
  </defs>
  <g id="グループ_4850" data-name="グループ 4850" transform="translate(-626 -4068)">
    <g id="グループ_4796" data-name="グループ 4796" transform="translate(626 4068)">
      <g id="グループ_4795" data-name="グループ 4795" clip-path="url(#clip-path)">
        <path id="パス_10759" data-name="パス 10759" d="M489.514,308.926c-23.932-44.727-40.506-94.248-28.447-128.713,18.3-52.3,79.194-78.473,122.519-46.512,40.206,29.657,51.592,71.275,51.592,71.275s44.832-29.108,87.942-30.11c46.3-1.079,99.5,54.454,81.1,107.035-27.2,77.752-209.585,136.939-231.848,133.522-8.643-1.327-35.714-30.951-61.455-70.436-7.4-11.352-21.4-36.062-21.4-36.062" transform="translate(-95.977 -25.151)" fill="#f68f80" fill-rule="evenodd"/>
        <path id="パス_10760" data-name="パス 10760" d="M258.187,324.7c-16.856,20.1-31.022,33.765-36.9,36.293C202.707,368.975,20.4,300.8,2.293,220.44-9.888,166.388,27.9,111.933,81.578,116.094c49.81,3.859,81.512,33.128,81.512,33.128S185.7,100.788,221.733,77.1c38.7-25.439,113.242-6.514,125.486,47.83,10.02,44.464-23.267,109.267-58.51,159.8,0,0-20.879,28.462-30.522,39.966" transform="translate(0 -13.848)" fill="#f68f80" fill-rule="evenodd"/>
        <path id="パス_10761" data-name="パス 10761" d="M557.715,271.9s-7.407.719-10.82,6.82c-5.9,10.551-12.879,29.563-19.662,44.4-6.451,14.117-12.664,25.814-13.452,25.732-.893-.094-13.089-7.354-24.428-13.023-14-7-26.043-13.819-26.043-13.819L457.9,340.363s18.7,14.076,33.58,24.174c14.631,9.929,29.879,13.8,31.333,13.581a26.251,26.251,0,0,0,8.794-4.234,52.873,52.873,0,0,0,7.434-6.726l4.61,8.7,7.481,29.164,3.433,19.144,1.316,10.443s13.505,13.1,18.063,12.795c9.507-.647,31.535-5.8,53.295-12.795,18.941-6.085,38.574-14.206,38.574-14.206s-.822-14.939-2.495-28.035a154.149,154.149,0,0,0-3.715-18.815c-1.064-4.039-16.5-46.595-29.258-74.7-7.134-15.719-15.146-25.071-15.146-25.071L594.5,272ZM625.921,372.9s5.208,9.143,6.68,11.712a42.145,42.145,0,0,1,3.81,8.609c1.116,3.5,3.311,8.159.847,6.3s-5.115-2.214-7.62-8.891-3.717-17.733-3.717-17.733" transform="translate(-96.159 -57.1)" fill="#e0503b" fill-rule="evenodd"/>
        <path id="パス_10762" data-name="パス 10762" d="M554.817,171.528l14.419-1.782s28.839,18.308,33.538,21.873c2.431,1.782,1.782,11.18.81,14.421a9.68,9.68,0,0,1-2.431,4.373,29.773,29.773,0,0,0,4.052,6.968,13.265,13.265,0,0,0,5.185,3.564s14.215,15.919,2.545,29.771c-6.585,7.815-21.815,26.794-25.068,28.837-.614.386-5.058,3.127-8.708,2.314-3.452-.769-6.111-4.978-6.921-8.409-1.08-4.576,1.069-16.575,2.977-22.156.574-1.68,4.186-2.347,4.07-2.861-.387-1.709-1.374-6.5-4.377-10-1.944-4.05-15.878.162-18.958-2.917-3.239-3.4-3.725-6.644-4.374-10.694-.809-4.7-1.783-10.693-1.943-11.341-1.3-4.861-3.889-4.7-3.726-8.425.162-2.917,5.67-3.888,5.995-6.643.485-6.643-1.134-12.962-.325-17.337.325-2.755,1.62-8.263,3.242-9.559" transform="translate(-114.639 -35.647)" fill="#ffe4ce" fill-rule="evenodd"/>
        <path id="パス_10763" data-name="パス 10763" d="M552.265,174.946s6.157-5.346,12.638-1.3c3.727,2.431,11.016,14.744,13.449,16.525a39.106,39.106,0,0,1,6.156,5.672s13.447-.648,12.315-.324a19.564,19.564,0,0,1-7.779,5.995c-4.211,1.62-10.855,1.459-13.446-.972-5.023-5.185-5.671-15.715-11.18-22.683a9.443,9.443,0,0,0-12.152-2.916" transform="translate(-115.976 -36.148)" fill="#ffbca9" fill-rule="evenodd"/>
        <path id="パス_10764" data-name="パス 10764" d="M565.8,252.271a88.941,88.941,0,0,0,14.1-1.944,48.043,48.043,0,0,0,7.614-2.754c3.079-1.459,2.269,1.134-1.62,5.67a42.542,42.542,0,0,1-5.348,4.861s-.646-2.106-3.725-4.536c-2.107-1.62-11.017-1.3-11.017-1.3" transform="translate(-118.818 -51.905)" fill="#ffbca9" fill-rule="evenodd"/>
        <path id="パス_10765" data-name="パス 10765" d="M560.673,212.931c0,2.268,3.565,2.268,4.7,2.268,2.429,0,5.024-1.295,5.347-3.077s-2.917-2.754-5.186-2.593c-2.105.161-5.022.973-4.859,3.4" transform="translate(-117.74 -43.998)" fill="#ffaaa9" fill-rule="evenodd"/>
        <path id="パス_10766" data-name="パス 10766" d="M545.292,213.967c0-1.782,3.241-3.4,4.7-4.537,1.295-.972,1.943-.161,1.457,2.755-.162,1.782-1.782,4.536-3.564,4.536s-2.591-.973-2.591-2.754" transform="translate(-114.511 -43.898)" fill="#ffaaa9" fill-rule="evenodd"/>
        <path id="パス_10767" data-name="パス 10767" d="M550.05,157.27a61.658,61.658,0,0,1,10.531-3.564c4.537-1.134,10.369-4.213,15.23-4.7,7.453-.972,15.23-1.458,19.767.324s10.37,3.564,14.583,6.319,8.425,16.2,8.425,16.2,3.079,9.722,7.777,22.2c2.269,5.832,8.426,10.855,10.531,18.308.65,2.43,1.459,5.67-2.754,11.017-.217.284-2.876,3.6-4.4,5.987-.586.919-2.52,3.377-.624,5.745a38.684,38.684,0,0,0,6.451,5.476c5.956,4.1,14.222,9.038,14.674,11.135.148.683,1.518,7.331.706,12.321a33.519,33.519,0,0,1-4.395,11.608s-15.083-27.621-16.007-27.663c-6.811-.308-19-.653-22.125-2.044-3.053-1.356-11.224-5.631-13.335-12.116-1.849-5.679-.178-11.716.267-16.924a16.389,16.389,0,0,0-1.567-8.574,13.756,13.756,0,0,0,5.034-5.528c1.134-2.917,1.783-7.615-.81-10.693-2.268-2.917-7.451.162-12.637.486-3.565.162-7.778-2.43-7.778-2.43l2.916,7.777,3.89,5.348s-9.722-4.375-13.449-12.315c-3.24-6.805-5.994-17.336-11.666-21.549-5.347-4.05-9.884,2.755-11.016,5.509a21.357,21.357,0,0,0-1.3,7.938c.162,3.564,1.3,7.454.485,11.99-.485,2.755-6.156,3.4-5.994,6.48,0,2.107,3.4,6.643,3.564,8.587.809,6.968,3.888,17.984,4.86,20.091,2.917,5.833,13.354.623,19.187,1.917,4.213.973,5.984,12.511,5.984,12.511s-2.229,1.057-4.234,1.827c-3.5,1.345-7.985,3.343-10.718,8.267-4.409,7.942-7.787,18.1-10.784,25.937-1.487,3.887-2.1,8.116-4.242,9.419-.484.295-6.2.2-9.222-1.555-3.394-1.967-4.134-5.707-4.722-7.239-.63-1.651,1.085.6,3.253,1.228,1.532.443,3.4-.673,4.32-1.251a4.432,4.432,0,0,0,1.479-4.128,9.753,9.753,0,0,0-2.5-4.081,26.053,26.053,0,0,1-7.086-3.993,9.444,9.444,0,0,1-3.156-9.952c1.7-5.81,8.792-9.309,13.635-13.869,2.279-2.146,4.441-7.455,4.6-7.973-1.029-3.858-2.331-6.588-7.03-9.828-3.565-2.43-8.145-5.423-9.117-9.636-2.106-9.073,4.311-12.878,7.066-24.383,2.106-8.424,1.457-17.335,5.347-25.6,2.1-5.022,3.726-8.1,8.1-10.369" transform="translate(-110.681 -31.108)" fill="#4a3e3e" fill-rule="evenodd"/>
        <path id="パス_10768" data-name="パス 10768" d="M637.352,198.9c.485,1.458,1.134,1.62,1.3,4.375s1.3,4.859,3.079,3.888c1.134-.647,1.458-1.943.809-3.726a13.031,13.031,0,0,0-1.782-3.726c-2.43-3.4-3.887-2.269-3.4-.811" transform="translate(-133.825 -41.471)" fill="#362d2d" fill-rule="evenodd"/>
        <path id="パス_10769" data-name="パス 10769" d="M632.853,200.127c-.162.486.162,1.3.325,2.916s-.487,3.24.322,4.375c.488.973,2.269.486,2.755-.81.647-1.783-.487-4.861-1.3-6.319-.649-.811-1.782-1.3-2.107-.162" transform="translate(-132.89 -41.887)" fill="#362d2d" fill-rule="evenodd"/>
        <path id="パス_10770" data-name="パス 10770" d="M605.406,159.647c-2.267-.486-4.535,0-4.535.972.16.811,1.943.648,3.888,1.3s2.916,1.943,3.726,1.134c.811-1.3-.649-2.916-3.079-3.4" transform="translate(-126.183 -33.486)" fill="#7d6667" fill-rule="evenodd"/>
        <path id="パス_10771" data-name="パス 10771" d="M228.163,197.957c6.646-2.36,12.744,7.61,18.6,11.457,3.088,2.03,7,5.8,10.754,6.543,3.888.765,7.62-1.519,11.257.63,1.935,1.144,2.394,4.724,4.008,6.443,2.914,3.106,11.672,7.673,15.381,13.2,4.738,7.061,5.518,13.785,7,22.3,2.4,13.8,4.042,29.973,8.05,42.607,1.175,3.7,3.041,12.191,4.328,12.99,1.4.868,9.594-1.315,11.752-1.284a64.411,64.411,0,0,0,21.55-3.944c1.985-.743,6.751-2.758,8.692-1.481.533.349.848,8.353,1.313,9.674.971,2.757,4.147,5.783,3.869,8.829-.933,10.2-9.415,8.969-17.72,11.892-11.452,4.03-24.28,8.245-36.081,10.688-4,.828-10.039,1.479-13.5,3.8-2.068,1.387-3.925,5.757-3.925,5.757s-10.257,12.236-16.828,18.29c-4.364,4.021-10.272,9.975-15.705,12.594-4.475,2.156-16.562-1.958-21.452-2.8-20.6-3.561-40.7-13.412-60.015-21.328-5.569-2.281-22.633-10.866-22.633-10.866s-1.012-18.443.355-24.4c5.315-23.157,14.658-47.562,23.747-69.43,6.081-14.625,6.96-25.712,17.478-38.06,5.734-6.728,14.2-10.715,24.152-15.647,4.848-2.4,11.544-7.029,15.576-8.461" transform="translate(-30.764 -41.496)" fill="#fff" fill-rule="evenodd"/>
        <path id="パス_10772" data-name="パス 10772" d="M318.926,107s-17.223-11.921-33.258-5.52c-1.2.517-2.482.135-4.293-.228-2.661-.442-5.067-1.157-9.624,1.851-7.612,5.066-12.054,10.029-14.652,14.666a28.465,28.465,0,0,0-2.929,7.507l2.532,6.161a19.013,19.013,0,0,0-.35,7.049c.525,4.692,2.653,9.862,3.478,12.375,1.421,4.61,1.419,9.32,3.715,11.573l2.571,2.508,12.726,2.385L329.5,150.1a54.825,54.825,0,0,1,4.826-4.5c1.6-1.269,5.038-2.865,6.525-4.342,2.253-2.3,1.9-3.45,1.845-5.036-.088-2.643-4.07-6.269-5.1-8.67s.241-5.51-6.021-10.86A105.351,105.351,0,0,0,318.926,107" transform="translate(-53.376 -20.915)" fill="#926359" fill-rule="evenodd"/>
        <path id="パス_10773" data-name="パス 10773" d="M322.553,140.523c-4.1.876-8.778,6.639-13.179,7.95-6.292,1.794-11.1.365-11.886.655-.991.4-4,.557-6.43,4.023-1.819,2.6-4.192,7.652-4.579,7.188-2.12-1.676-2.553-8.435-2.553-8.435s-5.148-2.052-7.5-1.182c-2.929,1.049-4.2,5.906-4.189,9.4a10.026,10.026,0,0,0,1.393,5.3,44.97,44.97,0,0,1-4.685,4.018,10.811,10.811,0,0,1-6.291,1.795s-2.071,6.717-5.864,10.658c-3.686,3.831-9.113,4.87-8.026,6.129,3.716,4.3,17.181,13.923,26.277,21.031,4.539,3.548,7.4,6.9,8.594,7.8,1.08.8.735-2.774,2.024-6.059a64.208,64.208,0,0,1,5.476-10.329c3.115-3.436,15.505,4.781,19.456,2.64,4.208-2.414,5.641-5.479,7.427-9.136,2.183-4.412,4.859-9.9,5.05-10.539,2.665-4.269,5.069-3.555,6.164-7.243.7-2.933-4.467-5.515-3.865-8.129,1.471-6.716,4.693-11.69,5.227-16.418-.057-3.331,1.792-13.078-8.041-11.113" transform="translate(-52.211 -29.455)" fill="#ffe4ce" fill-rule="evenodd"/>
        <path id="パス_10774" data-name="パス 10774" d="M331.028,141.25s-4.008,5.265-9.449,7.138-10.559-.868-12.609-.431c-3.523.7-6.477,4.183-5.885,4.534.322.1,9.011,1.978,16.727.085,7.924-2.008,11.216-11.325,11.216-11.325" transform="translate(-63.632 -29.663)" fill="#ffbca9" fill-rule="evenodd"/>
        <path id="パス_10775" data-name="パス 10775" d="M311.078,214.442a46.632,46.632,0,0,1-10.313-4.634,56.186,56.186,0,0,1-6.726-4.965c-2.617-2.349-2.578.456-.064,6.089a26.914,26.914,0,0,0,3.732,5.645s.619-2.082,4.332-3.423c1.2-.515,9.038,1.289,9.038,1.289" transform="translate(-61.337 -42.842)" fill="#ffbca9" fill-rule="evenodd"/>
        <path id="パス_10776" data-name="パス 10776" d="M333.336,179.064c-.667,2.244-4.194,1.2-5.317.864-2.406-.715-4.589-2.76-4.225-4.571.155-1.7,3.7-1.868,5.732-1.089,1.989.94,4.638,2.6,3.809,4.8" transform="translate(-67.989 -36.503)" fill="#ffaaa9" fill-rule="evenodd"/>
        <path id="パス_10777" data-name="パス 10777" d="M348.962,184.646c.523-1.765-2.255-4.16-3.363-5.712-1-1.344-1.717-.683-2.254,2.3-.363,1.811.317,4.806,2.241,5.378,1.765.523,2.85-.2,3.376-1.963" transform="translate(-72.083 -37.437)" fill="#ffaaa9" fill-rule="evenodd"/>
        <path id="パス_10778" data-name="パス 10778" d="M267.621,138.937c.051,1.586-.572,1.924.2,4.6s.382,5.174-1.8,4.876c-1.332-.221-2.007-1.469-2.125-3.424a15.685,15.685,0,0,1,.55-4.2c1.4-4.121,3.115-3.436,3.168-1.851" transform="translate(-55.42 -28.917)" fill="#68423a" fill-rule="evenodd"/>
        <path id="パス_10779" data-name="パス 10779" d="M272.783,146.107c.144-.481.013-1.218.168-2.916.108-1.538,1.066-3,.6-4.36-.4-.991-2.2-.827-2.852.2-.844,1.668-.371,4.776.209,6.343.308,1.313,1.335,1.968,1.876.732" transform="translate(-56.75 -29.015)" fill="#68423a" fill-rule="evenodd"/>
        <path id="パス_10780" data-name="パス 10780" d="M312.56,106.116c2.822.489,5.291,1.573,4.637,2.6s-2.739.409-5.287.175-4.58.733-4.793-.9c-.1-1.424,2.622-2.361,5.442-1.872" transform="translate(-64.494 -22.257)" fill="#c1877b" fill-rule="evenodd"/>
        <path id="パス_10781" data-name="パス 10781" d="M311.758,112.008c2.388.186,4.585,1.014,3.979,1.881-.446.913-2.258.551-4.324.46s-3.732.811-4.039-.5c-.194-1.105,2-2.024,4.384-1.839" transform="translate(-64.546 -23.517)" fill="#c1877b" fill-rule="evenodd"/>
        <path id="パス_10782" data-name="パス 10782" d="M403.5,327.905a14,14,0,0,0,5.208-3.051,27.762,27.762,0,0,0,4.8-8.025,81.748,81.748,0,0,0,3.444-11.836c.679-3.994,1.95-9.226,2.881-13.379a105.071,105.071,0,0,1,3.992-12.452c1.492-4.133,2.289-6.751,3.437-8.793s1.525.668,2.766-.77,6.378,20.962,7.178,26.084.541,4.961,2.3,10.573,1.747,6.811,4.447,10.428a42.905,42.905,0,0,0,5.973,6.375s1.62,4.288,1.645,6.582a36.072,36.072,0,0,1-1.353,7.8c-.411,1.431-1.084.353-3.366-1.332s-7.561-5.194-9.949-6.6-6.378-5.131-7.515-7.334-2.988-4.362-3.623-2.507-.353,3.8-1.467,5.919-1.49,1.6-4.873,5.524-15.618,13.04-15.618,13.04-.339-2.444-1.147-6.363.844-9.881.844-9.881" transform="translate(-84.512 -56.602)" fill="#ffe4ce" fill-rule="evenodd"/>
        <path id="パス_10783" data-name="パス 10783" d="M606.124,220.708c-.107,0-.216,0-.322,0a1.381,1.381,0,0,1-1.345-1.415,1.355,1.355,0,0,1,1.415-1.345,8.174,8.174,0,0,0,6.279-2.443,10.42,10.42,0,0,0,2.516-8.071c-.141-2.028-.726-3.424-1.74-4.15-1.13-.812-2.909-.907-5.279-.282a1.381,1.381,0,0,1-.7-2.671c3.2-.844,5.758-.606,7.593.709,1.712,1.228,2.683,3.315,2.884,6.2a13.125,13.125,0,0,1-3.275,10.171,10.932,10.932,0,0,1-8.022,3.3" transform="translate(-126.936 -41.965)"/>
        <path id="パス_10784" data-name="パス 10784" d="M607.888,215.311a1.381,1.381,0,0,1-1.31-1.818,5.577,5.577,0,0,1,3.343-3.8,1.38,1.38,0,0,1,.827,2.634,3.125,3.125,0,0,0-1.552,2.043,1.379,1.379,0,0,1-1.308.944" transform="translate(-127.367 -44.023)"/>
        <path id="パス_10785" data-name="パス 10785" d="M560.468,204.819c0-1.62.811-3.079,1.946-3.079s2.1,1.3,2.1,2.917-.81,3.079-1.943,3.079-2.106-1.3-2.106-2.917" transform="translate(-117.698 -42.365)" fill-rule="evenodd"/>
        <path id="パス_10786" data-name="パス 10786" d="M566.236,193.153a1.38,1.38,0,0,1-.746-.219,6.474,6.474,0,0,0-6.413-.574,1.381,1.381,0,1,1-1.235-2.47,9.2,9.2,0,0,1,9.142.72,1.381,1.381,0,0,1-.748,2.542" transform="translate(-116.987 -39.689)"/>
        <path id="パス_10787" data-name="パス 10787" d="M581.728,273.932a1.379,1.379,0,0,1-1.377-1.324c-.5-12.336-4.993-21.187-6.2-22.253-1.623-.521-4.089-.376-6.932-.208a66.7,66.7,0,0,1-7.543.145c-5.754-.427-7.256-4.569-8.4-9.145-.959-4.313-1.449-7.477-1.974-11.5a1.38,1.38,0,1,1,2.737-.357c.516,3.944,1,7.044,1.924,11.221,1.315,5.261,2.583,6.779,5.884,7.024a64.782,64.782,0,0,0,7.209-.146c3.205-.189,5.976-.355,8.117.4,2.469.858,7.409,11.626,7.939,24.709a1.378,1.378,0,0,1-1.323,1.435c-.021,0-.038,0-.058,0m-7.473-23.54,0,0,0,0" transform="translate(-115.35 -47.899)"/>
        <path id="パス_10788" data-name="パス 10788" d="M549.5,224.984a1.382,1.382,0,0,1-1.375-1.27,19.865,19.865,0,0,0-1.154-5.488,9.481,9.481,0,0,0-1.228-1.929,7.567,7.567,0,0,1-2-4.521c-.162-2.387,1.638-3.536,3.083-4.46a12.515,12.515,0,0,0,1.74-1.257c.972-.762,1.488-1.45,1.176-5.186a1.38,1.38,0,1,1,2.751-.23c.348,4.16-.174,5.988-2.146,7.523a14.3,14.3,0,0,1-2.033,1.477c-1.493.953-1.861,1.292-1.812,2.041a5.375,5.375,0,0,0,1.447,2.954,11.573,11.573,0,0,1,1.529,2.44c1.021,2.036,1.362,5.972,1.4,6.414a1.38,1.38,0,0,1-1.266,1.486c-.038,0-.076,0-.112,0" transform="translate(-114.185 -41.869)"/>
        <path id="パス_10789" data-name="パス 10789" d="M552.547,197.186a1.383,1.383,0,0,1-1.37-1.216c-.47-3.931-1-8.385-.315-12.85a17.6,17.6,0,0,1,2.265-6.623,1.381,1.381,0,0,1,2.408,1.353,14.9,14.9,0,0,0-1.936,5.632c-.639,4.15-.13,8.4.321,12.159a1.38,1.38,0,0,1-1.206,1.535,1.332,1.332,0,0,1-.166.01" transform="translate(-115.612 -36.916)"/>
        <path id="パス_10790" data-name="パス 10790" d="M565.849,205.276a1.381,1.381,0,0,1-1.1-.54,4.285,4.285,0,0,0-4.547-1.341,1.38,1.38,0,0,1-1.027-2.563,6.984,6.984,0,0,1,7.764,2.222,1.381,1.381,0,0,1-1.093,2.221" transform="translate(-117.246 -42.09)"/>
        <path id="パス_10791" data-name="パス 10791" d="M598.249,209.715c-3.551,0-14.151-1.037-20.576-12.745a87.066,87.066,0,0,1-4.833-10.857c-3.109-7.979-5.281-12.892-10.319-12.892-.054,0-.105,0-.163,0a1.381,1.381,0,0,1-.024-2.761h.2c7.168,0,9.815,6.794,12.875,14.651a83.416,83.416,0,0,0,4.678,10.524c6.776,12.349,18.954,11.3,19.071,11.287a1.361,1.361,0,0,1,1.51,1.239,1.381,1.381,0,0,1-1.238,1.509c-.092.009-.512.047-1.185.047" transform="translate(-117.805 -35.797)"/>
        <path id="パス_10792" data-name="パス 10792" d="M600.333,210.075a1.383,1.383,0,0,1-.429-.069c-9.365-3.061-11.517-10.768-12.92-18.4-.132-.709-.259-1.484-.395-2.307-.7-4.254-1.571-9.549-4.291-14.083a1.38,1.38,0,0,1,2.368-1.42c2.991,4.986,3.95,10.806,4.648,15.056.132.8.257,1.559.385,2.254,1.606,8.735,3.844,13.916,11.062,16.275a1.381,1.381,0,0,1-.429,2.694" transform="translate(-122.241 -36.357)"/>
        <path id="パス_10793" data-name="パス 10793" d="M597.573,204.029a9.722,9.722,0,0,1-8.558-5.114,1.38,1.38,0,1,1,2.469-1.235,6.934,6.934,0,0,0,7.965,3.334,1.381,1.381,0,0,1,.718,2.667,9.994,9.994,0,0,1-2.594.348" transform="translate(-123.663 -41.353)"/>
        <path id="パス_10794" data-name="パス 10794" d="M639.016,233.047a1.38,1.38,0,0,1-1.352-1.109c-.641-3.19,1.167-5.137,2.762-6.854.421-.452.847-.909,1.232-1.4,2.767-3.631,4.37-6.942,3.159-11.249-.938-3.666-2.953-6.566-5.087-9.637a43.388,43.388,0,0,1-6.07-11.024c-2-5.819-3.174-9.779-4.117-12.962a87.912,87.912,0,0,0-5.55-14.931c-6.545-13.895-28.273-18.5-49.459-10.476a1.381,1.381,0,1,1-.979-2.582c22.53-8.528,45.779-3.307,52.936,11.882a90.2,90.2,0,0,1,5.7,15.322c.935,3.157,2.1,7.085,4.08,12.846A41.1,41.1,0,0,0,642,201.223c2.28,3.282,4.434,6.381,5.486,10.5,1.6,5.693-.8,9.929-3.643,13.653-.443.567-.921,1.082-1.391,1.589-1.559,1.679-2.425,2.712-2.079,4.433a1.38,1.38,0,0,1-1.355,1.652" transform="translate(-120.26 -30.815)"/>
        <path id="パス_10795" data-name="パス 10795" d="M542.2,236.819l-.059,0a1.379,1.379,0,0,1-1.321-1.436c.137-3.307-1.852-4.859-5.106-7.119-2.608-1.809-5.563-3.861-6.815-7.617-1.99-6.111.883-12.148,3.419-17.474.6-1.262,1.168-2.453,1.639-3.584,1.731-4.112,2.263-8.834,2.828-13.833.677-5.993,1.377-12.19,4.157-18.29,5.123-11.341,13.492-12.8,20.212-12.8a1.381,1.381,0,1,1,0,2.761c-6.57,0-13.261,1.354-17.7,11.177-2.6,5.7-3.275,11.679-3.928,17.458-.588,5.2-1.142,10.117-3.025,14.591-.5,1.189-1.078,2.41-1.694,3.7-2.313,4.859-4.935,10.368-3.289,15.422.958,2.876,3.294,4.5,5.767,6.213,3.045,2.113,6.5,4.509,6.289,9.5a1.38,1.38,0,0,1-1.378,1.323" transform="translate(-110.929 -32.48)"/>
        <path id="パス_10796" data-name="パス 10796" d="M265.55,172.816a4.542,4.542,0,0,1-.465-.024,3.851,3.851,0,0,1-3.138-2.217,19.339,19.339,0,0,1-1.632-5.108,47.274,47.274,0,0,0-2.793-9.031,27.375,27.375,0,0,1-1.74-15.744,1.381,1.381,0,1,1,2.718.49,25.034,25.034,0,0,0,1.566,14.18,49.988,49.988,0,0,1,2.949,9.523,16.689,16.689,0,0,0,1.4,4.442,1.111,1.111,0,0,0,.958.718c1.8.182,5.49-2.312,8.014-5.46a1.381,1.381,0,1,1,2.154,1.727c-2.152,2.685-6.494,6.5-9.987,6.5" transform="translate(-53.619 -29.307)"/>
        <path id="パス_10797" data-name="パス 10797" d="M258.116,134.559a1.374,1.374,0,0,1-.81-.263c-.085-.061-8.291-6.217-.873-17.724,6.9-10.7,18.146-20.373,29.024-15.433a1.381,1.381,0,0,1-1.142,2.515c-9.274-4.215-19.287,4.683-25.561,14.415-3.52,5.461-2.91,9.287-1.766,11.544.6-3.965,2.575-10.124,8.948-13a1.381,1.381,0,0,1,1.135,2.518c-7.887,3.556-7.578,13.887-7.574,13.991a1.381,1.381,0,0,1-1.38,1.436" transform="translate(-53.2 -20.96)"/>
        <path id="パス_10798" data-name="パス 10798" d="M345.75,129.793a1.367,1.367,0,0,1-.627-.152,1.38,1.38,0,0,1-.6-1.858c2.506-4.9-7.176-12.4-12.377-16.433-.611-.474-1.185-.918-1.7-1.33-8.864-6.938-27.857-12.357-32.521-7.849A1.38,1.38,0,1,1,296,100.188c6.28-6.072,26.972.483,36.147,7.663.519.411,1.085.849,1.689,1.317,6.646,5.152,16.692,12.936,13.143,19.873a1.379,1.379,0,0,1-1.23.752" transform="translate(-62.072 -20.537)"/>
        <path id="パス_10799" data-name="パス 10799" d="M316.534,149.246c-6.87,0-13.232-5.192-13.547-5.453a1.38,1.38,0,0,1,1.388-2.346c.527.207,13,4.952,20.7-5.964a1.381,1.381,0,0,1,2.257,1.591,18.708,18.708,0,0,1-16.183,8.271,12.563,12.563,0,0,0,8.372.676c4.1-1.219,6.335-2.768,9.236-6.386,2.2-2.721,5.118-5.793,8.209-5.377,1.738.231,3.125,1.5,4.124,3.768a1.38,1.38,0,1,1-2.526,1.112c-.4-.912-1.068-2.024-1.962-2.143-1.288-.157-3.213,1.3-5.694,4.371-3.265,4.074-5.931,5.915-10.563,7.291a12.164,12.164,0,0,1-3.807.589" transform="translate(-63.523 -28.186)"/>
        <path id="パス_10800" data-name="パス 10800" d="M348.856,160.218a1.38,1.38,0,0,1-1.179-2.1c2.431-4,5.815-5.932,8.534-7.485a19.393,19.393,0,0,0,3.414-2.251c2.271-2.078,1.021-6.047-1.307-8.726a1.381,1.381,0,1,1,2.085-1.811c3.263,3.756,4.684,9.279,1.087,12.573a21.559,21.559,0,0,1-3.91,2.613c-2.571,1.468-5.484,3.132-7.545,6.521a1.379,1.379,0,0,1-1.181.664" transform="translate(-72.97 -28.848)"/>
        <path id="パス_10801" data-name="パス 10801" d="M297.2,164.065a1.378,1.378,0,0,1-.708-.2c-.246-.148-6-3.7-4.371-11.811a1.381,1.381,0,0,1,2.707.544,8.755,8.755,0,0,0,1.413,7.292,16.1,16.1,0,0,1,6.535-9.727,1.38,1.38,0,1,1,1.544,2.289c-5.423,3.655-5.735,10.213-5.738,10.279a1.384,1.384,0,0,1-1.383,1.33" transform="translate(-61.285 -31.486)"/>
        <path id="パス_10802" data-name="パス 10802" d="M344.213,131.88a1.384,1.384,0,0,1-1.33-1.01c-.018-.066-1.876-6.48-6.2-6.151-1.588.155-3.787,1.244-6.334,2.505-5.552,2.749-13.158,6.514-21.338,3.325a1.38,1.38,0,1,1,1-2.572c7.041,2.744,13.733-.566,19.109-3.227,2.79-1.383,5.2-2.575,7.314-2.781,6.633-.55,9.013,7.808,9.11,8.162a1.383,1.383,0,0,1-1.331,1.748" transform="translate(-64.707 -25.608)"/>
        <path id="パス_10803" data-name="パス 10803" d="M304.416,139.7c-8.933,0-14.308-4.573-16.144-7.454a1.381,1.381,0,1,1,2.328-1.484c1.526,2.394,6.74,6.762,15.575,6.113a1.381,1.381,0,1,1,.2,2.754c-.669.048-1.323.072-1.957.072" transform="translate(-60.492 -27.326)"/>
        <path id="パス_10804" data-name="パス 10804" d="M285.7,172.93a1.42,1.42,0,0,1-.361-.047,11.32,11.32,0,0,1-7.287-5.72,13.253,13.253,0,0,1-.269-10.8c1.043-2.783,2.608-4.554,4.651-5.26,2.187-.754,4.772-.243,7.684,1.527a1.381,1.381,0,1,1-1.435,2.36c-2.173-1.322-3.973-1.751-5.346-1.277-1.228.425-2.228,1.644-2.969,3.621a10.541,10.541,0,0,0,.141,8.576,8.48,8.48,0,0,0,5.549,4.312,1.381,1.381,0,0,1-.359,2.714" transform="translate(-58.122 -31.66)"/>
        <path id="パス_10805" data-name="パス 10805" d="M288.048,167.2a1.38,1.38,0,0,1-1.373-1.255,3.846,3.846,0,0,0-1-2.624,1.4,1.4,0,0,1-.25-1.919,1.358,1.358,0,0,1,1.871-.315c.187.131,1.834,1.371,2.131,4.606a1.379,1.379,0,0,1-1.249,1.5,1.144,1.144,0,0,1-.127.006" transform="translate(-59.882 -33.776)"/>
        <path id="パス_10806" data-name="パス 10806" d="M337.35,170.968c.478-1.6.1-3.286-.857-3.572-1.123-.333-2.466.664-2.942,2.267s-.1,3.284.859,3.57c1.123.333,2.3-.711,2.94-2.266" transform="translate(-70.002 -35.14)" fill-rule="evenodd"/>
        <path id="パス_10807" data-name="パス 10807" d="M341.658,159.3a1.376,1.376,0,0,1-.944-.373,6.4,6.4,0,0,0-6.352-1.293,1.38,1.38,0,1,1-.859-2.624,9.127,9.127,0,0,1,9.1,1.9,1.381,1.381,0,0,1-.944,2.388" transform="translate(-69.836 -32.452)"/>
        <path id="パス_10808" data-name="パス 10808" d="M293.275,228.946a1.326,1.326,0,0,1-.335-.041,1.38,1.38,0,0,1-1.006-1.673c2.109-8.469,7.537-17.573,10.561-17.711,2.37-.115,4.543.618,7.281,1.544,1.759.595,3.752,1.269,6.235,1.869,3.23.833,4.99-.322,7.881-5.129a109.651,109.651,0,0,0,5.133-10.341,1.38,1.38,0,0,1,2.522,1.122,112.245,112.245,0,0,1-5.272,10.612c-2.541,4.227-5.273,7.872-10.934,6.416-2.583-.625-4.638-1.32-6.45-1.932-2.518-.851-4.343-1.465-6.179-1.405-1.411.644-6.049,7.384-8.1,15.624a1.38,1.38,0,0,1-1.338,1.047m9.353-16.667h0" transform="translate(-61.298 -41.295)"/>
        <path id="パス_10809" data-name="パス 10809" d="M340.21,193.737a1.365,1.365,0,0,1-.5-.094,1.38,1.38,0,0,1-.79-1.785c.165-.426,1.656-4.214,3.323-6a12.8,12.8,0,0,1,2.184-1.936c1.034-.788,2.011-1.533,2.263-2.38.307-.834.039-1.286-1.171-2.684a15.337,15.337,0,0,1-1.637-2.15c-1.375-2.217-1.341-4.152.155-7.945a1.38,1.38,0,0,1,2.568,1.013c-1.4,3.541-1.048,4.395-.367,5.494a12.927,12.927,0,0,0,1.368,1.781c1.15,1.33,2.583,2.985,1.7,5.363-.479,1.623-1.928,2.729-3.207,3.7a10.827,10.827,0,0,0-1.778,1.556,20.42,20.42,0,0,0-2.827,5.176,1.381,1.381,0,0,1-1.288.884" transform="translate(-71.154 -35.257)"/>
        <path id="パス_10810" data-name="パス 10810" d="M346.68,165.656a1.381,1.381,0,0,1-1.264-1.936c1.447-3.3,3.248-7.4,3.839-11.722A14.419,14.419,0,0,0,349,145.78a1.381,1.381,0,0,1,2.693-.612,17.329,17.329,0,0,1,.282,7.277c-.63,4.628-2.517,8.929-4.032,12.386a1.383,1.383,0,0,1-1.266.826" transform="translate(-72.513 -30.259)"/>
        <path id="パス_10811" data-name="パス 10811" d="M337.641,169.746a1.379,1.379,0,0,1-.856-.3,4.109,4.109,0,0,0-4.734-.006,1.38,1.38,0,1,1-1.729-2.153,6.882,6.882,0,0,1,8.176-.006,1.381,1.381,0,0,1-.857,2.463" transform="translate(-69.259 -34.847)"/>
        <path id="パス_10812" data-name="パス 10812" d="M535.056,304.358a5.25,5.25,0,0,1-4.762-3.06,1.381,1.381,0,1,1,2.47-1.235,2.633,2.633,0,0,0,3.538,1.278,3.666,3.666,0,0,0,2.307-4.466c-.526-1.751-2.737-2.715-4.877-3.648a20.95,20.95,0,0,1-2.953-1.469c-4.6-2.981-5.555-8.967-4.456-13.579,1.193-5.012,5.27-7.832,9.212-10.561,3.719-2.572,7.232-5,8.086-9.064.713-3.384-.712-6.55-2.22-9.9l-.379-.848a1.381,1.381,0,0,1,2.523-1.122l.375.837c1.547,3.44,3.3,7.341,2.4,11.6-1.082,5.138-5.218,8-9.217,10.767-3.677,2.542-7.15,4.946-8.1,8.928-.872,3.667-.2,8.373,3.272,10.621a18.8,18.8,0,0,0,2.556,1.256c2.46,1.074,5.524,2.41,6.417,5.388a6.456,6.456,0,0,1-3.934,7.825,6.145,6.145,0,0,1-2.263.45" transform="translate(-110.441 -51.631)"/>
        <path id="パス_10813" data-name="パス 10813" d="M653.124,270.132c-.02,0-.04,0-.061,0a1.38,1.38,0,0,1-1.32-1.439c.072-1.668-2.206-3.335-4.052-3.477-1.757-.135-3.618-.237-5.521-.341-8.708-.477-17.714-.97-22.744-4.623-6.323-4.595-8.689-8.8-8.729-15.505a60.54,60.54,0,0,1,.416-6.382c.461-4.592.9-8.93-.809-12.913a1.38,1.38,0,1,1,2.537-1.086c1.987,4.637,1.494,9.536,1.018,14.275a57.965,57.965,0,0,0-.4,6.089c.035,5.765,2.022,9.242,7.592,13.289,4.37,3.173,13.349,3.666,21.272,4.1,1.924.106,3.806.209,5.581.345,3.232.248,6.743,3.016,6.6,6.349a1.38,1.38,0,0,1-1.378,1.321" transform="translate(-128.14 -46.941)"/>
        <path id="パス_10814" data-name="パス 10814" d="M672.88,297.176a1.381,1.381,0,0,1-.883-2.443c5.683-4.719,5.583-19.038,2.106-23.259-2.2-2.675-5.667-4.634-9.015-6.529-6.451-3.651-13.763-7.79-12.386-17.853a1.381,1.381,0,0,1,2.737.375c-1.126,8.207,4.5,11.39,11.009,15.076,3.568,2.018,7.256,4.106,9.785,7.176,4.735,5.746,4.222,21.58-2.472,27.139a1.371,1.371,0,0,1-.881.318" transform="translate(-137.032 -51.639)"/>
        <path id="パス_10815" data-name="パス 10815" d="M249.584,196.443a1.381,1.381,0,0,1-.425-2.695c4.306-1.394,12.378-10.051,11.6-14.545a1.381,1.381,0,1,1,2.721-.472c1.126,6.5-8.581,16.061-13.47,17.643a1.377,1.377,0,0,1-.425.068" transform="translate(-52.123 -37.293)"/>
        <path id="パス_10816" data-name="パス 10816" d="M284.818,230.537a3.945,3.945,0,0,1-.953-.12c-2.617-.655-4.731-2.974-6.6-5.02a27.427,27.427,0,0,0-2.179-2.229c-3.4-2.917-7.1-5.631-10.674-8.257-1.994-1.464-3.988-2.929-5.947-4.435-1.083-.833-2.18-1.635-3.273-2.435a84.152,84.152,0,0,1-6.7-5.261c-.558-.5-2.5-2.739-1.83-4.494a2.2,2.2,0,0,1,2.251-1.35,1.381,1.381,0,0,1,.568,2.639,5.013,5.013,0,0,0,.859,1.153,80.593,80.593,0,0,0,6.481,5.084c1.112.813,2.226,1.627,3.327,2.475,1.943,1.494,3.92,2.946,5.9,4.4,3.617,2.655,7.356,5.4,10.837,8.385a29.287,29.287,0,0,1,2.422,2.465c1.6,1.758,3.418,3.749,5.227,4.2a.926.926,0,0,0,.823-.145c1.119-.773,1.979-3.5,2.249-5.8l.041-.308a12.966,12.966,0,0,0,.2-2.424,1.381,1.381,0,0,1,1.747-2.029c1.267.633,1.127,2.4.788,4.832l-.034.251c-.115.98-.822,5.955-3.423,7.75a3.669,3.669,0,0,1-2.108.672" transform="translate(-51.77 -41.357)"/>
        <path id="パス_10817" data-name="パス 10817" d="M146.594,354.234a1.382,1.382,0,0,1-1.349-1.089c-3.075-14.237,1.569-31.386,5.33-43.045,5.032-15.6,11.311-32.369,19.761-52.763,1.32-3.186,2.466-6.725,3.679-10.471,3.178-9.811,6.465-19.958,13.586-26.428,8.809-8.005,19.972-13.786,30.723-18.842.284-.133,1.369-.91,2.24-1.535,4.916-3.52,6.429-4.358,7.7-3.54a1.381,1.381,0,0,1-1.012,2.516,36.1,36.1,0,0,0-5.077,3.269A23.194,23.194,0,0,1,219.5,204.1c-10.557,4.964-21.5,10.626-30.041,18.386-6.577,5.976-9.748,15.768-12.815,25.235-1.231,3.8-2.393,7.388-3.756,10.676-8.42,20.324-14.675,37.023-19.684,52.553-3.663,11.357-8.194,28.028-5.258,41.616a1.38,1.38,0,0,1-1.351,1.672" transform="translate(-30.291 -41.209)"/>
        <path id="パス_10818" data-name="パス 10818" d="M190.036,357.009a1.381,1.381,0,0,1-1.273-1.913c4.159-9.955,32.093-68.862,37.445-72.034a1.38,1.38,0,0,1,1.409,2.374c-3.974,2.517-30.206,56.122-36.305,70.725a1.381,1.381,0,0,1-1.275.848" transform="translate(-39.618 -59.402)"/>
        <path id="パス_10819" data-name="パス 10819" d="M187.662,405.846a1.381,1.381,0,0,1-1.349-1.088c-.777-3.583-.582-8.467-.377-13.637.288-7.21.612-15.38-2.267-17.607a16.429,16.429,0,0,0-5.457-2.441,20.5,20.5,0,0,1-5.22-2.171,1.38,1.38,0,1,1,1.494-2.322,18.137,18.137,0,0,0,4.542,1.854,18.8,18.8,0,0,1,6.331,2.9c4.005,3.1,3.681,11.258,3.337,19.9-.19,4.77-.386,9.7.317,12.943a1.381,1.381,0,0,1-1.057,1.642,1.338,1.338,0,0,1-.294.032" transform="translate(-36.195 -76.936)"/>
        <path id="パス_10820" data-name="パス 10820" d="M326.318,336.8a1.366,1.366,0,0,1-.48-.086,1.38,1.38,0,0,1-.814-1.774c1.655-4.459,3.368-9.068,6.746-12.854a11.856,11.856,0,0,1,2.511-1.777,15.106,15.106,0,0,0,2.382-1.629c.081-1.206-1.142-5.75-2.227-9.777A189.364,189.364,0,0,1,330,289.71c-.574-3.644-1.034-7.388-1.48-11.011-1.605-13.057-3.265-26.557-10.536-37.862-2.038-3.169-5.483-5.5-8.815-7.758-1.542-1.044-3.138-2.124-4.562-3.27a13.81,13.81,0,0,1-2.816-3.756c-.861-1.456-1.838-3.105-2.842-3.478a1.381,1.381,0,1,1,.961-2.589c1.921.714,3.109,2.721,4.257,4.661a12.145,12.145,0,0,0,2.171,3.012c1.335,1.074,2.813,2.075,4.379,3.135,3.561,2.411,7.244,4.9,9.589,8.549,7.612,11.835,9.311,25.655,10.955,39.018.442,3.6.9,7.321,1.465,10.919A187.332,187.332,0,0,0,337.1,308.19c1.734,6.438,2.554,9.6,2.257,11.14-.237,1.234-1.543,2.076-3.653,3.349a13.3,13.3,0,0,0-1.876,1.251c-3.032,3.4-4.652,7.758-6.218,11.976a1.382,1.382,0,0,1-1.294.9" transform="translate(-62.591 -46.179)"/>
        <path id="パス_10821" data-name="パス 10821" d="M321.675,382.011a1.381,1.381,0,0,1-.146-2.753c14.6-1.582,55.929-14.52,65.736-18.1-2.148-1.483-2.912-5.606-2.918-5.648-.8-4.839-.641-9.393-.354-14.843.011-.2.077-.62.167-1.134.078-.447.253-1.447.3-2.108a40.93,40.93,0,0,0-5.026,1.12c-1.048.272-2.2.571-3.429.871-7.131,1.732-13.344,3-18.469,3.756-2.082.307-4.191.418-6.231.525a45.165,45.165,0,0,0-8.079.9,1.381,1.381,0,0,1-.634-2.688,48.172,48.172,0,0,1,8.569-.971c1.977-.1,4.02-.21,5.972-.5,5.041-.747,11.172-1.994,18.221-3.707,1.218-.3,2.352-.591,3.387-.86,4.652-1.208,6.773-1.759,7.949-.5.785.841.595,2.312.19,4.635-.062.36-.118.654-.13.808-.278,5.278-.432,9.681.322,14.246a8.559,8.559,0,0,0,1.592,3.7,30.564,30.564,0,0,0,.979-4.713,1.38,1.38,0,0,1,2.748.223c-.173,6.9-1,7.81-1.276,8.11-1.965,2.169-54.291,17.995-69.289,19.62-.05,0-.1.008-.15.008" transform="translate(-67.262 -70.278)"/>
        <path id="パス_10822" data-name="パス 10822" d="M319.381,376.62a1.38,1.38,0,0,1-1.224-2.015c2.376-4.592,4.106-45.953,4.407-67.818.025-1.739-.066-3.771-.163-5.923-.3-6.765-.647-14.431,2.061-19.665a1.381,1.381,0,0,1,2.452,1.27c-2.368,4.577-2.043,11.852-1.755,18.27.1,2.194.191,4.264.166,6.085-.168,12.217-1.537,62.9-4.716,69.049a1.383,1.383,0,0,1-1.228.746" transform="translate(-66.78 -58.896)"/>
        <path id="パス_10823" data-name="パス 10823" d="M535.812,360.658a1.383,1.383,0,0,1-1.371-1.216c-.373-3.113-1.739-4.861-3.321-6.884a23.351,23.351,0,0,1-2.755-4.123c-.547-1.109.1-2.529,2.207-5.971.2-.318.346-.561.405-.675,2.457-4.854,5.243-10.356,7.74-15.812,1.138-2.486,2.307-4.96,3.474-7.433,2.246-4.752,4.567-9.667,6.617-14.586,1.023-2.458,1.977-5.047,2.9-7.55,2.763-7.487,5.618-15.228,10.933-21.54,1.825-2.171,4.284-3.108,6.661-4.015a17.9,17.9,0,0,0,4.339-2.1,1.381,1.381,0,0,1,1.647,2.217,20.16,20.16,0,0,1-5,2.462c-2.144.818-4.167,1.591-5.535,3.213-5,5.945-7.774,13.455-10.454,20.719-.933,2.53-1.9,5.144-2.944,7.657-2.073,4.978-4.41,9.922-6.668,14.7-1.163,2.463-2.327,4.926-3.46,7.4-2.52,5.506-5.319,11.034-7.788,15.911-.071.139-.26.453-.513.868a22.718,22.718,0,0,0-1.943,3.589,22.241,22.241,0,0,0,2.311,3.364c1.683,2.152,3.423,4.377,3.888,8.255a1.383,1.383,0,0,1-1.206,1.536,1.33,1.33,0,0,1-.166.009" transform="translate(-110.918 -56.381)"/>
        <path id="パス_10824" data-name="パス 10824" d="M520.02,392.424c-3.469,0-6.661-1.278-9.752-2.517-.888-.356-1.773-.711-2.654-1.029-10.6-3.827-50.18-32.957-51.758-35.342-.017-.025-1.51-2.463-.9-3.658a1.489,1.489,0,0,1,1.221-.782,2.8,2.8,0,0,1,2.119,1.213c.038.043.081.094.127.144.035-.046.073-.1.116-.16,1.912-2.8,2.36-7.137,2.56-11.409a5.248,5.248,0,0,0-.33-1.362c-.361-1.114-1.035-3.188.761-4.186.972-.544,1.971-.359,8.034,3.71.3.205.53.356.639.425,3.154,1.984,13.255,7.274,23.021,12.387,13.751,7.2,20.339,10.694,21.351,11.622a1.381,1.381,0,0,1-1.862,2.04c-1.034-.881-11.519-6.371-20.77-11.215-9.815-5.141-19.964-10.455-23.209-12.5-.122-.077-.37-.243-.708-.469-2.416-1.62-3.865-2.509-4.73-2.979.036.111.07.218.1.31a6.763,6.763,0,0,1,.462,2.343c-.218,4.68-.739,9.473-3.04,12.839a3.953,3.953,0,0,1-1.37,1.321c7.156,5.964,39.789,29.748,49.1,33.11.912.329,1.824.694,2.742,1.063,3,1.2,6.11,2.437,9.216,2.308,4.916-.217,12.61-5.877,16.276-9.88a1.38,1.38,0,1,1,2.036,1.864c-3.95,4.316-12.205,10.512-18.19,10.775-.205.009-.409.013-.612.013" transform="translate(-95.511 -69.954)"/>
        <path id="パス_10825" data-name="パス 10825" d="M576.287,442.965a1.38,1.38,0,0,1-1.364-1.168c-2.775-17.719-8.589-42.771-12.651-57.345a49.606,49.606,0,0,0-4.486-10.071c-2.777-5.155-5.648-10.485-5.381-17.348.279-7.129,2.284-15.554,4.411-23.6.329-1.25.671-2.486,1.01-3.715,2.027-7.355,3.942-14.3,2.943-21.948a1.38,1.38,0,1,1,2.737-.359c1.074,8.2-.914,15.409-3.019,23.041-.335,1.218-.674,2.445-1,3.687-2.086,7.891-4.051,16.14-4.32,23-.238,6.109,2.332,10.881,5.053,15.93a51.642,51.642,0,0,1,4.713,10.639c3.387,12.147,9.568,37.527,12.722,57.661a1.382,1.382,0,0,1-1.152,1.577,1.4,1.4,0,0,1-.214.017" transform="translate(-116.002 -64.304)"/>
        <path id="パス_10826" data-name="パス 10826" d="M707.845,421.62a1.38,1.38,0,0,1-1.378-1.326c-.628-15.612-3.823-35.679-5.791-43.581-2.427-9.738-33.493-94.238-44.75-100.59a1.38,1.38,0,0,1,1.356-2.4c12.6,7.108,43.726,92.9,46.075,102.326,2,8.015,5.234,28.345,5.87,44.14a1.381,1.381,0,0,1-1.325,1.434c-.019,0-.037,0-.056,0" transform="translate(-137.597 -57.443)"/>
        <path id="パス_10827" data-name="パス 10827" d="M679.768,440.61a1.383,1.383,0,0,1-1.37-1.216c-1.282-10.69-7.477-32.723-9.342-37.18-6.472-15.476-38.726-66.954-41.781-69.088a1.344,1.344,0,0,1-.616-1.82,1.411,1.411,0,0,1,1.875-.633c4.247,2.026,37.932,58.19,43.07,70.476,1.958,4.684,8.2,26.8,9.535,37.915a1.382,1.382,0,0,1-1.206,1.536,1.321,1.321,0,0,1-.166.009" transform="translate(-131.569 -69.412)"/>
        <path id="パス_10828" data-name="パス 10828" d="M542.515,326a13.085,13.085,0,0,1-8.458-3.3,8.845,8.845,0,0,1-3.143-8.292,1.381,1.381,0,1,1,2.718.488,6.3,6.3,0,0,0,2.271,5.749c2.349,2.109,5.9,3.1,8.433,2.349a1.381,1.381,0,0,1,.777,2.65,9.264,9.264,0,0,1-2.6.355" transform="translate(-111.464 -65.788)"/>
        <path id="パス_10829" data-name="パス 10829" d="M681.927,428.18a1.388,1.388,0,0,1-.616-.145c-8.512-4.257-10.489-13.932-12.234-22.469-.367-1.8-.714-3.493-1.109-5.073a1.38,1.38,0,1,1,2.677-.672c.412,1.639.763,3.365,1.137,5.192,1.62,7.92,3.452,16.9,10.764,20.552a1.381,1.381,0,0,1-.619,2.616" transform="translate(-140.265 -83.743)"/>
        <path id="パス_10830" data-name="パス 10830" d="M587.549,304.2q-.437,0-.886-.034a8.217,8.217,0,0,1-6.279-3.474c-4.933-6.8-1.714-20.854-1.33-22.434.078-.323.164-.725.26-1.174.611-2.842,1.208-5.3,2.334-6.546a1.382,1.382,0,1,1,2.052,1.85c-.724.8-1.35,3.713-1.686,5.276-.1.475-.194.9-.277,1.244-1.191,4.911-2.539,15.444.883,20.162a5.5,5.5,0,0,0,4.259,2.342c4.433.341,7.865-2.752,11.271-6.232A167.581,167.581,0,0,0,612.118,278.7c1.534-2.038,4.652-5.791,6.371-7.574a1.381,1.381,0,0,1,1.988,1.917c-1.627,1.686-4.7,5.382-6.153,7.318a170.474,170.474,0,0,1-14.2,16.755c-2.79,2.851-6.935,7.087-12.575,7.088" transform="translate(-121.311 -56.717)"/>
        <path id="パス_10831" data-name="パス 10831" d="M406.691,349.926a1.381,1.381,0,0,1-.935-2.4c1.49-1.368,3.786-3.253,6.007-5.077,2.792-2.29,5.679-4.659,6.9-5.946.813-.858,1.621-1.618,2.334-2.288,1.47-1.383,2.632-2.474,3.079-3.644,1.347-3.532.359-7.958-.435-11.513a22.224,22.224,0,0,1-.73-4.531,33.259,33.259,0,0,1,.95-5.49c.181-.8.344-1.522.433-2.026.047-.263.137-.627.246-1.056.581-2.285.635-3.37.5-3.853a18.342,18.342,0,0,0-1.349,2.448c-.22.456-.4.811-.507.979a29.351,29.351,0,0,0-2.858,5.224,16.845,16.845,0,0,0-.717,3.7c-.293,2.364-.626,5.044-2.238,6.991a1.38,1.38,0,1,1-2.126-1.761c1.1-1.325,1.364-3.483,1.623-5.57a19,19,0,0,1,.878-4.34,31.363,31.363,0,0,1,3.126-5.75c.073-.12.185-.363.329-.665.954-1.987,2.392-4.987,4.57-4.17,3.049,1.157,2.008,5.253,1.448,7.451-.089.348-.166.643-.2.857-.1.536-.266,1.3-.458,2.15a33.863,33.863,0,0,0-.882,4.918,21.488,21.488,0,0,0,.664,3.9c.828,3.708,1.962,8.79.319,13.1-.673,1.763-2.107,3.11-3.767,4.671-.7.658-1.454,1.367-2.221,2.176-1.339,1.413-4.162,3.73-7.151,6.182-2.191,1.8-4.457,3.658-5.889,4.975a1.375,1.375,0,0,1-.934.364" transform="translate(-85.115 -62.8)"/>
        <path id="パス_10832" data-name="パス 10832" d="M454.091,344.735a1.38,1.38,0,0,1-.766-.232c-1.979-1.319-3.961-2.573-5.942-3.824-3.236-2.047-6.583-4.161-9.851-6.54-5.724-4.167-6.149-11.906-5.971-17.363a8.014,8.014,0,0,0-.745-2.858,11.3,11.3,0,0,1-.961-3.845c0-.246-.023-.576-.047-.961-.164-2.828-.469-8.094,2.948-9.178,2.268-.716,3.206,1.3,3.56,2.055a10.512,10.512,0,0,1,.819,3.492,9.552,9.552,0,0,0,.423,2.263c.3.809.535,1.7.766,2.568a17.447,17.447,0,0,0,1.182,3.5,20.6,20.6,0,0,0,5.163,5.489,1.38,1.38,0,1,1-1.733,2.149,22.84,22.84,0,0,1-5.867-6.341,19.483,19.483,0,0,1-1.413-4.084c-.222-.841-.434-1.635-.687-2.322a11.869,11.869,0,0,1-.577-2.921,8.13,8.13,0,0,0-.547-2.561,6.65,6.65,0,0,0-.313-.618c-1.295.649-1.048,4.922-.964,6.354.024.433.045.8.049,1.08a9.026,9.026,0,0,0,.779,2.9,10.049,10.049,0,0,1,.926,3.937c-.157,4.831.173,11.645,4.836,15.042,3.2,2.326,6.5,4.417,9.7,6.438,2,1.265,4,2.53,6,3.863a1.38,1.38,0,0,1-.766,2.529" transform="translate(-90.241 -62.954)"/>
        <path id="パス_10833" data-name="パス 10833" d="M456.945,325.192a1.388,1.388,0,0,1-.654-.164,13.316,13.316,0,0,1-4.821-4.11,36.573,36.573,0,0,1-4.539-7.9,76.457,76.457,0,0,1-3.894-12.422c-.437-1.766-.848-3.434-1.342-5.1a70.412,70.412,0,0,1-1.819-9.409c-.273-1.854-.532-3.6-.852-5.231-.472-2.4-.987-4.946-1.635-7.379-.009-.039-.02-.087-.03-.141a6.832,6.832,0,0,0-.308,1.123,24.087,24.087,0,0,0,.177,7.022c.143,1.191.29,2.421.354,3.638.03.581.064,1.159.1,1.735a39.99,39.99,0,0,1-.2,9.527,1.38,1.38,0,1,1-2.718-.483,37.359,37.359,0,0,0,.164-8.879c-.036-.584-.07-1.17-.1-1.758-.058-1.123-.194-2.255-.337-3.451a26.515,26.515,0,0,1-.153-7.836c.382-2.146,1.6-4.531,3.828-4.206,1.612.241,1.8,2.044,1.881,2.815.009.09.017.17.026.229.66,2.467,1.185,5.066,1.666,7.511.333,1.692.6,3.473.874,5.361a68.423,68.423,0,0,0,1.736,9.027c.511,1.727.931,3.425,1.375,5.22a74.294,74.294,0,0,0,3.753,12,33.762,33.762,0,0,0,4.177,7.284A10.667,10.667,0,0,0,457.6,322.6a1.381,1.381,0,0,1-.656,2.6" transform="translate(-91.16 -56.646)"/>
        <path id="パス_10834" data-name="パス 10834" d="M433.651,298.317a1.417,1.417,0,0,1-.243-.021,1.38,1.38,0,0,1-1.117-1.6,15.468,15.468,0,0,0,0-3.724c-.056-.728-.111-1.452-.121-2.155a32.933,32.933,0,0,1,.906-7.142c.156-.769.315-1.544.456-2.335a1.38,1.38,0,1,1,2.718.483c-.145.814-.307,1.612-.469,2.4a30.292,30.292,0,0,0-.851,6.549c.009.649.061,1.316.112,1.986a17.625,17.625,0,0,1-.032,4.417,1.382,1.382,0,0,1-1.358,1.139" transform="translate(-90.755 -58.842)"/>
        <path id="パス_10835" data-name="パス 10835" d="M424.936,298.624a1.42,1.42,0,0,1-.243-.021,1.38,1.38,0,0,1-1.117-1.6c1.135-6.378,2.692-13.135,4.625-20.083a12.747,12.747,0,0,0,.246-1.308c.224-1.416.5-3.177,1.58-4.286a2.309,2.309,0,0,1,2.453-.613,3.483,3.483,0,0,1,2.141,2.729,1.381,1.381,0,1,1-2.746.29.677.677,0,0,0-.085-.167,9.328,9.328,0,0,0-.615,2.477,14.9,14.9,0,0,1-.314,1.617c-1.911,6.864-3.447,13.533-4.567,19.825a1.381,1.381,0,0,1-1.358,1.139" transform="translate(-88.946 -56.822)"/>
        <path id="パス_10836" data-name="パス 10836" d="M404.547,328.362a1.381,1.381,0,0,1-.621-2.614c3.176-1.6,5.454-3.48,6.251-5.171a83.768,83.768,0,0,0,5.456-17.468c.123-.559.23-1.048.324-1.449,1.625-6.992,4.318-16.787,6.861-24.957,2.823-9.08,4.108-10.245,5.091-10.624a2.046,2.046,0,0,1,2.1.3c1.659,1.364,1.033,5.374,1.025,5.415a1.38,1.38,0,0,1-2.718-.483,9.705,9.705,0,0,0,.054-1.661,53.452,53.452,0,0,0-2.917,7.874c-2.525,8.112-5.2,17.831-6.808,24.761-.092.393-.2.869-.316,1.416a86.141,86.141,0,0,1-5.655,18.052c-1.372,2.914-4.841,5.122-7.511,6.462a1.376,1.376,0,0,1-.618.147" transform="translate(-84.665 -55.843)"/>
        <path id="パス_10837" data-name="パス 10837" d="M331.1,200.262c-2.511,0-4.681-1.963-6.291-3.418-.337-.3-.655-.592-.948-.835a1.38,1.38,0,1,1,1.761-2.126c.321.265.669.579,1.039.913,1.4,1.265,3.158,2.839,4.629,2.7a1.381,1.381,0,0,1,.26,2.749c-.151.014-.3.021-.449.021" transform="translate(-67.906 -40.649)"/>
        <path id="パス_10838" data-name="パス 10838" d="M555.479,232.311a1.381,1.381,0,0,1-.13-2.755l.4-.037c2.1-.194,5.272-.487,6.49-1.962a1.381,1.381,0,0,1,2.131,1.759c-1.951,2.361-5.812,2.717-8.367,2.952l-.389.036c-.044,0-.088.006-.132.006" transform="translate(-116.361 -47.682)"/>
        <path id="パス_10839" data-name="パス 10839" d="M436.139,258.063h-.021a1.381,1.381,0,0,1-1.36-1.4l.144-9.395a1.381,1.381,0,0,1,1.38-1.36h.021a1.381,1.381,0,0,1,1.36,1.4l-.144,9.4a1.381,1.381,0,0,1-1.38,1.359" transform="translate(-91.299 -51.64)" fill="#fff"/>
        <path id="パス_10840" data-name="パス 10840" d="M451.428,262.517a1.381,1.381,0,0,1-1.213-2.036l4.46-8.273a1.38,1.38,0,1,1,2.43,1.31l-4.46,8.274a1.378,1.378,0,0,1-1.216.725" transform="translate(-94.51 -52.811)" fill="#fff"/>
        <path id="パス_10841" data-name="パス 10841" d="M465.349,271.771a1.38,1.38,0,0,1-.88-2.444l7.244-5.989a1.38,1.38,0,0,1,1.758,2.128l-7.244,5.989a1.368,1.368,0,0,1-.878.317" transform="translate(-97.433 -55.235)" fill="#fff"/>
        <path id="パス_10842" data-name="パス 10842" d="M473.547,285.549a1.381,1.381,0,0,1-.48-2.675l8.811-3.268a1.381,1.381,0,0,1,.96,2.589l-8.81,3.268a1.368,1.368,0,0,1-.48.086" transform="translate(-99.155 -58.699)" fill="#fff"/>
        <path id="パス_10843" data-name="パス 10843" d="M486.717,302.439h-.025l-9.4-.178a1.381,1.381,0,0,1-1.355-1.406,1.357,1.357,0,0,1,1.406-1.355l9.4.178a1.381,1.381,0,0,1-.026,2.761" transform="translate(-99.948 -62.895)" fill="#fff"/>
        <path id="パス_10844" data-name="パス 10844" d="M482.822,320.569a1.376,1.376,0,0,1-.576-.126l-8.541-3.925a1.38,1.38,0,1,1,1.154-2.507l8.541,3.924a1.381,1.381,0,0,1-.578,2.635" transform="translate(-99.309 -65.915)" fill="#fff"/>
        <path id="パス_10845" data-name="パス 10845" d="M471.017,336.543a1.377,1.377,0,0,1-1.009-.438l-6.418-6.865a1.38,1.38,0,1,1,2.016-1.884l6.419,6.865a1.381,1.381,0,0,1-1.009,2.323" transform="translate(-97.276 -68.653)" fill="#fff"/>
        <path id="パス_10846" data-name="パス 10846" d="M421.568,262.517a1.382,1.382,0,0,1-1.217-.725l-4.458-8.274a1.38,1.38,0,1,1,2.431-1.309l4.458,8.273a1.38,1.38,0,0,1-.561,1.87,1.366,1.366,0,0,1-.653.166" transform="translate(-87.303 -52.811)" fill="#fff"/>
        <path id="パス_10847" data-name="パス 10847" d="M406.907,271.771a1.374,1.374,0,0,1-.879-.317l-7.241-5.989a1.38,1.38,0,1,1,1.759-2.127l7.242,5.989a1.381,1.381,0,0,1-.881,2.444" transform="translate(-83.64 -55.235)" fill="#fff"/>
        <path id="パス_10848" data-name="パス 10848" d="M398.293,285.549a1.368,1.368,0,0,1-.48-.086L389,282.195a1.381,1.381,0,0,1,.96-2.589l8.813,3.268a1.381,1.381,0,0,1-.48,2.675" transform="translate(-81.501 -58.699)" fill="#fff"/>
        <path id="パス_10849" data-name="パス 10849" d="M384.965,302.439a1.381,1.381,0,0,1-.025-2.761l9.4-.178a1.381,1.381,0,0,1,.053,2.761l-9.4.178Z" transform="translate(-80.553 -62.895)" fill="#fff"/>
        <path id="パス_10850" data-name="パス 10850" d="M389.091,320.569a1.38,1.38,0,0,1-.577-2.635l8.538-3.924a1.38,1.38,0,1,1,1.153,2.507l-8.538,3.925a1.375,1.375,0,0,1-.576.126" transform="translate(-81.419 -65.915)" fill="#fff"/>
        <path id="パス_10851" data-name="パス 10851" d="M401.459,336.543a1.38,1.38,0,0,1-1.009-2.323l6.42-6.865a1.38,1.38,0,1,1,2.017,1.884l-6.419,6.865a1.375,1.375,0,0,1-1.009.438" transform="translate(-84.017 -68.653)" fill="#fff"/>
        <path id="パス_10852" data-name="パス 10852" d="M480.319,103.184c-2.185,2.608-4.023,4.379-4.785,4.706-2.409,1.035-26.053-7.805-28.4-18.227-1.579-7.01,3.321-14.072,10.283-13.533a18.93,18.93,0,0,1,10.571,4.3s2.932-6.281,7.605-9.353c5.018-3.3,14.686-.845,16.274,6.2,1.3,5.765-3.019,14.171-7.588,20.724,0,0-2.708,3.691-3.96,5.183" transform="translate(-93.836 -14.621)" fill="#f68f80" fill-rule="evenodd"/>
        <path id="パス_10853" data-name="パス 10853" d="M539.957,72.544a15.3,15.3,0,0,1-4.57.953c-1.8-.3-12.3-14.367-9.756-21.347,1.714-4.694,7.237-6.981,11.105-4.047a13.167,13.167,0,0,1,4.568,6.49s4.078-2.571,7.968-2.61c4.175-.041,8.907,5.031,7.186,9.751-1.41,3.861-7.1,7.153-12.235,9.267,0,0-2.973,1.14-4.266,1.543" transform="translate(-110.299 -9.827)" fill="#f68f80" fill-rule="evenodd"/>
        <path id="パス_10854" data-name="パス 10854" d="M468.081,17.039a11.211,11.211,0,0,1-2.295,2.519c-1.193.592-13.426-3.231-14.906-8.45-1-3.51,1.292-7.227,4.836-7.147a9.613,9.613,0,0,1,5.479,1.883A13.169,13.169,0,0,1,464.789.892c2.452-1.812,7.421-.838,8.423,2.691.82,2.888-1.135,7.27-3.269,10.719,0,0-1.27,1.947-1.862,2.738" transform="translate(-94.636 0)" fill="#f68f80" fill-rule="evenodd"/>
      </g>
    </g>
  </g>
</svg>
