<svg id="グループ_4717" data-name="グループ 4717" xmlns="http://www.w3.org/2000/svg" xmlns:xlink="http://www.w3.org/1999/xlink" width="287.884" height="308.051" viewBox="0 0 287.884 308.051">
  <defs>
    <clipPath id="clip-path">
      <rect id="長方形_1050" data-name="長方形 1050" width="287.884" height="308.051" fill="none"/>
    </clipPath>
  </defs>
  <path id="パス_9442" data-name="パス 9442" d="M437.618,557.466l20.154,1.1,10-.323,4.707.14,15.307-3.4,79.669,16.346,4.532,2.086,9.895,2.66,10.622,3.656,6.514,3.339,6,4.234,4.83,4.711,3.209,5.842,2.286,7.371,2.3,10.639,4.31,27.526,2.691,11.242-6.42,5.073-5.157,2.524-5.432,2.326L582.8,670.641l-4.022,11.891-4.3,11.708-2.948,9.622-1.746,7.72-.461,7.562,1.582,10.133,3.133,11.591,2.559,10.456-123.171-.272-.126-10.856-.793-14.3-2.187-21.677-1.646-10.373-2.619-11.939-1.456-10.746-.214-9.734.442-6,1.1-5.316,3.485-10.721,5.6-13.205-3.176-3.748-7.03-3.659-7.023-2.285-3.8-1.452-2.673-3.325-1.769-4.564-.571-4.622Z" transform="translate(-343.526 -444.445)" fill="#fff" fill-rule="evenodd"/>
  <g id="グループ_4718" data-name="グループ 4718" transform="translate(0 0)">
    <g id="グループ_4717-2" data-name="グループ 4717" transform="translate(0 0)" clip-path="url(#clip-path)">
      <path id="パス_9443" data-name="パス 9443" d="M657.2,12.2c5.448,1.408,8.437-.232,14.207,2.43s9.976,4.188,18.417,15.662a47.532,47.532,0,0,1,5.056,12.881c1.663,8.537,1.124,17.2,3.619,25.59,3.829,12.795,7.97,19.67,8.213,25.027a29.942,29.942,0,0,1-.887,6.578c-1.115,3.871-3,7.574-2.5,11.657.274,2.219,1.6,4.519,3.03,5.336,2.309,1.313-3.392,2.642-5.373,2.016a16.436,16.436,0,0,0,4.3,6.8c3.763,3.619,9.647,6.772,12.639,10.791,2.381,3.2,2.57,6.891,1.661,7.076s-4.017-2.15-8.388-3.722c-4.54-1.632-10.923-3.268-15.259-4.609-3.222-1-4.877-1.854-6.11-2.314-1.309-.487-.446,9.8,1.081,13.047,3.6,7.637,8.992,15.912,7.845,27.823-.424,4.41-4.117,10.08-8.183,14.595-5.171,5.742-10.949,10.216-11.39,14.408a15.082,15.082,0,0,0,1.167,7.789c.735,1.372,2.3,1.612,1.96,2.533-.252.694-1.876,1.258-3.244,1.341a20.7,20.7,0,0,1-4.429-.477,7.971,7.971,0,0,1-4.914-1.124c-2.949-1.9-6.095-6.011-5.436-10.337a22.141,22.141,0,0,1,3.064-7.177c2.205-3.375,4.858-5.8,6.642-9.414.958-1.939,1.933-4.776,1.772-6.431-.123-1.247-.494-2.941-.951-2.816-.407.108-.195,2.275-1.645,4.869a11.873,11.873,0,0,1-4.056,4.541,8.306,8.306,0,0,1-11.332-4.86c-.178-1.228,3.009,1.963,5.194,1.358,2.1-.582,3.209-4.959,2.955-6.145-1.1-5.145-5.526-11.405-8.331-16.052a39.322,39.322,0,0,1-3.524-7.778c-9.4-24.3-37.29-11.932-37.58-11.171-.406,1.069.062,5.945,1.583,11.1,1.5,5.085,4.042,10.415,5.8,16.057,2.21,7.077,1.227,12.987.294,15.471a26.853,26.853,0,0,1-5,7.208c-4.412,4.3-10.456,8.394-13.66,14.281-1.249,2.3-1.673,6.593-.554,9.076.869,1.93,3.466,2.236,2.222,3.042a3.99,3.99,0,0,1-3.419.608,54.268,54.268,0,0,1-10.476-3.868c-2.075-1.045-7.977-4.1-6.959-11.149.587-4.068,2.573-8.153,5.048-12.631,2.033-3.679,4.54-7.909,5.64-10.139.985-2-.628-2.677-.9-2.564a17.765,17.765,0,0,1-3.2,1.744,7.391,7.391,0,0,1-5.353-.336,13.836,13.836,0,0,1-4.969-5.417,14.928,14.928,0,0,1-1.333-5.1,10.951,10.951,0,0,0,1.867,3.3c1.053,1.092,2.874,1.364,4.121,1.693,1.649.435,3.773-3,4-3.533.982-2.306,1.031-5.765-.023-9.28a45.77,45.77,0,0,0-4.65-9.792,32.735,32.735,0,0,1-2.855-5.781c-1.354-3.564-1.911-7.993-.221-11.981,2.785-6.571,8.679-11.562,12.939-15.742,2.877-2.822,5.086-6.063,4.8-6.171-2.212-.85-2.987-.341-2.386-2.38a14,14,0,0,0,.629-4.471c-.822-2.933-4.037-7.565-6.521-10.2-2.677-2.856-4.984-6.057-5.412-8.757-1.958-10.2,1.284-9.563,6.9-22.315,3.2-7.581,10.472-31.556,14.853-38.438a46.1,46.1,0,0,1,11.976-12.591c5.614-3.921,14.058-5.8,21.386-4.881,6.716.88,11.709,3.617,14.541,4.225" transform="translate(-465.473 -6.204)" fill="#b96952" fill-rule="evenodd"/>
      <path id="パス_9444" data-name="パス 9444" d="M738.244,230.567s-6.93,2.187-11.3-2.843a59.972,59.972,0,0,1-8.41-12.935c-1.648-3.537-2.318-7.432-3.537-10.079-2.829-6.564-1.05-17.325-1.054-20.2-.013-8.627,5.775-12.124,6.645-15.761.3-1.416,2.977-7.118,4.2-9.908,1.207-2.585,7.4-6.122,12.914-5.737,3.388.236,6.733-.089,9.512,1.242,2.251,1.078,4.147,3.674,5.24,5.128,2.62,3.674,9.51,22.639,9.51,22.639s6.934,9.521,8.893,10.89c3.126,2.272,3.2,1.25,1.939-1.3s4.734-6.036,4.734-6.036,1.854-.076,4.321-.109c5.327.166,6.3,3.931,6.359,5.989.1,10.276-11,13.4-11,13.4s-9.5,11.906-19.246,18.311a47.7,47.7,0,0,1-19.716,7.309" transform="translate(-571.296 -122.585)" fill="#ffe4ce" fill-rule="evenodd"/>
      <path id="パス_9445" data-name="パス 9445" d="M761.625,446.159l3.941.208,3.3-.15.777-5.465-.67-8.761L798.2,414.51l15.378-9.778-.74,4.437.223,6.134.617,4.666-2.631,8.927-4.245,8.07-5.681,9.679-3.577,7.226-2.335,8.315.3,8.754-3.312,2.371-4.783,2.208-5.155.724-5.46-.022-6.36-1.668-6.206-3.952-4.552-5.887-1.452-5.58.9-6.458Z" transform="translate(-607.201 -324.117)" fill="#ffe4ce" fill-rule="evenodd"/>
      <path id="パス_9446" data-name="パス 9446" d="M99.841,208.352l-14.589-4.895-14.281-3.622-10.293-2.342L49.5,195,39,191.773l-8.2-3.195-9.934-5.328-6.4-4.39-7.174-6.8-2-3.274-.581-2.745,1.43-3.837,2.372-3.293,6.116-5.885,6.4-5.318,6.621-4.911,9.937-4.634,13.551-4.491,20.13-6.753,17.194-5.8,13.767-4.9,11.312-4.648,8.565-4.379,2.868-4.548,2.762-5.657L131.9,84l3.281-7.675,3.579-5.909,3.86-3.969,4.741-2.731,5.926-1.789,9.193-1.811L171,58.643l3.791-.355.81,1.54,1.567.246.071,1.918-2.727,2.3-5.05,2.782-8.315,4.281-3.21,4.531-3.963,7.5,10.449-5.512,8.793-.773,3.613-.724,1.883.758L178.6,78.9l-2.251,2.53-3.294,1.458-4.873,1.307-4.331,1.541-3.466,2.194-3.238,3.919-5.048,8.942-3.679,6.913-3.146,4.827-3.953,3.538-5.352,3.138-7.48,3.764L92.141,147.193,78.09,157.781l10.619,1.906,8.989.192a69.926,69.926,0,0,1,5.552,23.046c.536,12.118-3.409,25.427-3.409,25.427" transform="translate(-3.771 -46.678)" fill="#ffe4ce" fill-rule="evenodd"/>
      <path id="パス_9447" data-name="パス 9447" d="M1198.363,1086.352a39.914,39.914,0,0,0,6.149.142c1.593-.267,6.811-.7,8.471-1.006s6.459-.651,8.082-1.355,5.309-1.58,6.764-2.283,6.934-3.678,6.934-3.678l.9,15.539,2.08,18.223,2.088,17.339,2.292,15.7,2.327,13.678,2.226,11.649-31.913.142Z" transform="translate(-959.669 -863.418)" fill="#ffe4ce" fill-rule="evenodd"/>
      <path id="パス_9448" data-name="パス 9448" d="M731.678,367.934a13.3,13.3,0,0,1-3.123-.314c-4.022-.962-9.385-6.665-13.337-14.188a52.71,52.71,0,0,1-5.657-18.263,53.575,53.575,0,0,1-.048-9.413l.1-1.813a1.116,1.116,0,0,1,1.193-1.08,1.137,1.137,0,0,1,1.079,1.193l-.1,1.823a46.314,46.314,0,0,0,5.443,26.485c4.026,7.665,9.017,12.362,11.867,13.044,2.859.713,11.474.292,23.67-6.4,6.731-3.65,11.62-10.267,11.669-10.334a1.138,1.138,0,0,1,1.838,1.343,42.505,42.505,0,0,1-12.417,10.989c-9.912,5.437-17.633,6.923-22.177,6.923" transform="translate(-568.042 -258.554)" fill="#571519"/>
      <path id="パス_9449" data-name="パス 9449" d="M788.559,295.994a1.131,1.131,0,0,1-.577-.158c-.466-.275-4.544-2.786-4.3-6.25a4.564,4.564,0,0,1,1.823-3.133,4.958,4.958,0,0,0,1.924-3.44,20.918,20.918,0,0,0-.966-5.782,1.137,1.137,0,1,1,2.187-.627,22.836,22.836,0,0,1,1.045,6.624,7.221,7.221,0,0,1-2.638,4.89c-.716.667-1.062,1.014-1.1,1.627-.123,1.759,2.262,3.579,3.19,4.132a1.138,1.138,0,0,1-.581,2.117" transform="translate(-627.575 -220.85)" fill="#571519"/>
      <path id="パス_9450" data-name="パス 9450" d="M752.938,293.808c.174-1.487,1.152-.934,2.768-.806s2.767-.094,2.638,1.106c-.24,2.24-1.181,3.9-2.83,3.987-1.635-.114-2.862-1.846-2.576-4.287" transform="translate(-602.932 -234.476)" fill="#571519" fill-rule="evenodd"/>
      <path id="パス_9451" data-name="パス 9451" d="M739.938,287.724a1.13,1.13,0,0,1-.513-.123c-3.867-1.957-5.9-1.28-7.1-.6a1.138,1.138,0,1,1-1.127-1.977c2.586-1.475,5.614-1.3,9.253.545a1.138,1.138,0,0,1-.515,2.153" transform="translate(-585.097 -227.464)" fill="#571519"/>
      <path id="パス_9452" data-name="パス 9452" d="M887.793,302.668c.106-1.312-1.17-1.1-2.587-1.4-1.635-.115-3.02-.806-3.107.593-.125,2,.941,4.173,2.357,4.477,1.635.115,3.175-1.667,3.337-3.668" transform="translate(-706.392 -241.042)" fill="#571519" fill-rule="evenodd"/>
      <path id="パス_9453" data-name="パス 9453" d="M868.163,296.82a1.133,1.133,0,0,1-.759-.291c-1.353-1.213-5.651-2.484-7.744-.976a1.138,1.138,0,0,1-1.332-1.846c3.21-2.314,8.682-.586,10.594,1.127a1.138,1.138,0,0,1-.759,1.985" transform="translate(-686.986 -234.311)" fill="#571519"/>
      <path id="パス_9454" data-name="パス 9454" d="M1026.4,326.512a1.138,1.138,0,0,1-.158-2.264,12.272,12.272,0,0,0,10.014-8.9c.91-3,.423-5.7-1.3-7.244-1.78-1.594-4.635-1.721-7.83-.353a1.138,1.138,0,1,1-.9-2.092c4.044-1.732,7.778-1.459,10.245.75,2.4,2.147,3.13,5.731,1.962,9.588a14.522,14.522,0,0,1-11.875,10.5,1.082,1.082,0,0,1-.162.012" transform="translate(-821.048 -243.874)" fill="#571519"/>
      <path id="パス_9455" data-name="パス 9455" d="M1038.19,345.951a1.137,1.137,0,0,1-.932-1.788,6.867,6.867,0,0,1,3.766-2.721,1.138,1.138,0,0,1,.4,2.241,4.76,4.76,0,0,0-2.3,1.787,1.138,1.138,0,0,1-.932.482" transform="translate(-830.49 -273.419)" fill="#571519"/>
      <path id="パス_9456" data-name="パス 9456" d="M619.564,421.388a1.137,1.137,0,0,1-1-1.682c1.955-3.592-1.485-7.98-5.128-12.625-2.489-3.173-5.062-6.455-6.265-9.883a1.138,1.138,0,1,1,2.148-.753c1.077,3.073,3.533,6.2,5.908,9.232,3.937,5.02,8.008,10.21,5.336,15.118a1.137,1.137,0,0,1-1,.594" transform="translate(-486.182 -316.871)" fill="#571519"/>
      <path id="パス_9457" data-name="パス 9457" d="M728.312,18.753a1.138,1.138,0,0,1-.9-1.838C746.032-6.911,769.931,5.271,770.17,5.4a1.138,1.138,0,0,1-1.058,2.015c-.91-.476-22.48-11.4-39.9,10.9a1.137,1.137,0,0,1-.9.437" transform="translate(-582.334 -1.74)" fill="#571519"/>
      <path id="パス_9458" data-name="パス 9458" d="M910.754,198.843a1.108,1.108,0,0,1-.154-.01c-.407-.055-10.041-1.535-18.357-17.641a83.293,83.293,0,0,1-3.568-8.627c-2.488-6.671-5.309-14.233-10.168-17.356a1.138,1.138,0,1,1,1.23-1.915c5.5,3.533,8.458,11.471,11.071,18.475a81.852,81.852,0,0,0,3.459,8.381c7.718,14.947,16.558,16.416,16.647,16.429a1.138,1.138,0,0,1-.159,2.265" transform="translate(-703.104 -122.615)" fill="#571519"/>
      <path id="パス_9459" data-name="パス 9459" d="M1015.139,134.726a1.133,1.133,0,0,1-.684-.229c-5.208-3.92-3.417-9.832-1.837-15.047.868-2.867,1.767-5.831,1.528-8.336A38.544,38.544,0,0,0,1010.6,98.6a71.337,71.337,0,0,1-3.812-10.829,99.792,99.792,0,0,1-3.247-19.109c-.586-6.337-1.048-11.342-4.334-17.966-8.28-16.959-21.9-21.44-31.051-20.114a1.138,1.138,0,1,1-.325-2.252c9.9-1.429,24.6,3.307,33.418,21.361,3.471,7,3.975,12.449,4.559,18.762a97.732,97.732,0,0,0,3.18,18.732,68.626,68.626,0,0,0,3.708,10.528,40.4,40.4,0,0,1,3.722,13.18c.281,2.956-.683,6.138-1.616,9.216-1.562,5.154-2.91,9.605,1.028,12.57a1.138,1.138,0,0,1-.685,2.047" transform="translate(-774.269 -22.497)" fill="#571519"/>
      <path id="パス_9460" data-name="パス 9460" d="M857,58.208a1.14,1.14,0,0,1-1.1-1.445A15.554,15.554,0,0,1,874.145,45.84a1.138,1.138,0,1,1-.439,2.233,13.294,13.294,0,0,0-15.615,9.3,1.139,1.139,0,0,1-1.1.832" transform="translate(-685.384 -36.457)" fill="#571519"/>
      <path id="パス_9461" data-name="パス 9461" d="M973.853,229.945a1.136,1.136,0,0,1-.619-.183c-8.471-5.5-9.671-13.155-10.94-21.264-.732-4.671-1.487-9.5-3.662-14.3a1.138,1.138,0,1,1,2.073-.939c2.3,5.085,3.083,10.07,3.838,14.891,1.241,7.922,2.312,14.763,9.931,19.706a1.138,1.138,0,0,1-.62,2.093" transform="translate(-767.606 -154.226)" fill="#571519"/>
      <path id="パス_9462" data-name="パス 9462" d="M1028.09,433.076a1.139,1.139,0,0,1-1.135-1.072c-.173-2.97-.246-5.74-.312-8.184l-.044-1.643a1.137,1.137,0,0,1,1.1-1.17h.034a1.138,1.138,0,0,1,1.136,1.1l.045,1.647c.066,2.428.14,5.179.309,8.114a1.138,1.138,0,0,1-1.07,1.2l-.067,0" transform="translate(-822.116 -337.15)" fill="#571519"/>
      <path id="パス_9463" data-name="パス 9463" d="M782.845,563.46a1.138,1.138,0,0,1-.811-1.935c5.977-6.088,5.622-14.543,4.819-21.991a1.138,1.138,0,0,1,2.263-.243c.858,7.964,1.214,17.031-5.459,23.829a1.134,1.134,0,0,1-.812.34" transform="translate(-626.004 -431.059)" fill="#571519"/>
      <path id="パス_9464" data-name="パス 9464" d="M390.459,557.706h-.036a89.773,89.773,0,0,1-18.48-2.123,1.138,1.138,0,0,1,.533-2.212,87.653,87.653,0,0,0,18.019,2.061,1.138,1.138,0,0,1-.035,2.275" transform="translate(-297.16 -443.123)" fill="#571519"/>
      <path id="パス_9465" data-name="パス 9465" d="M779.346,609.2a24.513,24.513,0,0,1-3.122-.218,1.138,1.138,0,0,1,.292-2.257,16.232,16.232,0,0,0,5.439-.056,1.138,1.138,0,0,1,.491,2.222,14.355,14.355,0,0,1-3.1.309" transform="translate(-620.819 -485.808)" fill="#571519"/>
      <path id="パス_9466" data-name="パス 9466" d="M95.023,401.261a1.129,1.129,0,0,1-.429-.084c-11.815-4.821-25.757-7.9-38.057-10.618-9.308-2.056-17.347-3.832-22.439-5.944-5.86-2.429-11.92-4.943-17.618-8.653C5.506,368.816.116,363.075,0,358.412c-.144-5.938,10.053-14.2,16.8-19.664l.552-.447c5.155-4.181,11.058-6.928,16.669-9.275,3.145-1.316,10.632-3.741,20.113-6.81,20.77-6.727,52.158-16.892,63.747-24a1.138,1.138,0,1,1,1.189,1.94c-11.819,7.253-43.362,17.468-64.235,24.228-9.43,3.053-16.877,5.466-19.935,6.745-5.454,2.281-11.181,4.943-16.114,8.943l-.552.448c-5.618,4.551-16.075,13.022-15.958,17.84.064,2.615,2.8,7.462,15.445,15.7,5.522,3.6,11.483,6.068,17.248,8.459,4.906,2.035,12.855,3.79,22.058,5.824,12.389,2.737,26.431,5.838,38.425,10.733a1.138,1.138,0,0,1-.43,2.191" transform="translate(0 -238.681)" fill="#571519"/>
      <path id="パス_9467" data-name="パス 9467" d="M167.295,432.576a1.138,1.138,0,0,1-.189-2.26c15.063-2.559,27.437-12.306,39.4-21.732,4.819-3.8,9.8-7.721,14.862-11.089q3.917-2.608,7.774-5.191c10.593-7.084,20.6-13.775,30.26-19.683a1.138,1.138,0,1,1,1.188,1.941c-9.622,5.883-19.609,12.562-30.182,19.633q-3.858,2.579-7.779,5.193c-4.985,3.318-9.931,7.214-14.715,10.982-12.19,9.6-24.795,19.531-40.429,22.188a1.162,1.162,0,0,1-.192.016" transform="translate(-133.062 -298.268)" fill="#571519"/>
      <path id="パス_9468" data-name="パス 9468" d="M1388.466,1171.14a1.137,1.137,0,0,1-1.121-.956c-.195-1.2-.526-3.06-.957-5.492-2.115-11.912-6.517-36.7-9.282-63.857-.56-5.5-.991-12.063-1.357-20.652a1.138,1.138,0,0,1,2.274-.1c.363,8.543.791,15.062,1.346,20.517,2.759,27.075,7.149,51.805,9.26,63.69.434,2.447.767,4.323.962,5.526a1.136,1.136,0,0,1-.94,1.3,1.046,1.046,0,0,1-.184.015" transform="translate(-1101.721 -864.078)" fill="#571519"/>
      <path id="パス_9469" data-name="パス 9469" d="M1210.8,1202.954a1.138,1.138,0,0,1-1.113-.907c-1.081-5.209-5.076-24.879-10.507-52.958-1.157-5.982-2.371-12.065-3.574-18.094-.816-4.092-1.628-8.158-2.413-12.151a1.138,1.138,0,0,1,2.233-.439c.785,3.991,1.6,8.056,2.412,12.145,1.2,6.033,2.418,12.121,3.576,18.107,5.428,28.066,9.42,47.722,10.5,52.927a1.137,1.137,0,0,1-.883,1.345,1.15,1.15,0,0,1-.232.024" transform="translate(-955.512 -894.903)" fill="#571519"/>
      <path id="パス_9470" data-name="パス 9470" d="M510.334,978.488l-.059,0a1.138,1.138,0,0,1-1.079-1.194c.8-15.884-2.685-47.707-4.8-57.243-3.242-14.592-5.9-28.8-2.814-42.156,1.676-7.265,4.723-14.458,7.671-21.414a162.186,162.186,0,0,0,6.671-17.6,1.138,1.138,0,0,1,2.185.636,164.008,164.008,0,0,1-6.76,17.854c-2.909,6.866-5.918,13.966-7.549,21.037-2.976,12.9-.365,26.824,2.818,41.15,2.142,9.637,5.668,41.8,4.855,57.853a1.137,1.137,0,0,1-1.135,1.08" transform="translate(-400.578 -671.132)" fill="#571519"/>
      <path id="パス_9471" data-name="パス 9471" d="M584.374,776.032a1.137,1.137,0,0,1-1.108-1.4,49.433,49.433,0,0,0,1.469-11.619,1.138,1.138,0,0,1,2.276,0,51.691,51.691,0,0,1-1.531,12.148,1.138,1.138,0,0,1-1.106.873" transform="translate(-467.064 -610.121)" fill="#571519"/>
      <path id="パス_9472" data-name="パス 9472" d="M1136.634,1210.942a1.138,1.138,0,0,1-1.113-.906c-.943-4.525-2.057-8.563-3.134-12.468-2.381-8.625-4.436-16.075-3.729-25.277.485-6.307,4.235-16.829,7.862-27.006,2.155-6.047,4.19-11.757,5.251-15.851a1.138,1.138,0,1,1,2.2.571c-1.087,4.191-3.138,9.949-5.311,16.044-3.409,9.568-7.274,20.413-7.736,26.416-.677,8.807,1.33,16.078,3.654,24.5,1.086,3.94,2.211,8.013,3.168,12.61a1.138,1.138,0,0,1-.882,1.346,1.155,1.155,0,0,1-.233.024" transform="translate(-903.735 -903.786)" fill="#571519"/>
      <path id="パス_9473" data-name="パス 9473" d="M633.322,192.443a1.138,1.138,0,0,1-.489-2.166c7.222-3.426,11.76-6.386,13.874-9.048a63,63,0,0,0,6.546-11.052c2.307-4.586,4.694-9.329,8.426-13.267,2.62-2.765,6.521-3.874,10.3-4.946a35.867,35.867,0,0,0,5.782-1.985,7.35,7.35,0,0,0,2.6-2.789c-.555-.33-2.932.093-3.731.235a12.662,12.662,0,0,1-1.7.237c-2,.055-6.177.167-8.571,1.078a27.112,27.112,0,0,0-4.392,2.383c-2.357,1.461-4.795,2.973-7.432,3.323a1.138,1.138,0,0,1-.3-2.256c2.155-.286,4.381-1.666,6.534-3a29.121,29.121,0,0,1,4.782-2.576c2.422-.92,5.91-1.133,9.318-1.225a12.826,12.826,0,0,0,1.357-.2c2.2-.394,4.949-.885,6.068.766a2.148,2.148,0,0,1,.256,1.825c-.477,1.79-2.907,3.814-3.8,4.248a38.017,38.017,0,0,1-6.157,2.129c-3.479.989-7.076,2.01-9.266,4.322-3.5,3.7-5.708,8.081-8.045,12.725a64.665,64.665,0,0,1-6.8,11.443c-2.367,2.982-7.032,6.061-14.679,9.689a1.135,1.135,0,0,1-.487.11" transform="translate(-506.263 -115.957)" fill="#571519"/>
      <path id="パス_9474" data-name="パス 9474" d="M704.428,86.629a1.139,1.139,0,0,1-1.076-1.509,8.923,8.923,0,0,1,1.246-2.2,10.932,10.932,0,0,0,.764-1.187l.327-.632c1.559-3.01,3.914-7.56,6.783-9.431a26.782,26.782,0,0,1,4.12-2.065,31.517,31.517,0,0,0,3.025-1.427c.277-.156.646-.346,1.074-.566,1.718-.884,5.517-2.837,6.062-4.6-.1.017-.2.034-.258.045-.118.022-.218.04-.292.05a33.861,33.861,0,0,0-4.5,1.021c-.914.251-1.859.51-2.816.724-.756.169-1.611.334-2.518.509-3.354.645-7.527,1.448-9.737,3.13a48.523,48.523,0,0,0-6.67,6.711,62.009,62.009,0,0,1-5.577,5.847,1.138,1.138,0,0,1-1.5-1.711,60.254,60.254,0,0,0,5.365-5.634,50.145,50.145,0,0,1,7-7.023c2.634-2.005,7.1-2.864,10.685-3.554.883-.17,1.716-.33,2.452-.494.9-.2,1.822-.454,2.71-.7a36.133,36.133,0,0,1,4.8-1.083c.045-.006.1-.018.172-.031a3.045,3.045,0,0,1,2.341.231,1.6,1.6,0,0,1,.646,1.1c.461,3.477-4.417,5.986-7.332,7.486-.4.2-.741.38-1,.525a33.779,33.779,0,0,1-3.242,1.534,24.727,24.727,0,0,0-3.777,1.88c-2.366,1.544-4.555,5.773-6,8.572l-.331.637a12.73,12.73,0,0,1-.919,1.443,7.175,7.175,0,0,0-.957,1.634,1.139,1.139,0,0,1-1.076.767" transform="translate(-554.565 -48.608)" fill="#571519"/>
      <path id="パス_9475" data-name="パス 9475" d="M664.318,73.41a1.138,1.138,0,0,1-.751-1.993,40.032,40.032,0,0,0,4.83-5.471c2.066-2.636,4.2-5.362,6.922-7.2,3.065-2.077,7.521-2.837,11.454-3.508,1.546-.264,3.006-.513,4.3-.822a80.809,80.809,0,0,1,8.259-1.385l.859-.114c1.012-.139,2.274-.313,3.1.537a2.307,2.307,0,0,1,.512,2.1,1.138,1.138,0,1,1-2.244-.378c.006-.036.011-.069.013-.1a7.31,7.31,0,0,0-1.071.094l-.87.116a79.115,79.115,0,0,0-8.027,1.343c-1.363.326-2.86.581-4.444.852-3.7.632-7.9,1.348-10.56,3.148-2.425,1.643-4.45,4.227-6.408,6.724a42.307,42.307,0,0,1-5.119,5.778,1.133,1.133,0,0,1-.749.282" transform="translate(-531.085 -42.281)" fill="#571519"/>
      <path id="パス_9476" data-name="パス 9476" d="M589.906,121.827A1.138,1.138,0,0,1,589,120c3.9-5.1,6.062-11.713,8.15-18.112,3.706-11.356,7.538-23.1,21.2-26.677a1.138,1.138,0,1,1,.576,2.2C606.47,80.674,603,91.32,599.317,102.592c-2.148,6.58-4.368,13.384-8.507,18.789a1.135,1.135,0,0,1-.9.446" transform="translate(-471.496 -60.199)" fill="#571519"/>
      <path id="パス_9477" data-name="パス 9477" d="M588.041,557.544a8.029,8.029,0,0,1-4.75-1.9,1.138,1.138,0,1,1,1.365-1.82c1.871,1.4,3.4,1.793,4.555,1.151,1.709-.949,2.766-4.333,2.46-7.869-.364-4.174-2.39-7.685-4.537-11.4-2.589-4.483-5.266-9.119-4.735-14.961.69-7.589,5.843-12.761,10.827-17.763,5.044-5.062,9.809-9.844,9.809-16.792a1.138,1.138,0,1,1,2.276,0c0,7.888-5.324,13.231-10.473,18.4-4.915,4.933-9.557,9.592-10.172,16.363-.466,5.123,1.917,9.249,4.439,13.617,2.176,3.768,4.426,7.665,4.833,12.342.332,3.82-.66,8.41-3.622,10.056a4.628,4.628,0,0,1-2.275.583" transform="translate(-466.34 -388.434)" fill="#571519"/>
      <path id="パス_9478" data-name="パス 9478" d="M586.516,823.122a7.651,7.651,0,0,1-2.943-.6c-4.247-1.759-7.574-7.343-7.574-12.712a1.138,1.138,0,0,1,2.276,0c0,4.441,2.767,9.2,6.168,10.609,2.3.953,4.69.29,6.9-1.921a1.138,1.138,0,0,1,1.609,1.609,9.163,9.163,0,0,1-6.438,3.016" transform="translate(-461.27 -647.597)" fill="#571519"/>
      <path id="パス_9479" data-name="パス 9479" d="M697.9,673.248a6.343,6.343,0,0,1-4.59-1.864c-2.5-2.482-3.156-7.063-1.589-11.14,1.926-5.013,5.941-8.465,9.825-11.8,4.7-4.037,9.13-7.849,10-14.172.983-7.182-1.464-13.5-4.055-20.19-2.066-5.333-4.2-10.847-4.415-16.807-.273-7.626,2.785-16.191,8.179-22.909a1.138,1.138,0,0,1,1.774,1.425c-5.062,6.305-7.933,14.306-7.68,21.4.2,5.578,2.174,10.673,4.264,16.066,2.581,6.665,5.252,13.557,4.188,21.322-.982,7.176-5.957,11.453-10.767,15.588-3.838,3.3-7.463,6.417-9.184,10.895-1.233,3.209-.784,6.871,1.068,8.708,1.35,1.339,3.287,1.565,5.6.653a1.138,1.138,0,0,1,.834,2.118,9.471,9.471,0,0,1-3.45.71" transform="translate(-553.265 -459.617)" fill="#571519"/>
      <path id="パス_9480" data-name="パス 9480" d="M608.778,902.72a1.139,1.139,0,0,1-.453-.094c-3.933-1.71-6.445-4.147-7.468-7.242-2.123-6.423,2.444-14.361,6.473-21.365a57.182,57.182,0,0,0,4.374-8.565,1.138,1.138,0,1,1,2.151.745,58.529,58.529,0,0,1-4.552,8.955c-3.791,6.59-8.088,14.059-6.286,19.516.823,2.488,2.856,4.407,6.216,5.869a1.138,1.138,0,0,1-.455,2.181" transform="translate(-480.744 -692.457)" fill="#571519"/>
      <path id="パス_9481" data-name="パス 9481" d="M651.031,993.973c-2.527,0-5.821-1.864-7.07-2.633-5.043-3.108-7.312-11.826-4.334-16.659a1.138,1.138,0,0,1,1.938,1.193c-2.362,3.834-.45,11.04,3.589,13.529,3.206,1.973,6.164,2.74,6.565,2.087a1.138,1.138,0,0,1,1.938,1.193,2.863,2.863,0,0,1-2.626,1.291" transform="translate(-511.158 -780.107)" fill="#571519"/>
      <path id="パス_9482" data-name="パス 9482" d="M947.666,515.382a5.764,5.764,0,0,1-4.054-2,1.138,1.138,0,1,1,1.609-1.609c.877.877,2.165,1.782,3.318,1.1,1.378-.819,2.332-3.73,1.546-6.4-1.151-3.912-3.4-7.274-5.578-10.526-3.2-4.777-6.505-9.718-6.505-16.506,0-10.472,5.056-18.83,9.945-26.912,1.3-2.152,2.648-4.378,3.881-6.613a51.234,51.234,0,0,0,5.795-23.688,1.138,1.138,0,0,1,2.276,0,53.617,53.617,0,0,1-6.078,24.788c-1.255,2.275-2.613,4.52-3.927,6.691-4.946,8.175-9.617,15.9-9.617,25.735,0,6.1,2.973,10.538,6.12,15.24,2.272,3.394,4.622,6.9,5.871,11.15,1.032,3.509-.119,7.547-2.567,9a4.008,4.008,0,0,1-2.036.555" transform="translate(-751.167 -337.212)" fill="#571519"/>
      <path id="パス_9483" data-name="パス 9483" d="M967.136,865.062c-3.881,0-8.055-2.569-9.3-8.6a1.137,1.137,0,1,1,2.227-.46c1.132,5.469,4.884,7.052,7.754,6.752,3.334-.352,6.905-3.35,6.868-9.1a1.138,1.138,0,0,1,1.13-1.145h.007a1.138,1.138,0,0,1,1.138,1.131c.047,7.167-4.583,10.921-8.9,11.378a8.8,8.8,0,0,1-.918.048" transform="translate(-767.029 -682.7)" fill="#571519"/>
      <path id="パス_9484" data-name="パス 9484" d="M1003.339,862.88A7.659,7.659,0,0,1,998.5,861.4a12.179,12.179,0,0,1-3.4-3.525c-5.03-7.688-.351-13.781,3.776-19.156,2.339-3.045,4.548-5.922,5.249-9.021.753-3.324.121-5.129-.755-7.627a35.5,35.5,0,0,1-1.414-4.854,1.137,1.137,0,1,1,2.227-.461,33.825,33.825,0,0,0,1.335,4.562c.925,2.64,1.724,4.92.826,8.882-.812,3.585-3.278,6.8-5.663,9.9-4.2,5.466-7.823,10.186-3.677,16.524a10,10,0,0,0,2.83,2.924c1.375.992,2.568,1.115,4.56,1.017a1.138,1.138,0,0,1,.115,2.272c-.4.02-.784.036-1.169.036" transform="translate(-795.141 -653.347)" fill="#571519"/>
      <path id="パス_9485" data-name="パス 9485" d="M1072.453,653.834a3.4,3.4,0,0,1-1.882-.577c-3.13-2.058-3.576-9.146-2.927-11.587,1.088-4.1,3.889-6.873,6.6-9.558q.567-.561,1.13-1.128c4.707-4.769,9.447-9.966,11.165-16.433,2.113-7.951-.953-14.516-4.2-21.466-1.2-2.575-2.446-5.239-3.426-8-2.9-8.171-1.818-17.149,3.405-28.254a1.138,1.138,0,1,1,2.059.969c-4.951,10.526-6.006,18.955-3.32,26.524.944,2.66,2.164,5.272,3.344,7.8,3.275,7.012,6.661,14.263,4.335,23.014-1.862,7.006-6.823,12.46-11.745,17.446-.379.385-.764.765-1.148,1.146-2.607,2.584-5.07,5.025-6,8.527-.555,2.087.114,7.875,1.978,9.1.215.143.871.572,2.349-.594a1.138,1.138,0,1,1,1.409,1.787,5.085,5.085,0,0,1-3.125,1.286" transform="translate(-854.782 -445.395)" fill="#571519"/>
      <path id="パス_9486" data-name="パス 9486" d="M1039.7,1010.741a6.046,6.046,0,0,1-2.414-.529,10.449,10.449,0,0,1-5.754-9.333,1.138,1.138,0,0,1,2.274.094,8.234,8.234,0,0,0,4.388,7.151,3.384,3.384,0,0,0,4.039-.858,1.138,1.138,0,1,1,1.62,1.6,5.781,5.781,0,0,1-4.152,1.876" transform="translate(-826.063 -800.646)" fill="#571519"/>
      <path id="パス_9487" data-name="パス 9487" d="M1194.609,583.325a1.137,1.137,0,0,1-1.017-1.647c1.146-2.288-1.567-5.914-3.349-7.7a49.3,49.3,0,0,0-5.491-4.538c-4.214-3.149-8.571-6.4-10.211-12.964a1.138,1.138,0,0,1,2.208-.552c1.444,5.774,5.114,8.517,9.365,11.693a51.077,51.077,0,0,1,5.738,4.753c1.4,1.4,5.8,6.272,3.775,10.324a1.14,1.14,0,0,1-1.019.628" transform="translate(-940.564 -444.505)" fill="#571519"/>
      <path id="パス_9488" data-name="パス 9488" d="M775.517,695.845a26.913,26.913,0,0,1-7.025-.918c-7.981-2.168-13.687-7.905-16.068-16.157a1.138,1.138,0,0,1,2.187-.631c2.151,7.458,7.293,12.64,14.477,14.591,7.456,2.026,16.325.211,21.087-4.315a1.137,1.137,0,0,1,1.566,1.65c-3.9,3.709-10,5.78-16.225,5.78" transform="translate(-602.518 -542.407)" fill="#571519"/>
      <path id="パス_9489" data-name="パス 9489" d="M777.01,411.05c1.872-1.532,4.668,1.383,7.085.952,1.708-.3,3.269-1.916,5.007-2.105,1.92-.209,3.446,1.136,4.76,2.768.842,1.045,2.568,3.676,1.218,4.429-1.473.822-3.266.619-4.824.5-4.112-.3-8.231.639-12.247.342-2.138-.158-2.374-5.764-1-6.891" transform="translate(-621.555 -328.235)" fill="#fff" fill-rule="evenodd"/>
      <path id="パス_9490" data-name="パス 9490" d="M775.117,414.56c-.586,0-1.173-.018-1.756-.061-.673-.05-1.9-.439-2.545-2.487-.582-1.843-.594-5.189.908-6.419,1.573-1.285,3.438-.535,4.936.069a5.632,5.632,0,0,0,2.669.644,7.059,7.059,0,0,0,2.019-.9,8.056,8.056,0,0,1,3.065-1.214c2.651-.291,4.558,1.68,5.77,3.186.536.665,2.26,2.971,1.924,4.7a2.072,2.072,0,0,1-1.038,1.436,8.925,8.925,0,0,1-5.162.669l-.3-.023a40.043,40.043,0,0,0-6.027.171c-1.463.115-2.963.233-4.463.233m-1.95-7.207c-.379.345-.693,2.49-.15,4.069.2.591.436.8.512.807a38.872,38.872,0,0,0,5.874-.171,41.994,41.994,0,0,1,6.373-.172l.306.023a7.258,7.258,0,0,0,3.8-.344,6.372,6.372,0,0,0-1.469-2.765c-1.413-1.754-2.572-2.487-3.75-2.351a6.362,6.362,0,0,0-2.19.932,8.754,8.754,0,0,1-2.741,1.163,7.236,7.236,0,0,1-3.919-.773c-1.315-.529-2.152-.824-2.644-.419" transform="translate(-616.989 -323.658)" fill="#571519"/>
      <path id="パス_9491" data-name="パス 9491" d="M450.611,632.7a1.136,1.136,0,0,1-.944-.5c-3.2-4.736-9.024-6.462-13.7-7.848a24.557,24.557,0,0,1-6.381-2.475c-5.11-3.437-5.67-12.519-5.425-13.227a1.139,1.139,0,0,1,2.2.17c.5,2.653,2.028,6.184,3.609,7.262.847.577,1.873,1.28,2.315,1.162.179-.048.413-.333.625-.764,2.441-4.981,5.7-19.936,5.052-31.125a59.377,59.377,0,0,0-4.923-20.114c-.548-1.289-.678-1.595-.492-2.1.321-.87.323-.868,4.874-.549,3.5.246,9.348.658,15.216.8,2.553.06,5.168-.045,7.7-.149a44.243,44.243,0,0,1,8.43.1,1.138,1.138,0,1,1-.418,2.237,44.437,44.437,0,0,0-7.919-.065c-2.444.1-5.213.214-7.845.15-5.92-.143-11.805-.557-15.321-.8-.7-.05-1.39-.1-1.968-.136a61.306,61.306,0,0,1,4.941,20.5c.671,11.547-2.734,27.063-5.281,32.258a3.375,3.375,0,0,1-2.087,1.963c-1.3.343-2.554-.387-3.767-1.2a7.032,7.032,0,0,0,1.757,1.748,23.466,23.466,0,0,0,5.758,2.181c5.029,1.49,11.288,3.344,14.945,8.757a1.138,1.138,0,0,1-.942,1.774" transform="translate(-339.633 -450.377)" fill="#571519"/>
      <path id="パス_9492" data-name="パス 9492" d="M1140.708,731.594c-4.333,0-7.675-.482-8.522-1.582-.807-1.048-1.46-5.926-3.145-21.05-.848-7.618-1.725-15.5-2.419-18.918a1.138,1.138,0,1,1,2.231-.452c.713,3.522,1.6,11.45,2.449,19.117.913,8.192,2.044,18.349,2.693,19.9,1.61,1.015,14.108,1.315,25.579-1.566,9.018-2.264,16.78-8.1,18.261-9.695-1.6-5.054-2.866-13.325-4.2-22.065-2.3-15.062-4.906-32.134-9.97-39.208-2.239-3.128-8.613-8.3-15-11.209a125.453,125.453,0,0,0-18.215-6.2c-4.129-1.156-7.111-1.992-8.49-2.911a1.138,1.138,0,1,1,1.262-1.893c1.078.719,4.213,1.6,7.841,2.613A129.192,129.192,0,0,1,1149.6,642.8c6.823,3.1,13.448,8.514,15.912,11.955,5.381,7.517,8.031,24.875,10.369,40.19,1.365,8.935,2.653,17.376,4.272,22.185a1.3,1.3,0,0,1-.121,1.07c-.925,1.692-9.711,8.5-19.907,11.055a87.935,87.935,0,0,1-19.421,2.345M1178,717.852h0Z" transform="translate(-898.075 -507.455)" fill="#571519"/>
      <path id="パス_9493" data-name="パス 9493" d="M859.116,244.9a1.135,1.135,0,0,1-.766-.3c-.628-.571-3.078-.839-5.048-1.054-3.933-.43-8-.875-9.029-3.6a1.138,1.138,0,0,1,2.13-.8c.535,1.421,4.357,1.839,7.146,2.144,2.768.3,5.158.564,6.334,1.634a1.138,1.138,0,0,1-.766,1.979" transform="translate(-676.049 -190.918)" fill="#571519"/>
      <path id="パス_9494" data-name="パス 9494" d="M830.495,238.278a1.136,1.136,0,0,1-.913-.457,5.93,5.93,0,0,1-1.151-4.476,1.138,1.138,0,1,1,2.253.325,3.7,3.7,0,0,0,.723,2.789,1.138,1.138,0,0,1-.911,1.818" transform="translate(-663.369 -186.085)" fill="#571519"/>
      <path id="パス_9495" data-name="パス 9495" d="M756.269,242.6a19.756,19.756,0,0,1-3.47-.41c-.4-.073-.773-.141-1.1-.189a1.138,1.138,0,0,1,.327-2.253c.355.052.757.124,1.185.2,2.429.443,4.642.741,5.04-.464a1.138,1.138,0,1,1,2.16.714c-.627,1.9-2.339,2.4-4.139,2.4" transform="translate(-601.189 -191.158)" fill="#571519"/>
      <path id="パス_9496" data-name="パス 9496" d="M798.985,236.667a1.138,1.138,0,0,1-.964-1.74,4.853,4.853,0,0,0,.814-3.21,1.137,1.137,0,1,1,2.249-.342,7.076,7.076,0,0,1-1.132,4.757,1.138,1.138,0,0,1-.966.535" transform="translate(-638.93 -184.515)" fill="#571519"/>
      <path id="パス_9497" data-name="パス 9497" d="M533.515,34.491a1.119,1.119,0,0,1-.326-.048c-.73-.218-1.725-.436-2.777-.667-2.38-.521-5.078-1.112-6.678-2.109a1.232,1.232,0,0,1-.589-1.429c.3-.974,1.239-.929,2.66-.863.227.011.434.021.579.022l.437,0a16.315,16.315,0,0,0,4.05-.316c1.813-.474,1.821-1.321,1.825-1.682.048-4.59-6.691-10.293-10.717-13.7-.692-.586-1.316-1.113-1.829-1.57-.188-.167-.552-.535-1.014-1.007-.48-.489-1.141-1.162-1.815-1.811q-.628-.406-1.243-.829c-2.346-1.605-1.853-2.411-1.642-2.755a1.171,1.171,0,0,1,1.628-.37,14.819,14.819,0,0,1,2.67,2.158q.249.16.5.317,1.953,1.217,3.932,2.388l.242.144c3.1,1.845,6.623,3.939,10.01,3.483a5.581,5.581,0,0,0,3.984-2.017,5.231,5.231,0,0,0,.542-4.219c-.282-1.317-.6-2.72-1.016-4.057-.066-.212-.3-.711-.47-1.076-.419-.9-.816-1.742.068-2.3a1.182,1.182,0,0,1,1.595.333c.462.558.9,1.1,1.322,1.632,2.282,2.852,4.084,5.1,7.695,6.566a1.138,1.138,0,0,1-.855,2.11A16.575,16.575,0,0,1,540,6.357q.088.394.171.78a7.488,7.488,0,0,1-.907,6.006,7.757,7.757,0,0,1-5.543,2.962,12.957,12.957,0,0,1-7.08-1.385c4.081,3.659,8.379,8.256,8.333,12.707-.012,1.1-.484,3.064-3.525,3.859-.294.077-.6.14-.9.19l.352.077c1.1.24,2.131.467,2.942.71a1.138,1.138,0,0,1-.326,2.228" transform="translate(-411.814 -0.001)" fill="#571519"/>
    </g>
  </g>
</svg>
