<?xml version="1.0" encoding="UTF-8"?>
<svg id="_レイヤー_1" data-name="レイヤー_1" xmlns="http://www.w3.org/2000/svg" xmlns:xlink="http://www.w3.org/1999/xlink" viewBox="0 0 144 90">
  <defs>
    <style>
      .cls-1 {
        fill: #595757;
      }

      .cls-2 {
        fill: none;
      }

      .cls-3 {
        clip-path: url(#clippath);
      }
    </style>
    <clipPath id="clippath">
      <rect class="cls-2" x="4.5" y="18.63" width="135.25" height="60.19"/>
    </clipPath>
  </defs>
  <g id="_グループ_4950" data-name="グループ_4950">
    <g id="_グループ_4923" data-name="グループ_4923">
      <path id="_パス_826" data-name="パス_826" class="cls-1" d="M22.38,52.01h10.41l-3.7,10.79h-10.48l3.77-10.79ZM37.84,37.53l-3.92,11.39h-10.48l4-11.39h-3.55l-3.92,11.39h-9.65l-1.06,3.09h9.58l-3.7,10.79H5.56l-1.06,3.09h9.5l-3.84,11.16h3.47l3.92-11.16h10.41l-3.85,11.16h3.47l3.92-11.16h9.5l1.06-3.09h-9.5l3.77-10.79h9.65l1.13-3.09h-9.73l4-11.39h-3.55Z"/>
      <g id="_グループ_567" data-name="グループ_567">
        <g class="cls-3">
          <g id="_グループ_566" data-name="グループ_566">
            <path id="_パス_827" data-name="パス_827" class="cls-1" d="M56.25,60.79c0-18.1,13.35-42.17,28.82-42.17,8.07,0,13.73,6.26,13.73,18.71,0,18.25-12.82,41.49-28.59,41.49-8.3,0-13.96-5.96-13.96-18.03M94.34,37.71c0-9.28-3.62-14.94-9.88-14.94-12.07,0-23.84,22.18-23.84,37.71,0,9.05,3.39,14.26,9.88,14.26,12.37,0,23.84-21.65,23.84-37.04"/>
            <path id="_パス_828" data-name="パス_828" class="cls-1" d="M102.57,74.07h26.78l-1.21,3.85h-31.61l-.9-4.3c15.09-7.01,39.6-22.48,39.6-39.38,0-6.94-4.3-11.47-10.49-11.47-7.17,0-12.82,6.79-12.82,13.28-.11,2.57.46,5.12,1.66,7.39l-3.92,1.96c-1.51-2.41-2.19-5.43-2.19-9.35,0-8.22,7.16-17.42,17.65-17.42,8.75,0,14.63,6.41,14.63,15.39,0,17.42-23.16,33.87-37.19,40.05"/>
          </g>
        </g>
      </g>
    </g>
  </g>
</svg>