<?xml version="1.0" encoding="UTF-8"?>
<svg xmlns="http://www.w3.org/2000/svg" version="1.1" viewBox="0 0 136.9 65.4">
  <defs>
    <style>
      .cls-1 {
        fill: #595757;
      }
    </style>
  </defs>
  <!-- Generator: Adobe Illustrator 28.6.0, SVG Export Plug-In . SVG Version: 1.2.0 Build 709)  -->
  <g>
    <g id="_レイヤー_1" data-name="レイヤー_1">
      <path id="_パス_823" class="cls-1" d="M19.4,36.3h11.3l-4,11.7h-11.4s4.1-11.7,4.1-11.7ZM36.2,20.5l-4.3,12.4h-11.4l4.3-12.4h-3.9l-4.3,12.4H6.3l-1.1,3.4h10.4l-4,11.7H1.1l-1.1,3.4h10.3l-4.2,12.1h3.8l4.3-12.1h11.3l-4.2,12.1h3.8l4.3-12.1h10.3l1.1-3.4h-10.3l4.1-11.7h10.5l1.2-3.4h-10.6l4.3-12.4h-3.9.1Z"/>
      <g id="_グループ_563">
        <path id="_パス_824" class="cls-1" d="M56.2,45.8C56.2,26.1,70.7,0,87.5,0s14.9,6.8,14.9,20.3c0,19.8-13.9,45.1-31.1,45.1s-15.2-6.5-15.2-19.6M97.6,20.7c0-10.1-3.9-16.2-10.7-16.2-13.1,0-25.9,24.1-25.9,41s3.7,15.5,10.7,15.5c13.4,0,25.9-23.5,25.9-40.2"/>
        <path id="_パス_825" class="cls-1" d="M116,64.4h-4.8c5.4-16.7,12-37.6,17.9-55.1-4.9,4.3-10.7,7.4-17,9l-1.1-4.3c7.6-2,15.9-6.5,20.5-13.6h5.4c-6.6,18.9-14.5,44.3-20.9,63.9"/>
      </g>
    </g>
  </g>
</svg>