<?xml version="1.0" encoding="UTF-8"?>
<svg id="_レイヤー_1" data-name="レイヤー_1" xmlns="http://www.w3.org/2000/svg" xmlns:xlink="http://www.w3.org/1999/xlink" viewBox="0 0 144 90">
  <defs>
    <style>
      .cls-1 {
        fill: #595757;
      }

      .cls-2 {
        fill: none;
      }

      .cls-3 {
        clip-path: url(#clippath);
      }
    </style>
    <clipPath id="clippath">
      <rect class="cls-2" x="6.5" y="19.34" width="126.96" height="60.66"/>
    </clipPath>
  </defs>
  <g id="_グループ_4948" data-name="グループ_4948">
    <g id="_グループ_4908" data-name="グループ_4908">
      <path id="_パス_823" data-name="パス_823" class="cls-1" d="M24.52,52.99h10.49l-3.72,10.87h-10.57l3.8-10.87ZM40.1,38.39l-3.95,11.48h-10.57l4.03-11.48h-3.57l-3.95,11.48h-9.73l-1.06,3.12h9.65l-3.73,10.87H7.57l-1.07,3.12h9.58l-3.88,11.25h3.5l3.95-11.25h10.49l-3.88,11.25h3.5l3.95-11.25h9.58l1.06-3.12h-9.58l3.8-10.87h9.73l1.14-3.12h-9.81l4.03-11.48h-3.57Z"/>
      <g id="_グループ_564" data-name="グループ_564">
        <g class="cls-3">
          <g id="_グループ_563" data-name="グループ_563">
            <path id="_パス_824" data-name="パス_824" class="cls-1" d="M58.65,61.84c0-18.24,13.46-42.49,29.04-42.49,8.13,0,13.84,6.31,13.84,18.85,0,18.4-12.92,41.81-28.81,41.81-8.36,0-14.06-6.01-14.06-18.17M97.04,38.58c0-9.35-3.65-15.05-9.96-15.05-12.16,0-24.02,22.35-24.02,38.01,0,9.12,3.42,14.37,9.96,14.37,12.47,0,24.02-21.82,24.02-37.33"/>
            <path id="_パス_825" data-name="パス_825" class="cls-1" d="M114.07,79.09h-4.49c5.02-15.51,11.18-34.89,16.65-51.08-4.53,3.96-9.92,6.82-15.74,8.36l-1.07-3.95c7.07-1.82,14.75-6.01,19-12.62h5.02c-6.08,17.49-13.46,41.05-19.38,59.3"/>
          </g>
        </g>
      </g>
    </g>
  </g>
</svg>