<?xml version="1.0" encoding="UTF-8"?>
<svg xmlns="http://www.w3.org/2000/svg" version="1.1" viewBox="0 0 147 65.4">
  <defs>
    <style>
      .cls-1 {
        fill: #595757;
      }
    </style>
  </defs>
  <!-- Generator: Adobe Illustrator 28.6.0, SVG Export Plug-In . SVG Version: 1.2.0 Build 709)  -->
  <g>
    <g id="_レイヤー_1" data-name="レイヤー_1">
      <path id="_パス_826" data-name="パス_826" class="cls-1" d="M19.4,36.3h11.3l-4,11.7h-11.4l4.1-11.7ZM36.2,20.5l-4.3,12.4h-11.4l4.3-12.4h-3.9l-4.3,12.4H6.3l-1.1,3.4h10.4l-4,11.7H1.1l-1.1,3.4h10.3l-4.2,12.1h3.8l4.3-12.1h11.3l-4.2,12.1h3.8l4.3-12.1h10.3l1.1-3.4h-10.3l4.1-11.7h10.5l1.2-3.4h-10.6l4.3-12.4h-3.9Z"/>
      <g id="_グループ_566" data-name="グループ_566">
        <path id="_パス_827" data-name="パス_827" class="cls-1" d="M56.2,45.8C56.2,26.1,70.7,0,87.5,0s14.9,6.8,14.9,20.3c0,19.8-13.9,45.1-31.1,45.1s-15.2-6.5-15.2-19.6M97.6,20.7c0-10.1-3.9-16.2-10.7-16.2-13.1,0-25.9,24.1-25.9,41s3.7,15.5,10.7,15.5c13.4,0,25.9-23.5,25.9-40.2"/>
        <path id="_パス_828" data-name="パス_828" class="cls-1" d="M106.6,60.2h29.1l-1.3,4.2h-34.3l-1-4.7c16.4-7.6,43-24.4,43-42.8s-4.7-12.5-11.4-12.5-13.9,7.4-13.9,14.4c-.1,2.8.5,5.6,1.8,8l-4.3,2.1c-1.6-2.6-2.4-5.9-2.4-10.2C111.9,10,119.7,0,131.1,0s15.9,7,15.9,16.7c0,18.9-25.2,36.8-40.4,43.5"/>
      </g>
    </g>
  </g>
</svg>