<svg xmlns="http://www.w3.org/2000/svg" xmlns:xlink="http://www.w3.org/1999/xlink" width="146.956" height="65.403" viewBox="0 0 146.956 65.403">
  <defs>
    <clipPath id="clip-path">
      <rect id="長方形_378" data-name="長方形 378" width="146.956" height="65.403" fill="none"/>
    </clipPath>
  </defs>
  <g id="グループ_4694" data-name="グループ 4694" transform="translate(0)">
    <path id="パス_826" data-name="パス 826" d="M19.424,45.53H30.735L26.719,57.25H15.326Zm16.8-15.737L31.964,42.169H20.572l4.344-12.376H21.064L16.8,42.169H6.311L5.164,45.53H15.573L11.557,57.25H1.148L0,60.609H10.327L6.148,72.739h3.77l4.262-12.13h11.31L21.31,72.739h3.77l4.262-12.13H39.668l1.147-3.36H30.489l4.1-11.72H45.077l1.229-3.361H35.734l4.344-12.376Z" transform="translate(0 -9.253)"/>
    <g id="グループ_567" data-name="グループ 567" transform="translate(0 0)">
      <g id="グループ_566" data-name="グループ 566" clip-path="url(#clip-path)">
        <path id="パス_827" data-name="パス 827" d="M81.556,45.814C81.556,26.145,96.063,0,112.864,0c8.77,0,14.917,6.8,14.917,20.325,0,19.834-13.933,45.077-31.062,45.077-9.015,0-15.162-6.475-15.162-19.588m41.389-25.079c0-10.081-3.935-16.228-10.737-16.228-13.113,0-25.9,24.1-25.9,40.979,0,9.836,3.688,15.49,10.737,15.49,13.441,0,25.9-23.522,25.9-40.241" transform="translate(-25.33 0)"/>
        <path id="パス_828" data-name="パス 828" d="M151.154,60.24h29.1l-1.311,4.179H144.6l-.983-4.671c16.392-7.622,43.028-24.424,43.028-42.782,0-7.54-4.672-12.458-11.393-12.458-7.786,0-13.933,7.376-13.933,14.425a15.749,15.749,0,0,0,1.8,8.031L158.858,29.1c-1.639-2.623-2.377-5.9-2.377-10.163C156.481,10,164.267,0,175.659,0c9.507,0,15.9,6.967,15.9,16.72,0,18.932-25.161,36.8-40.405,43.52" transform="translate(-44.604 0)"/>
      </g>
    </g>
  </g>
</svg>
